<?xml version="1.0" encoding="UTF-8" standalone="no"?>
<svg
   xmlns:dc="http://purl.org/dc/elements/1.1/"
   xmlns:cc="http://creativecommons.org/ns#"
   xmlns:rdf="http://www.w3.org/1999/02/22-rdf-syntax-ns#"
   xmlns:svg="http://www.w3.org/2000/svg"
   xmlns="http://www.w3.org/2000/svg"
   xmlns:sodipodi="http://sodipodi.sourceforge.net/DTD/sodipodi-0.dtd"
   xmlns:inkscape="http://www.inkscape.org/namespaces/inkscape"
   width="297.34714"
   height="165.47572"
   viewBox="0 0 78.673093 43.78212"
   version="1.1"
   id="svg8"
   inkscape:version="1.0 (4035a4fb49, 2020-05-01)"
   sodipodi:docname="dynamic-compound-intransitive.svg">
  <defs
     id="defs2">
    <rect
       id="rect892"
       height="29.132379"
       width="41.694046"
       y="54.62747"
       x="96.452177" />
    <rect
       x="0.59185642"
       y="111.02134"
       width="117.06405"
       height="47.573975"
       id="rect977" />
    <rect
       x="94.136192"
       y="43.13488"
       width="37.685005"
       height="23.786987"
       id="rect971" />
    <rect
       id="rect5078"
       height="23.20262"
       width="28.145405"
       y="66.437157"
       x="2.3806393" />
    <rect
       x="59.391151"
       y="69.861832"
       width="27.796032"
       height="20.045214"
       id="rect2967" />
    <rect
       x="70.349205"
       y="14.269771"
       width="25.123337"
       height="14.967094"
       id="rect2961" />
    <rect
       x="24.646114"
       y="17.477007"
       width="30.468725"
       height="12.294398"
       id="rect2180" />
    <rect
       x="58.322075"
       y="55.963818"
       width="37.685001"
       height="12.828937"
       id="rect2174" />
    <rect
       x="1.6609344"
       y="57.300163"
       width="42.228584"
       height="20.312485"
       id="rect2168" />
    <rect
       x="-6.9490075"
       y="37.952274"
       width="39.823158"
       height="16.036173"
       id="rect962" />
    <rect
       x="11.759859"
       y="56.126602"
       width="37.417732"
       height="23.519718"
       id="rect894" />
    <rect
       x="75.102737"
       y="14.432554"
       width="47.841248"
       height="13.363476"
       id="rect886" />
    <rect
       x="35.279579"
       y="23.252449"
       width="34.210499"
       height="13.363476"
       id="rect880" />
    <rect
       x="59.868374"
       y="102.89877"
       width="88.733482"
       height="34.477768"
       id="rect855" />
    <rect
       x="52.652096"
       y="99.691536"
       width="92.475258"
       height="33.94323"
       id="rect849" />
    <rect
       x="52.715843"
       y="47.507061"
       width="67.822716"
       height="20.112129"
       id="rect843" />
    <rect
       x="47.625"
       y="45.357143"
       width="92.98214"
       height="43.845238"
       id="rect835" />
    <rect
       id="rect886-3"
       height="38.060673"
       width="54.312309"
       y="14.432554"
       x="75.102737" />
    <rect
       id="rect925"
       height="13.363476"
       width="47.841248"
       y="14.432554"
       x="75.102737" />
  </defs>
  <sodipodi:namedview
     fit-margin-bottom="10"
     fit-margin-right="10"
     fit-margin-left="10"
     fit-margin-top="10"
     lock-margins="true"
     units="px"
     id="base"
     pagecolor="#ffffff"
     bordercolor="#666666"
     borderopacity="1.0"
     inkscape:pageopacity="0.0"
     inkscape:pageshadow="2"
     inkscape:zoom="0.98994949"
     inkscape:cx="165.53043"
     inkscape:cy="24.157692"
     inkscape:document-units="mm"
     inkscape:current-layer="layer1"
     inkscape:document-rotation="0"
     showgrid="false"
     inkscape:window-width="1541"
     inkscape:window-height="1030"
     inkscape:window-x="2512"
     inkscape:window-y="165"
     inkscape:window-maximized="0"
     showguides="false"
     inkscape:snap-global="false" />
  <metadata
     id="metadata5">
    <rdf:RDF>
      <cc:Work
         rdf:about="">
        <dc:format>image/svg+xml</dc:format>
        <dc:type
           rdf:resource="http://purl.org/dc/dcmitype/StillImage" />
        <dc:title />
      </cc:Work>
    </rdf:RDF>
  </metadata>
  <g
     transform="translate(-49.68001,-44.471228)"
     inkscape:label="Layer 1"
     inkscape:groupmode="layer"
     id="layer1">
    <text
       xml:space="preserve"
       id="text833"
       style="font-style:normal;font-weight:normal;font-size:10.5833px;line-height:1.25;font-family:sans-serif;white-space:pre;shape-inside:url(#rect835);fill:#000000;fill-opacity:1;stroke:none;" />
    <path
       d="M 52.715843,47.507061 H 125.31727 V 85.217514 H 52.715843 Z"
       style="fill:#ffffff;stroke:#000000;stroke-width:0.78;stroke-miterlimit:4;stroke-dasharray:none"
       id="rect839" />
    <g
       aria-label="+"
       transform="translate(61.471991,43.252482)"
       id="text2178"
       style="font-style:normal;font-weight:normal;font-size:10.5833px;line-height:1.25;font-family:sans-serif;white-space:pre;shape-inside:url(#rect2180);fill:#000000;fill-opacity:1;stroke:none">
      <path
         d="m 29.514389,20.205069 v 2.878369 h 2.878368 v 0.878496 h -2.878368 v 2.878368 h -0.868162 v -2.878368 h -2.878368 v -0.878496 h 2.878368 v -2.878369 z"
         id="path3000" />
    </g>
    <g
       id="g1048"
       transform="translate(0,0.87984573)">
      <g
         style="font-style:normal;font-weight:normal;font-size:10.5833px;line-height:1.25;font-family:sans-serif;white-space:pre;shape-inside:url(#rect2168);fill:#000000;fill-opacity:1;stroke:none"
         id="text2166"
         transform="matrix(0.74399477,0,0,0.74399477,53.91504,10.288093)"
         aria-label="Subject">
        <path
           id="path2985"
           d="M 7.3238752,59.202468 V 60.22049 Q 6.7295981,59.936271 6.2025002,59.796745 5.6754023,59.657219 5.1844777,59.657219 q -0.8526584,0 -1.3177448,0.330728 -0.4599188,0.330728 -0.4599188,0.940508 0,0.511595 0.30489,0.775144 0.3100576,0.258382 1.1678836,0.418578 l 0.6304505,0.129191 q 1.1678836,0.222208 1.7208197,0.785479 0.5581037,0.558104 0.5581037,1.498612 0,1.121375 -0.7544735,1.700149 -0.7493059,0.578774 -2.201409,0.578774 -0.5477684,0 -1.1678837,-0.124023 -0.6149475,-0.124023 -1.2764038,-0.366901 v -1.074867 q 0.6356181,0.356566 1.2453981,0.537433 0.6097799,0.180867 1.1988894,0.180867 0.8939994,0 1.3797563,-0.351398 0.485757,-0.351399 0.485757,-1.00252 0,-0.568439 -0.3513987,-0.888832 -0.346231,-0.320393 -1.1420455,-0.480589 L 4.5695301,63.119529 Q 3.4016465,62.886986 2.8797162,62.390894 2.3577859,61.894801 2.3577859,61.011137 q 0,-1.02319 0.7183001,-1.612299 0.7234677,-0.58911 1.9895363,-0.58911 0.5426008,0 1.1058721,0.09819 0.5632713,0.09819 1.1523808,0.294555 z" />
        <path
           id="path2987"
           d="m 9.2772379,64.38043 v -3.503651 h 0.9508431 v 3.467478 q 0,0.821652 0.320393,1.235062 0.320393,0.408243 0.961179,0.408243 0.769976,0 1.214392,-0.490925 0.449583,-0.490924 0.449583,-1.338415 v -3.281443 h 0.950844 v 5.787742 h -0.950844 v -0.888832 q -0.346231,0.527098 -0.806149,0.785479 -0.454751,0.253214 -1.059364,0.253214 -0.997352,0 -1.5141144,-0.620115 Q 9.2772379,65.574152 9.2772379,64.38043 Z m 2.3926111,-3.643177 z" />
        <path
           id="path2989"
           d="m 20.248109,63.775818 q 0,-1.049029 -0.43408,-1.643306 -0.428913,-0.599444 -1.183387,-0.599444 -0.754473,0 -1.188554,0.599444 -0.428913,0.594277 -0.428913,1.643306 0,1.049028 0.428913,1.648473 0.434081,0.594277 1.188554,0.594277 0.754474,0 1.183387,-0.594277 0.43408,-0.599445 0.43408,-1.648473 z m -3.234934,-2.020542 q 0.299722,-0.516763 0.754473,-0.764809 0.459919,-0.253214 1.095537,-0.253214 1.054196,0 1.710485,0.837156 0.661456,0.837155 0.661456,2.201409 0,1.364253 -0.661456,2.201409 -0.656289,0.837155 -1.710485,0.837155 -0.635618,0 -1.095537,-0.248046 -0.454751,-0.253214 -0.754473,-0.769976 v 0.868161 h -0.956011 v -8.040827 h 0.956011 z" />
        <path
           id="path2991"
           d="m 22.811252,60.876779 h 0.950843 v 5.891095 q 0,1.105872 -0.423745,1.601964 -0.418578,0.496092 -1.353918,0.496092 h -0.361734 v -0.80615 h 0.253214 q 0.5426,0 0.73897,-0.253214 0.19637,-0.248046 0.19637,-1.038692 z m 0,-2.253085 h 0.950843 v 1.204057 h -0.950843 z" />
        <path
           id="path2993"
           d="m 30.69705,63.532939 v 0.465087 h -4.371813 q 0.06201,0.981849 0.58911,1.498611 0.532265,0.511595 1.477941,0.511595 0.547768,0 1.059364,-0.134358 0.516762,-0.134358 1.02319,-0.403075 v 0.899167 q -0.511595,0.217041 -1.049029,0.330728 -0.537433,0.113688 -1.090369,0.113688 -1.384924,0 -2.196241,-0.80615 -0.80615,-0.806149 -0.80615,-2.180738 0,-1.421097 0.764809,-2.253085 0.769976,-0.837156 2.072218,-0.837156 1.167884,0 1.844843,0.754474 0.682127,0.749305 0.682127,2.041212 z m -0.950844,-0.279052 q -0.01034,-0.780311 -0.439248,-1.245398 -0.423745,-0.465086 -1.126543,-0.465086 -0.795814,0 -1.276403,0.449583 -0.475422,0.449584 -0.547769,1.266069 z" />
        <path
           id="path2995"
           d="m 36.422782,61.098987 v 0.888832 q -0.403075,-0.222208 -0.811318,-0.330728 -0.403075,-0.113688 -0.816485,-0.113688 -0.925005,0 -1.4366,0.589109 -0.511595,0.583942 -0.511595,1.643306 0,1.059363 0.511595,1.648473 0.511595,0.583941 1.4366,0.583941 0.41341,0 0.816485,-0.10852 0.408243,-0.113688 0.811318,-0.335896 v 0.878497 q -0.397908,0.186035 -0.826821,0.279052 -0.423745,0.09302 -0.904334,0.09302 -1.30741,0 -2.077386,-0.821653 -0.769977,-0.821652 -0.769977,-2.216911 0,-1.41593 0.775144,-2.227248 0.780312,-0.811317 2.13423,-0.811317 0.439249,0 0.857826,0.09302 0.418578,0.08785 0.811318,0.268717 z" />
        <path
           id="path2997"
           d="m 39.027265,59.233474 v 1.643305 h 1.958531 v 0.738971 h -1.958531 v 3.141917 q 0,0.707965 0.191202,0.909502 0.19637,0.201537 0.790647,0.201537 h 0.976682 v 0.795815 h -0.976682 q -1.100704,0 -1.519282,-0.408243 -0.418578,-0.41341 -0.418578,-1.498611 V 61.61575 h -0.697629 v -0.738971 h 0.697629 v -1.643305 z" />
      </g>
      <g
         aria-label="noun activity"
         transform="translate(-3.4745038,-5.8986082)"
         id="text2965"
         style="font-style:normal;font-weight:normal;font-size:10.5833px;line-height:0;font-family:sans-serif;white-space:pre;shape-inside:url(#rect2967);fill:#000000;fill-opacity:1;stroke:none">
        <path
           d="m 68.787012,73.066094 v 2.095996 h -0.570508 v -2.077393 q 0,-0.492993 -0.192236,-0.737939 -0.192237,-0.244947 -0.576709,-0.244947 -0.461988,0 -0.728638,0.294556 -0.26665,0.294556 -0.26665,0.803052 v 1.962671 h -0.573609 v -3.472657 h 0.573609 v 0.539502 q 0.204638,-0.313159 0.48059,-0.468188 0.279053,-0.155029 0.641822,-0.155029 0.598413,0 0.905371,0.37207 0.306958,0.36897 0.306958,1.088306 z"
           style="font-size:6.35px;line-height:1.15;text-align:center;text-anchor:middle;fill:#666666"
           id="path3025" />
        <path
           d="m 71.276782,72.089409 q -0.458886,0 -0.725537,0.359668 -0.26665,0.356567 -0.26665,0.979785 0,0.623218 0.26355,0.982886 0.26665,0.356567 0.728637,0.356567 0.455786,0 0.722437,-0.359668 0.26665,-0.359668 0.26665,-0.979785 0,-0.617016 -0.26665,-0.976684 -0.266651,-0.362769 -0.722437,-0.362769 z m 0,-0.483691 q 0.744141,0 1.168921,0.483691 0.42478,0.483691 0.42478,1.339453 0,0.852661 -0.42478,1.339453 -0.42478,0.483692 -1.168921,0.483692 -0.747241,0 -1.172021,-0.483692 -0.42168,-0.486792 -0.42168,-1.339453 0,-0.855762 0.42168,-1.339453 0.42478,-0.483691 1.172021,-0.483691 z"
           style="font-size:6.35px;line-height:1.15;text-align:center;text-anchor:middle;fill:#666666"
           id="path3027" />
        <path
           d="m 73.75415,73.791631 v -2.102198 h 0.570508 v 2.080494 q 0,0.492993 0.192236,0.74104 0.192237,0.244946 0.576709,0.244946 0.461988,0 0.728638,-0.294556 0.269751,-0.294555 0.269751,-0.803051 V 71.689433 H 76.6625 v 3.472657 h -0.570508 v -0.533301 q -0.207739,0.31626 -0.483692,0.471289 -0.272851,0.151929 -0.63562,0.151929 -0.598413,0 -0.908471,-0.372071 -0.310059,-0.37207 -0.310059,-1.088305 z m 1.435571,-2.185913 z"
           style="font-size:6.35px;line-height:1.15;text-align:center;text-anchor:middle;fill:#666666"
           id="path3029" />
        <path
           d="m 80.730468,73.066094 v 2.095996 h -0.570507 v -2.077393 q 0,-0.492993 -0.192237,-0.737939 -0.192236,-0.244947 -0.576709,-0.244947 -0.461987,0 -0.728637,0.294556 -0.266651,0.294556 -0.266651,0.803052 v 1.962671 h -0.573608 v -3.472657 h 0.573608 v 0.539502 q 0.204639,-0.313159 0.480591,-0.468188 0.279053,-0.155029 0.641821,-0.155029 0.598413,0 0.905371,0.37207 0.306958,0.36897 0.306958,1.088306 z"
           style="font-size:6.35px;line-height:1.15;text-align:center;text-anchor:middle;fill:#666666"
           id="path3031" />
        <path
           d="m 63.757861,80.718958 q -0.69143,0 -0.958081,0.15813 -0.26665,0.158129 -0.26665,0.539502 0,0.303857 0.198438,0.483691 0.201538,0.176733 0.545703,0.176733 0.474389,0 0.759643,-0.334863 0.288355,-0.337964 0.288355,-0.896069 v -0.127124 z m 1.137915,-0.235645 v 1.981275 h -0.570507 v -0.5271 q -0.195337,0.31626 -0.486792,0.468188 -0.291455,0.148829 -0.713135,0.148829 -0.533301,0 -0.849561,-0.297657 -0.313159,-0.300757 -0.313159,-0.803051 0,-0.586011 0.390674,-0.883667 0.393774,-0.297657 1.172022,-0.297657 h 0.799951 v -0.05581 q 0,-0.393775 -0.26045,-0.607715 -0.257348,-0.217041 -0.725537,-0.217041 -0.297656,0 -0.579809,0.07131 -0.282154,0.07131 -0.542603,0.213941 v -0.5271 q 0.313159,-0.120923 0.607715,-0.179834 0.294556,-0.06201 0.573609,-0.06201 0.753442,0 1.125512,0.390673 0.37207,0.390674 0.37207,1.184424 z"
           style="font-size:6.35px;line-height:1.15;text-align:center;text-anchor:middle;fill:#666666"
           id="path3033" />
        <path
           d="m 68.573071,79.125257 v 0.5333 q -0.241845,-0.133325 -0.486792,-0.198437 -0.241845,-0.06821 -0.489892,-0.06821 -0.555005,0 -0.861963,0.353467 -0.306958,0.350366 -0.306958,0.985986 0,0.63562 0.306958,0.989087 0.306958,0.350366 0.861963,0.350366 0.248047,0 0.489892,-0.06511 0.244947,-0.06821 0.486792,-0.201538 v 0.527099 q -0.238745,0.111621 -0.496093,0.167432 -0.254248,0.05581 -0.542603,0.05581 -0.784448,0 -1.246435,-0.492994 -0.461988,-0.492993 -0.461988,-1.330151 0,-0.84956 0.465088,-1.336352 0.468189,-0.486792 1.280542,-0.486792 0.26355,0 0.514697,0.05581 0.251148,0.05271 0.486792,0.161231 z"
           style="font-size:6.35px;line-height:1.15;text-align:center;text-anchor:middle;fill:#666666"
           id="path3035" />
        <path
           d="m 70.135767,78.005945 v 0.985986 h 1.175122 v 0.443384 h -1.175122 v 1.885156 q 0,0.424781 0.114722,0.545703 0.117822,0.120923 0.474389,0.120923 h 0.586011 v 0.477491 h -0.586011 q -0.660425,0 -0.911572,-0.244947 -0.251147,-0.248047 -0.251147,-0.89917 v -1.885156 h -0.41858 v -0.443384 h 0.41858 v -0.985986 z"
           style="font-size:6.35px;line-height:1.15;text-align:center;text-anchor:middle;fill:#666666"
           id="path3037" />
        <path
           d="m 72.064332,78.991931 h 0.570507 v 3.472657 h -0.570507 z m 0,-1.351855 h 0.570507 v 0.722436 h -0.570507 z"
           style="font-size:6.35px;line-height:1.15;text-align:center;text-anchor:middle;fill:#666666"
           id="path3039" />
        <path
           d="m 73.416187,78.991931 h 0.604614 l 1.085205,2.914551 1.085205,-2.914551 h 0.604614 l -1.302246,3.472657 h -0.775146 z"
           style="font-size:6.35px;line-height:1.15;text-align:center;text-anchor:middle;fill:#666666"
           id="path3041" />
        <path
           d="m 77.583374,78.991931 h 0.570507 v 3.472657 h -0.570507 z m 0,-1.351855 h 0.570507 v 0.722436 h -0.570507 z"
           style="font-size:6.35px;line-height:1.15;text-align:center;text-anchor:middle;fill:#666666"
           id="path3043" />
        <path
           d="m 79.908814,78.005945 v 0.985986 h 1.175122 v 0.443384 h -1.175122 v 1.885156 q 0,0.424781 0.114722,0.545703 0.117822,0.120923 0.47439,0.120923 h 0.58601 v 0.477491 h -0.58601 q -0.660425,0 -0.911573,-0.244947 -0.251147,-0.248047 -0.251147,-0.89917 v -1.885156 h -0.418579 v -0.443384 h 0.418579 v -0.985986 z"
           style="font-size:6.35px;line-height:1.15;text-align:center;text-anchor:middle;fill:#666666"
           id="path3045" />
        <path
           d="m 83.282251,82.787048 q -0.241846,0.620118 -0.471289,0.809253 -0.229443,0.189136 -0.613916,0.189136 H 81.74126 v -0.47749 h 0.334863 q 0.235645,0 0.365869,-0.111621 0.130225,-0.111621 0.288355,-0.5271 l 0.102319,-0.260449 -1.404565,-3.416846 h 0.604614 l 1.085205,2.716114 1.085205,-2.716114 h 0.604614 z"
           style="font-size:6.35px;line-height:1.15;text-align:center;text-anchor:middle;fill:#666666"
           id="path3047" />
      </g>
    </g>
    <text
       style="font-style:normal;font-weight:normal;font-size:10.5833px;line-height:1.25;font-family:sans-serif;white-space:pre;shape-inside:url(#rect5078);fill:#000000;fill-opacity:1;stroke:none;"
       id="text5076"
       xml:space="preserve" />
    <g
       style="font-style:normal;font-weight:normal;font-size:10.5833px;line-height:1.25;font-family:sans-serif;white-space:pre;shape-inside:url(#rect892);fill:#000000;fill-opacity:1;stroke:none"
       id="text890"
       transform="translate(-7.4835468,-1.3363476)"
       aria-label="aux.
verb">
      <path
         id="path913"
         style="text-align:center;text-anchor:middle"
         d="m 109.50702,61.081319 q -1.15238,0 -1.59679,0.263549 -0.44442,0.263549 -0.44442,0.899167 0,0.506427 0.33073,0.80615 0.33589,0.294554 0.9095,0.294554 0.79065,0 1.26607,-0.558103 0.48059,-0.563272 0.48059,-1.493444 v -0.211873 z m 1.89652,-0.39274 v 3.302114 h -0.95084 v -0.878497 q -0.32556,0.527098 -0.81132,0.780312 -0.48576,0.248046 -1.18855,0.248046 -0.88883,0 -1.41593,-0.496092 -0.52193,-0.50126 -0.52193,-1.338415 0,-0.976682 0.65112,-1.472774 0.65629,-0.496092 1.95336,-0.496092 h 1.33325 v -0.09302 q 0,-0.656288 -0.43408,-1.012854 -0.42891,-0.361734 -1.20923,-0.361734 -0.49609,0 -0.96634,0.118855 -0.47026,0.118856 -0.90434,0.356566 V 58.4665 q 0.52193,-0.201538 1.01286,-0.299723 0.49092,-0.103352 0.95601,-0.103352 1.25573,0 1.87585,0.651121 0.62011,0.651121 0.62011,1.974033 z" />
      <path
         id="path915"
         style="text-align:center;text-anchor:middle"
         d="m 113.26906,61.706602 v -3.503651 h 0.95084 v 3.467477 q 0,0.821653 0.32039,1.235063 0.32039,0.408243 0.96118,0.408243 0.76998,0 1.21439,-0.490925 0.44959,-0.490924 0.44959,-1.338415 v -3.281443 h 0.95084 v 5.787742 h -0.95084 v -0.888832 q -0.34623,0.527098 -0.80615,0.785479 -0.45475,0.253214 -1.05937,0.253214 -0.99735,0 -1.51411,-0.620115 -0.51676,-0.620115 -0.51676,-1.813837 z m 2.39261,-3.643177 z" />
      <path
         id="path917"
         style="text-align:center;text-anchor:middle"
         d="m 124.89622,58.202951 -2.09289,2.816356 2.20141,2.971386 h -1.12138 l -1.68465,-2.273756 -1.68464,2.273756 h -1.12138 l 2.24792,-3.028229 -2.05671,-2.759513 h 1.12137 l 1.53479,2.061883 1.53478,-2.061883 z" />
      <path
         id="path919"
         style="text-align:center;text-anchor:middle"
         d="m 126.48268,62.678116 h 1.09037 v 1.312577 h -1.09037 z" />
      <path
         id="path921"
         style="text-align:center;text-anchor:middle"
         d="m 105.68815,71.432077 h 1.00768 l 1.80867,4.857569 1.80867,-4.857569 h 1.00769 l -2.1704,5.787742 h -1.29191 z" />
      <path
         id="path923"
         style="text-align:center;text-anchor:middle"
         d="m 117.58402,74.088237 v 0.465086 h -4.37181 q 0.062,0.981849 0.58911,1.498612 0.53227,0.511595 1.47794,0.511595 0.54777,0 1.05937,-0.134358 0.51676,-0.134358 1.02319,-0.403075 v 0.899167 q -0.5116,0.21704 -1.04903,0.330728 -0.53744,0.113688 -1.09037,0.113688 -1.38493,0 -2.19624,-0.80615 -0.80615,-0.80615 -0.80615,-2.180738 0,-1.421098 0.76481,-2.253086 0.76997,-0.837155 2.07221,-0.837155 1.16789,0 1.84485,0.754473 0.68212,0.749306 0.68212,2.041213 z m -0.95084,-0.279052 q -0.0103,-0.780311 -0.43925,-1.245398 -0.42374,-0.465086 -1.12654,-0.465086 -0.79581,0 -1.2764,0.449583 -0.47543,0.449584 -0.54777,1.266069 z" />
      <path
         id="path925"
         style="text-align:center;text-anchor:middle"
         d="m 122.49844,72.320909 q -0.1602,-0.09302 -0.3514,-0.134359 -0.18604,-0.04651 -0.41341,-0.04651 -0.80615,0 -1.24023,0.527098 -0.42891,0.52193 -0.42891,1.503779 v 3.0489 h -0.95602 v -5.787742 h 0.95602 v 0.899167 q 0.29972,-0.527098 0.78031,-0.780312 0.48059,-0.258381 1.16788,-0.258381 0.0982,0 0.21704,0.0155 0.11886,0.01033 0.26355,0.03617 z" />
      <path
         id="path927"
         style="text-align:center;text-anchor:middle"
         d="m 127.6609,74.331115 q 0,-1.049028 -0.43408,-1.643305 -0.42892,-0.599445 -1.18339,-0.599445 -0.75447,0 -1.18855,0.599445 -0.42892,0.594277 -0.42892,1.643305 0,1.049029 0.42892,1.648473 0.43408,0.594277 1.18855,0.594277 0.75447,0 1.18339,-0.594277 0.43408,-0.599444 0.43408,-1.648473 z m -3.23494,-2.020542 q 0.29972,-0.516762 0.75448,-0.764808 0.45991,-0.253214 1.09553,-0.253214 1.0542,0 1.71049,0.837155 0.66145,0.837156 0.66145,2.201409 0,1.364254 -0.66145,2.201409 -0.65629,0.837156 -1.71049,0.837156 -0.63562,0 -1.09553,-0.248046 -0.45476,-0.253214 -0.75448,-0.769976 v 0.868161 h -0.95601 v -8.040827 h 0.95601 z" />
    </g>
  </g>
</svg>
