<?xml version="1.0" encoding="UTF-8" standalone="no"?>
<svg
   xmlns:dc="http://purl.org/dc/elements/1.1/"
   xmlns:cc="http://creativecommons.org/ns#"
   xmlns:rdf="http://www.w3.org/1999/02/22-rdf-syntax-ns#"
   xmlns:svg="http://www.w3.org/2000/svg"
   xmlns="http://www.w3.org/2000/svg"
   xmlns:sodipodi="http://sodipodi.sourceforge.net/DTD/sodipodi-0.dtd"
   xmlns:inkscape="http://www.inkscape.org/namespaces/inkscape"
   width="803.02252"
   height="309.53973"
   viewBox="0 0 212.46637 81.899055"
   version="1.1"
   id="svg8"
   inkscape:version="1.0 (4035a4fb49, 2020-05-01)"
   sodipodi:docname="grammatirally-transitive-present.svg">
  <defs
     id="defs2">
    <rect
       id="rect982"
       height="72.949402"
       width="64.255951"
       y="40.11702"
       x="37.063869" />
    <rect
       x="-15.096844"
       y="-70.55368"
       width="93.738098"
       height="46.113094"
       id="rect1391" />
    <rect
       x="39.331726"
       y="-43.339394"
       width="51.404762"
       height="25.324406"
       id="rect1385" />
    <rect
       x="38.953751"
       y="35.657631"
       width="78.997025"
       height="25.324406"
       id="rect1379" />
    <rect
       x="57.474583"
       y="33.389771"
       width="29.104168"
       height="23.434525"
       id="rect1373" />
    <rect
       x="4.935894"
       y="6.553463"
       width="112.6993"
       height="77.422302"
       id="rect1360" />
    <rect
       x="35.83614"
       y="118.46915"
       width="93.738098"
       height="35.151787"
       id="rect1354" />
    <rect
       x="-56.012074"
       y="116.23755"
       width="76.351189"
       height="28.348213"
       id="rect1348" />
    <rect
       x="35.529755"
       y="61.904251"
       width="50.263763"
       height="44.73629"
       id="rect1165" />
    <rect
       x="37.041668"
       y="112.25893"
       width="56.69643"
       height="23.8125"
       id="rect1113" />
    <marker
       inkscape:stockid="Arrow1Lstart"
       orient="auto"
       refY="0"
       refX="0"
       id="Arrow1Lstart"
       style="overflow:visible"
       inkscape:isstock="true">
      <path
         id="path841"
         d="M 0,0 5,-5 -12.5,0 5,5 Z"
         style="fillRule:evenodd;stroke:#000000;stroke-width:1pt"
         transform="matrix(0.8,0,0,0.8,10,0)" />
    </marker>
    <rect
       id="rect1113-9"
       height="23.8125"
       width="56.69643"
       y="112.25893"
       x="37.041668" />
    <rect
       id="rect1141"
       height="23.8125"
       width="56.69643"
       y="112.25893"
       x="37.041668" />
  </defs>
  <sodipodi:namedview
     id="base"
     pagecolor="#ffffff"
     bordercolor="#666666"
     borderopacity="1.0"
     inkscape:pageopacity="0.0"
     inkscape:pageshadow="2"
     inkscape:zoom="0.7"
     inkscape:cx="724.65767"
     inkscape:cy="182.77907"
     inkscape:document-units="mm"
     inkscape:current-layer="text1163-1"
     inkscape:document-rotation="0"
     showgrid="false"
     units="px"
     fit-margin-top="10"
     fit-margin-right="10"
     fit-margin-bottom="10"
     fit-margin-left="10"
     inkscape:window-width="1515"
     inkscape:window-height="1080"
     inkscape:window-x="2167"
     inkscape:window-y="118"
     inkscape:window-maximized="0" />
  <metadata
     id="metadata5">
    <rdf:RDF>
      <cc:Work
         rdf:about="">
        <dc:format>image/svg+xml</dc:format>
        <dc:type
           rdf:resource="http://purl.org/dc/dcmitype/StillImage" />
        <dc:title></dc:title>
      </cc:Work>
    </rdf:RDF>
  </metadata>
  <g
     inkscape:label="Layer 1"
     inkscape:groupmode="layer"
     id="layer1"
     transform="translate(52.843619,-63.362142)">
    <path
       id="rect839-4"
       style="opacity:1;fill:none;stroke:#000000;stroke-width:1.115;stroke-miterlimit:4;stroke-dasharray:none"
       d="m 122.9777,85.081856 h 33.44172 V 118.52357 H 122.9777 Z" />
    <g
       aria-label="verb"
       transform="translate(90.461538,-16.314846)"
       id="text1111-8"
       style="font-style:normal;font-weight:normal;font-size:10.5833px;line-height:1.25;font-family:sans-serif;white-space:pre;shape-inside:url(#rect1113-9);fill:#000000;fill-opacity:1;stroke:none">
      <path
         d="m 37.356241,115.83576 h 1.007687 l 1.808669,4.85757 1.80867,-4.85757 h 1.007687 l -2.170403,5.78775 h -1.291907 z"
         id="path1187" />
      <path
         d="m 49.252118,118.49192 v 0.46509 h -4.371813 q 0.06201,0.98185 0.58911,1.49861 0.532265,0.5116 1.477941,0.5116 0.547769,0 1.059364,-0.13436 0.516762,-0.13436 1.02319,-0.40308 v 0.89917 q -0.511595,0.21704 -1.049029,0.33073 -0.537433,0.11369 -1.090369,0.11369 -1.384924,0 -2.196241,-0.80615 -0.80615,-0.80615 -0.80615,-2.18074 0,-1.4211 0.764809,-2.25309 0.769976,-0.83715 2.072218,-0.83715 1.167884,0 1.844843,0.75447 0.682127,0.74931 0.682127,2.04121 z m -0.950844,-0.27905 q -0.01033,-0.78031 -0.439248,-1.2454 -0.423745,-0.46508 -1.126543,-0.46508 -0.795814,0 -1.276403,0.44958 -0.475422,0.44958 -0.547769,1.26607 z"
         id="path1189" />
      <path
         d="m 54.166531,116.7246 q -0.160196,-0.093 -0.351398,-0.13436 -0.186035,-0.0465 -0.41341,-0.0465 -0.80615,0 -1.240231,0.5271 -0.428913,0.52193 -0.428913,1.50378 v 3.0489 h -0.956011 v -5.78775 h 0.956011 v 0.89917 q 0.299723,-0.5271 0.780312,-0.78031 0.480589,-0.25838 1.167883,-0.25838 0.09819,0 0.217041,0.0155 0.118855,0.0103 0.263549,0.0362 z"
         id="path1191" />
      <path
         d="m 59.32899,118.7348 q 0,-1.04903 -0.43408,-1.6433 -0.428913,-0.59945 -1.183387,-0.59945 -0.754473,0 -1.188554,0.59945 -0.428913,0.59427 -0.428913,1.6433 0,1.04903 0.428913,1.64847 0.434081,0.59428 1.188554,0.59428 0.754474,0 1.183387,-0.59428 0.43408,-0.59944 0.43408,-1.64847 z m -3.234934,-2.02054 q 0.299722,-0.51676 0.754474,-0.76481 0.459918,-0.25321 1.095536,-0.25321 1.054196,0 1.710485,0.83715 0.661456,0.83716 0.661456,2.20141 0,1.36426 -0.661456,2.20141 -0.656289,0.83716 -1.710485,0.83716 -0.635618,0 -1.095536,-0.24805 -0.454752,-0.25321 -0.754474,-0.76998 v 0.86817 h -0.956011 v -8.04083 h 0.956011 z"
         id="path1193" />
    </g>
    <g
       aria-label="plain noun / pronoun"
       transform="translate(-81.650166,5.4265352)"
       id="text1163"
       style="font-style:normal;font-weight:normal;font-size:8.46667px;line-height:1.05;font-family:sans-serif;white-space:pre;shape-inside:url(#rect1165);fill:#000000;fill-opacity:1;stroke:none">
      <path
         d="m 51.876136,67.854117 v 2.455665 h -0.764812 v -6.391344 h 0.764812 v 0.7028 q 0.239779,-0.413412 0.603581,-0.611849 0.367936,-0.202572 0.876432,-0.202572 0.84336,0 1.368393,0.669727 0.529167,0.669727 0.529167,1.761133 0,1.091407 -0.529167,1.761134 -0.525033,0.669727 -1.368393,0.669727 -0.508496,0 -0.876432,-0.198438 -0.363802,-0.202572 -0.603581,-0.615983 z m 2.587957,-1.61644 q 0,-0.839225 -0.347266,-1.314649 -0.343132,-0.479557 -0.946713,-0.479557 -0.603581,0 -0.950847,0.479557 -0.343131,0.475424 -0.343131,1.314649 0,0.839226 0.343131,1.318783 0.347266,0.475424 0.950847,0.475424 0.603581,0 0.946713,-0.475424 0.347266,-0.479557 0.347266,-1.318783 z"
         style="font-size:8.46667px;text-align:center;text-anchor:middle"
         id="path1196" />
      <path
         d="m 56.514614,62.115963 h 0.760678 v 6.432685 h -0.760678 z"
         style="font-size:8.46667px;text-align:center;text-anchor:middle"
         id="path1198" />
      <path
         d="m 60.967057,66.221141 q -0.921908,0 -1.277442,0.21084 -0.355534,0.21084 -0.355534,0.719336 0,0.405143 0.264584,0.644922 0.268717,0.235645 0.727604,0.235645 0.63252,0 1.012859,-0.446485 0.384473,-0.450618 0.384473,-1.194759 v -0.169499 z m 1.517221,-0.314193 v 2.6417 h -0.760677 v -0.702799 q -0.26045,0.421679 -0.649057,0.624251 -0.388607,0.198438 -0.950846,0.198438 -0.711068,0 -1.132748,-0.396876 -0.417546,-0.401009 -0.417546,-1.070736 0,-0.781348 0.520899,-1.178223 0.525032,-0.396875 1.562696,-0.396875 h 1.066602 v -0.07441 q 0,-0.525033 -0.347266,-0.810287 -0.343132,-0.289388 -0.967383,-0.289388 -0.396876,0 -0.77308,0.09508 -0.376205,0.09508 -0.723471,0.285254 v -0.7028 q 0.417546,-0.161231 0.810287,-0.239779 0.392741,-0.08268 0.764812,-0.08268 1.00459,0 1.500684,0.520899 0.496094,0.520898 0.496094,1.579231 z"
         style="font-size:8.46667px;text-align:center;text-anchor:middle"
         id="path1200" />
      <path
         d="m 64.055242,63.918438 h 0.760678 v 4.63021 h -0.760678 z m 0,-1.802475 h 0.760678 v 0.96325 h -0.760678 z"
         style="font-size:8.46667px;text-align:center;text-anchor:middle"
         id="path1202" />
      <path
         d="m 70.252282,65.753986 v 2.794662 H 69.491605 V 65.77879 q 0,-0.657324 -0.256315,-0.983919 -0.256316,-0.326595 -0.768946,-0.326595 -0.615983,0 -0.971517,0.392741 -0.355534,0.392741 -0.355534,1.070736 v 2.616895 h -0.764812 v -4.63021 h 0.764812 v 0.719336 q 0.272851,-0.417545 0.640788,-0.624251 0.37207,-0.206706 0.855762,-0.206706 0.797884,0 1.207162,0.496094 0.409277,0.49196 0.409277,1.451075 z"
         style="font-size:8.46667px;text-align:center;text-anchor:middle"
         id="path1204" />
      <path
         d="m 51.88027,74.643985 v 2.794663 H 51.119593 V 74.66879 q 0,-0.657325 -0.256316,-0.98392 -0.256315,-0.326595 -0.768945,-0.326595 -0.615984,0 -0.971518,0.392741 -0.355534,0.392741 -0.355534,1.070736 v 2.616896 h -0.764811 v -4.630211 h 0.764811 v 0.719337 q 0.272852,-0.417546 0.640788,-0.624252 0.372071,-0.206706 0.855762,-0.206706 0.797885,0 1.207162,0.496094 0.409278,0.49196 0.409278,1.451075 z"
         style="font-size:8.46667px;text-align:center;text-anchor:middle"
         id="path1206" />
      <path
         d="m 55.199965,73.341738 q -0.611849,0 -0.967383,0.479558 -0.355534,0.475423 -0.355534,1.306381 0,0.830957 0.3514,1.310515 0.355534,0.475423 0.971517,0.475423 0.607715,0 0.963249,-0.479558 0.355534,-0.479557 0.355534,-1.30638 0,-0.822689 -0.355534,-1.302247 -0.355534,-0.483692 -0.963249,-0.483692 z m 0,-0.644922 q 0.992188,0 1.558562,0.644922 0.566374,0.644923 0.566374,1.785939 0,1.136882 -0.566374,1.785938 -0.566374,0.644922 -1.558562,0.644922 -0.996322,0 -1.562696,-0.644922 -0.56224,-0.649056 -0.56224,-1.785938 0,-1.141016 0.56224,-1.785939 0.566374,-0.644922 1.562696,-0.644922 z"
         style="font-size:8.46667px;text-align:center;text-anchor:middle"
         id="path1208" />
      <path
         d="m 58.503124,75.611368 v -2.802931 h 0.760677 v 2.773992 q 0,0.657325 0.256315,0.988054 0.256316,0.326595 0.768946,0.326595 0.615983,0 0.971517,-0.392741 0.359669,-0.392741 0.359669,-1.070736 v -2.625164 h 0.760677 v 4.630211 H 61.620248 V 76.72758 q -0.276986,0.42168 -0.644923,0.628385 -0.363802,0.202572 -0.847493,0.202572 -0.797885,0 -1.211296,-0.496094 -0.413412,-0.496094 -0.413412,-1.451075 z m 1.914096,-2.914552 z"
         style="font-size:8.46667px;text-align:center;text-anchor:middle"
         id="path1210" />
      <path
         d="m 67.804886,74.643985 v 2.794663 H 67.044208 V 74.66879 q 0,-0.657325 -0.256315,-0.98392 -0.256315,-0.326595 -0.768945,-0.326595 -0.615984,0 -0.971518,0.392741 -0.355534,0.392741 -0.355534,1.070736 v 2.616896 h -0.764811 v -4.630211 h 0.764811 v 0.719337 q 0.272852,-0.417546 0.640788,-0.624252 0.372071,-0.206706 0.855762,-0.206706 0.797885,0 1.207162,0.496094 0.409278,0.49196 0.409278,1.451075 z"
         style="font-size:8.46667px;text-align:center;text-anchor:middle"
         id="path1212" />
      <path
         d="m 73.377673,71.266412 h 0.7028 l -2.14974,6.957718 h -0.7028 z"
         style="font-size:8.46667px;text-align:center;text-anchor:middle"
         id="path1214" />
      <path
         d="m 44.616628,85.634116 v 2.455665 h -0.764812 v -6.391344 h 0.764812 v 0.7028 q 0.239778,-0.413412 0.603581,-0.61185 0.367936,-0.202571 0.876432,-0.202571 0.84336,0 1.368393,0.669727 0.529167,0.669726 0.529167,1.761133 0,1.091407 -0.529167,1.761134 -0.525033,0.669726 -1.368393,0.669726 -0.508496,0 -0.876432,-0.198437 -0.363803,-0.202572 -0.603581,-0.615983 z m 2.587956,-1.61644 q 0,-0.839226 -0.347265,-1.314649 -0.343132,-0.479557 -0.946713,-0.479557 -0.603581,0 -0.950847,0.479557 -0.343131,0.475423 -0.343131,1.314649 0,0.839226 0.343131,1.318783 0.347266,0.475424 0.950847,0.475424 0.603581,0 0.946713,-0.475424 0.347265,-0.479557 0.347265,-1.318783 z"
         style="font-size:8.46667px;text-align:center;text-anchor:middle"
         id="path1216" />
      <path
         d="m 51.938147,82.409505 q -0.128157,-0.07441 -0.281119,-0.107487 -0.148829,-0.03721 -0.33073,-0.03721 -0.644922,0 -0.992188,0.42168 -0.343131,0.417545 -0.343131,1.203027 v 2.439129 h -0.764812 v -4.63021 h 0.764812 v 0.719336 q 0.239778,-0.42168 0.624251,-0.624251 0.384473,-0.206706 0.934311,-0.206706 0.07855,0 0.173632,0.0124 0.09508,0.0083 0.21084,0.02894 z"
         style="font-size:8.46667px;text-align:center;text-anchor:middle"
         id="path1218" />
      <path
         d="m 54.356606,82.231738 q -0.611849,0 -0.967383,0.479557 -0.355534,0.475424 -0.355534,1.306381 0,0.830957 0.3514,1.310515 0.355534,0.475423 0.971517,0.475423 0.607715,0 0.963249,-0.479557 0.355534,-0.479558 0.355534,-1.306381 0,-0.822689 -0.355534,-1.302247 -0.355534,-0.483691 -0.963249,-0.483691 z m 0,-0.644922 q 0.992188,0 1.558562,0.644922 0.566374,0.644922 0.566374,1.785938 0,1.136882 -0.566374,1.785938 -0.566374,0.644922 -1.558562,0.644922 -0.996322,0 -1.562696,-0.644922 -0.56224,-0.649056 -0.56224,-1.785938 0,-1.141016 0.56224,-1.785938 0.566374,-0.644922 1.562696,-0.644922 z"
         style="font-size:8.46667px;text-align:center;text-anchor:middle"
         id="path1220" />
      <path
         d="m 61.587175,83.533984 v 2.794663 h -0.760678 v -2.769858 q 0,-0.657324 -0.256315,-0.983919 -0.256315,-0.326596 -0.768946,-0.326596 -0.615983,0 -0.971517,0.392741 -0.355534,0.392741 -0.355534,1.070736 v 2.616896 h -0.764811 v -4.63021 h 0.764811 v 0.719336 q 0.272852,-0.417546 0.640788,-0.624251 0.372071,-0.206706 0.855762,-0.206706 0.797885,0 1.207162,0.496094 0.409278,0.49196 0.409278,1.451074 z"
         style="font-size:8.46667px;text-align:center;text-anchor:middle"
         id="path1222" />
      <path
         d="m 64.90687,82.231738 q -0.611849,0 -0.967383,0.479557 -0.355534,0.475424 -0.355534,1.306381 0,0.830957 0.3514,1.310515 0.355534,0.475423 0.971517,0.475423 0.607715,0 0.963249,-0.479557 0.355534,-0.479558 0.355534,-1.306381 0,-0.822689 -0.355534,-1.302247 -0.355534,-0.483691 -0.963249,-0.483691 z m 0,-0.644922 q 0.992188,0 1.558562,0.644922 0.566374,0.644922 0.566374,1.785938 0,1.136882 -0.566374,1.785938 -0.566374,0.644922 -1.558562,0.644922 -0.996322,0 -1.562696,-0.644922 -0.562239,-0.649056 -0.562239,-1.785938 0,-1.141016 0.562239,-1.785938 0.566374,-0.644922 1.562696,-0.644922 z"
         style="font-size:8.46667px;text-align:center;text-anchor:middle"
         id="path1224" />
      <path
         d="m 68.210028,84.501368 v -2.802931 h 0.760678 v 2.773992 q 0,0.657324 0.256315,0.988054 0.256315,0.326595 0.768946,0.326595 0.615983,0 0.971517,-0.392741 0.359668,-0.392741 0.359668,-1.070736 v -2.625164 h 0.760678 v 4.63021 h -0.760678 v -0.711068 q -0.276986,0.42168 -0.644922,0.628386 -0.363802,0.202571 -0.847494,0.202571 -0.797884,0 -1.211296,-0.496094 -0.413412,-0.496093 -0.413412,-1.451074 z m 1.914096,-2.914552 z"
         style="font-size:8.46667px;text-align:center;text-anchor:middle"
         id="path1226" />
      <path
         d="m 77.51179,83.533984 v 2.794663 h -0.760677 v -2.769858 q 0,-0.657324 -0.256315,-0.983919 -0.256315,-0.326596 -0.768946,-0.326596 -0.615983,0 -0.971517,0.392741 -0.355534,0.392741 -0.355534,1.070736 v 2.616896 h -0.764812 v -4.63021 h 0.764812 v 0.719336 q 0.272852,-0.417546 0.640788,-0.624251 0.37207,-0.206706 0.855762,-0.206706 0.797884,0 1.207162,0.496094 0.409277,0.49196 0.409277,1.451074 z"
         style="font-size:8.46667px;text-align:center;text-anchor:middle"
         id="path1228" />
    </g>
    <g
       id="g1333"
       transform="translate(7.9375,-1.5481652)">
      <path
         sodipodi:nodetypes="cccc"
         id="path1169"
         d="m -57.795068,100.26406 9.342265,9.28984 h 40.1025978 l 9.589407,-9.589405"
         style="fill:none;stroke:#000000;stroke-width:0.965;stroke-linecap:butt;stroke-linejoin:miter;stroke-miterlimit:4;stroke-dasharray:none;stroke-opacity:1" />
      <g
         aria-label="subject / agent"
         transform="translate(-9.827381,-4.5357143)"
         id="text1346"
         style="font-style:normal;font-weight:normal;font-size:10.5833px;line-height:1.25;font-family:sans-serif;white-space:pre;shape-inside:url(#rect1348);fill:#000000;fill-opacity:1;stroke:none">
        <path
           d="m -35.814111,119.98481 v 0.89917 q -0.403075,-0.20671 -0.837156,-0.31006 -0.43408,-0.10335 -0.899167,-0.10335 -0.707965,0 -1.064531,0.21704 -0.351398,0.21704 -0.351398,0.65112 0,0.33073 0.253213,0.52193 0.253214,0.18603 1.018023,0.35657 l 0.32556,0.0723 q 1.012855,0.21704 1.436601,0.61495 0.428913,0.39274 0.428913,1.1007 0,0.80615 -0.640786,1.27641 -0.635618,0.47025 -1.751826,0.47025 -0.465086,0 -0.971513,-0.093 -0.50126,-0.0878 -1.059364,-0.26871 v -0.98185 q 0.527098,0.27388 1.038693,0.41341 0.511595,0.13436 1.012855,0.13436 0.671791,0 1.033525,-0.22738 0.361734,-0.23254 0.361734,-0.65112 0,-0.38757 -0.263549,-0.59428 -0.258381,-0.2067 -1.142045,-0.3979 l -0.330729,-0.0775 q -0.883664,-0.18603 -1.276403,-0.56844 -0.39274,-0.38757 -0.39274,-1.05936 0,-0.81649 0.578774,-1.2609 0.578774,-0.44442 1.643306,-0.44442 0.527097,0 0.992184,0.0775 0.465086,0.0775 0.857826,0.23254 z"
           style="text-align:center;text-anchor:middle"
           id="path4222" />
        <path
           d="m -34.082956,123.31793 v -3.50365 h 0.950843 v 3.46748 q 0,0.82165 0.320393,1.23506 0.320393,0.40824 0.961179,0.40824 0.769976,0 1.214392,-0.49092 0.449583,-0.49093 0.449583,-1.33842 v -3.28144 h 0.950844 v 5.78774 h -0.950844 v -0.88883 q -0.346231,0.5271 -0.806149,0.78548 -0.454751,0.25321 -1.059364,0.25321 -0.997352,0 -1.514114,-0.62011 -0.516763,-0.62012 -0.516763,-1.81384 z m 2.392611,-3.64318 z"
           style="text-align:center;text-anchor:middle"
           id="path4224" />
        <path
           d="m -23.112084,122.71332 q 0,-1.04903 -0.434081,-1.64331 -0.428913,-0.59944 -1.183386,-0.59944 -0.754474,0 -1.188555,0.59944 -0.428913,0.59428 -0.428913,1.64331 0,1.04903 0.428913,1.64847 0.434081,0.59428 1.188555,0.59428 0.754473,0 1.183386,-0.59428 0.434081,-0.59944 0.434081,-1.64847 z m -3.234935,-2.02054 q 0.299723,-0.51677 0.754474,-0.76481 0.459919,-0.25322 1.095537,-0.25322 1.054196,0 1.710484,0.83716 0.661456,0.83715 0.661456,2.20141 0,1.36425 -0.661456,2.20141 -0.656288,0.83715 -1.710484,0.83715 -0.635618,0 -1.095537,-0.24804 -0.454751,-0.25322 -0.754474,-0.76998 v 0.86816 h -0.956011 v -8.04083 h 0.956011 z"
           style="text-align:center;text-anchor:middle"
           id="path4226" />
        <path
           d="m -20.548942,119.81428 h 0.950844 v 5.89109 q 0,1.10588 -0.423746,1.60197 -0.418577,0.49609 -1.353918,0.49609 h -0.361734 v -0.80615 h 0.253214 q 0.542601,0 0.738971,-0.25321 0.196369,-0.24805 0.196369,-1.0387 z m 0,-2.25309 h 0.950844 v 1.20406 h -0.950844 z"
           style="text-align:center;text-anchor:middle"
           id="path4228" />
        <path
           d="m -12.663144,122.47044 v 0.46509 h -4.371812 q 0.06201,0.98184 0.589109,1.49861 0.532266,0.51159 1.477941,0.51159 0.547769,0 1.059364,-0.13436 0.516763,-0.13435 1.02319,-0.40307 v 0.89917 q -0.511595,0.21704 -1.049028,0.33072 -0.537433,0.11369 -1.090369,0.11369 -1.384924,0 -2.196242,-0.80615 -0.80615,-0.80615 -0.80615,-2.18074 0,-1.42109 0.764809,-2.25308 0.769977,-0.83716 2.072219,-0.83716 1.167883,0 1.844842,0.75448 0.682127,0.7493 0.682127,2.04121 z m -0.950843,-0.27905 q -0.01034,-0.78031 -0.439249,-1.2454 -0.423745,-0.46509 -1.126542,-0.46509 -0.795815,0 -1.276404,0.44959 -0.475422,0.44958 -0.547768,1.26606 z"
           style="text-align:center;text-anchor:middle"
           id="path4230" />
        <path
           d="m -6.9374138,120.03649 v 0.88883 q -0.4030748,-0.22221 -0.8113174,-0.33073 -0.4030748,-0.11369 -0.816485,-0.11369 -0.9250052,0 -1.4365998,0.58911 -0.511595,0.58394 -0.511595,1.64331 0,1.05936 0.511595,1.64847 0.5115946,0.58394 1.4365998,0.58394 0.4134102,0 0.816485,-0.10852 0.4082426,-0.11369 0.8113174,-0.33589 v 0.87849 q -0.3979072,0.18604 -0.8268202,0.27905 -0.4237454,0.093 -0.9043347,0.093 -1.3074096,0 -2.0773863,-0.82165 -0.769976,-0.82165 -0.769976,-2.21691 0,-1.41593 0.775144,-2.22725 0.7803116,-0.81132 2.1342298,-0.81132 0.4392483,0 0.857826,0.093 0.4185778,0.0879 0.8113174,0.26872 z"
           style="text-align:center;text-anchor:middle"
           id="path4232" />
        <path
           d="m -4.3329304,118.17097 v 1.64331 h 1.9585306 v 0.73897 h -1.9585306 v 3.14192 q 0,0.70796 0.1912022,0.9095 0.1963698,0.20154 0.7906469,0.20154 h 0.9766815 v 0.79581 h -0.9766815 q -1.1007045,0 -1.5192823,-0.40824 -0.4185777,-0.41341 -0.4185777,-1.49861 v -3.14192 h -0.6976296 v -0.73897 h 0.6976296 v -1.64331 z"
           style="text-align:center;text-anchor:middle"
           id="path4234" />
        <path
           d="M 3.9404424,117.88675 H 4.818939 l -2.6871659,8.69712 H 1.2532765 Z"
           style="text-align:center;text-anchor:middle"
           id="path4236" />
        <path
           d="m -29.504439,135.92177 q -1.152381,0 -1.596796,0.26355 -0.444416,0.26355 -0.444416,0.89917 0,0.50643 0.330728,0.80615 0.335896,0.29455 0.909502,0.29455 0.790647,0 1.266069,-0.5581 0.480589,-0.56327 0.480589,-1.49344 v -0.21188 z m 1.896519,-0.39274 v 3.30212 h -0.950843 v -0.8785 q -0.325561,0.5271 -0.811317,0.78031 -0.485757,0.24805 -1.188555,0.24805 -0.888831,0 -1.415929,-0.49609 -0.521931,-0.50126 -0.521931,-1.33842 0,-0.97668 0.651121,-1.47277 0.656289,-0.4961 1.953363,-0.4961 h 1.333248 v -0.093 q 0,-0.65629 -0.434081,-1.01286 -0.428913,-0.36173 -1.209224,-0.36173 -0.496093,0 -0.966347,0.11885 -0.470254,0.11886 -0.904334,0.35657 v -0.8785 q 0.52193,-0.20153 1.012855,-0.29972 0.490924,-0.10335 0.956011,-0.10335 1.255733,0 1.875848,0.65112 0.620115,0.65112 0.620115,1.97403 z"
           style="text-align:center;text-anchor:middle"
           id="path4238" />
        <path
           d="m -21.835681,135.8701 q 0,-1.03353 -0.428913,-1.60197 -0.423745,-0.56844 -1.193722,-0.56844 -0.764808,0 -1.193721,0.56844 -0.423746,0.56844 -0.423746,1.60197 0,1.02835 0.423746,1.59679 0.428913,0.56844 1.193721,0.56844 0.769977,0 1.193722,-0.56844 0.428913,-0.56844 0.428913,-1.59679 z m 0.950844,2.24275 q 0,1.47794 -0.656289,2.19624 -0.656289,0.72347 -2.010207,0.72347 -0.50126,0 -0.945676,-0.0775 -0.444415,-0.0724 -0.862993,-0.22737 v -0.92501 q 0.418578,0.22738 0.82682,0.3359 0.408243,0.10852 0.831988,0.10852 0.93534,0 1.400427,-0.49093 0.465086,-0.48575 0.465086,-1.47277 v -0.47026 q -0.294555,0.5116 -0.754473,0.76481 -0.459919,0.25322 -1.100705,0.25322 -1.064531,0 -1.715652,-0.81132 -0.651121,-0.81132 -0.651121,-2.14973 0,-1.34359 0.651121,-2.1549 0.651121,-0.81132 1.715652,-0.81132 0.640786,0 1.100705,0.25321 0.459918,0.25322 0.754473,0.76481 v -0.8785 h 0.950844 z"
           style="text-align:center;text-anchor:middle"
           id="path4240" />
        <path
           d="m -13.97572,135.69957 v 0.46508 h -4.371812 q 0.06201,0.98185 0.589109,1.49861 0.532266,0.5116 1.477941,0.5116 0.547769,0 1.059364,-0.13436 0.516762,-0.13436 1.02319,-0.40307 v 0.89916 q -0.511595,0.21704 -1.049028,0.33073 -0.537434,0.11369 -1.09037,0.11369 -1.384924,0 -2.196241,-0.80615 -0.80615,-0.80615 -0.80615,-2.18074 0,-1.4211 0.764809,-2.25309 0.769976,-0.83715 2.072218,-0.83715 1.167884,0 1.844843,0.75447 0.682127,0.74931 0.682127,2.04122 z m -0.950844,-0.27906 q -0.01033,-0.78031 -0.439248,-1.24539 -0.423745,-0.46509 -1.126542,-0.46509 -0.795815,0 -1.276404,0.44958 -0.475422,0.44959 -0.547769,1.26607 z"
           style="text-align:center;text-anchor:middle"
           id="path4242" />
        <path
           d="m -7.6040366,135.33783 v 3.49332 H -8.55488 v -3.46231 q 0,-0.82166 -0.3203928,-1.2299 -0.3203929,-0.40824 -0.9611786,-0.40824 -0.7699766,0 -1.2143926,0.49092 -0.444416,0.49093 -0.444416,1.33842 v 3.27111 h -0.956011 v -5.78775 h 0.956011 v 0.89917 q 0.341064,-0.52193 0.800983,-0.78031 0.465086,-0.25838 1.0696983,-0.25838 0.997352,0 1.508947,0.62011 0.5115951,0.61495 0.5115951,1.81384 z"
           style="text-align:center;text-anchor:middle"
           id="path4244" />
        <path
           d="m -4.7566745,131.4001 v 1.6433 h 1.9585305 v 0.73898 h -1.9585305 v 3.14191 q 0,0.70797 0.1912022,0.9095 0.1963698,0.20154 0.7906469,0.20154 h 0.9766814 v 0.79582 h -0.9766814 q -1.1007045,0 -1.5192823,-0.40825 -0.4185778,-0.41341 -0.4185778,-1.49861 v -3.14191 h -0.6976296 v -0.73898 h 0.6976296 v -1.6433 z"
           style="text-align:center;text-anchor:middle"
           id="path4246" />
      </g>
    </g>
    <g
       style="font-style:normal;font-weight:normal;font-size:8.46667px;line-height:1.05;font-family:sans-serif;white-space:pre;shape-inside:url(#rect1165);fill:#000000;fill-opacity:1;stroke:none"
       id="text1163-1"
       transform="translate(5.342511,1.1060936)"
       aria-label="plain noun / pronoun">
      <g
         style="font-style:normal;font-weight:normal;font-size:10.5833px;line-height:1.25;font-family:sans-serif;white-space:pre;shape-inside:url(#rect982);fill:#999999;fill-opacity:1;stroke:none"
         id="text980"
         transform="matrix(0.82417527,0,0,0.82417527,4.7788419,30.747976)"
         aria-label="implied
3rd. pers. masc. sing.">
        <path
           id="path1035"
           style="text-align:center;text-anchor:middle;fill:#999999"
           d="m 50.656106,43.693185 h 0.950843 v 5.787742 h -0.950843 z m 0,-2.253085 h 0.950843 v 1.204057 h -0.950843 z" />
        <path
           id="path1037"
           style="text-align:center;text-anchor:middle;fill:#999999"
           d="m 58.097488,44.804225 q 0.356566,-0.640786 0.852658,-0.945676 0.496093,-0.30489 1.167884,-0.30489 0.904335,0 1.395259,0.635618 0.490925,0.630451 0.490925,1.798335 v 3.493315 h -0.956011 v -3.46231 q 0,-0.831988 -0.294555,-1.235063 -0.294555,-0.403074 -0.899167,-0.403074 -0.738971,0 -1.167884,0.490924 -0.428913,0.490925 -0.428913,1.338415 v 3.271108 h -0.956011 v -3.46231 q 0,-0.837155 -0.294554,-1.235063 -0.294555,-0.403074 -0.909503,-0.403074 -0.728635,0 -1.157548,0.496092 -0.428913,0.490924 -0.428913,1.333247 v 3.271108 h -0.956011 v -5.787742 h 0.956011 v 0.899167 q 0.325561,-0.532265 0.780312,-0.785479 0.454751,-0.253214 1.080034,-0.253214 0.63045,0 1.069698,0.320393 0.444416,0.320393 0.656289,0.930173 z" />
        <path
           id="path1039"
           style="text-align:center;text-anchor:middle;fill:#999999"
           d="m 64.825738,48.612766 v 3.06957 h -0.956011 v -7.989151 h 0.956011 v 0.878497 q 0.299722,-0.516763 0.754474,-0.764809 0.459918,-0.253214 1.095536,-0.253214 1.054196,0 1.710485,0.837156 0.661456,0.837155 0.661456,2.201409 0,1.364253 -0.661456,2.201409 -0.656289,0.837155 -1.710485,0.837155 -0.635618,0 -1.095536,-0.248046 -0.454752,-0.253213 -0.754474,-0.769976 z m 3.234934,-2.020542 q 0,-1.049028 -0.43408,-1.643305 -0.428913,-0.599445 -1.183387,-0.599445 -0.754473,0 -1.188554,0.599445 -0.428913,0.594277 -0.428913,1.643305 0,1.049028 0.428913,1.648473 0.434081,0.594277 1.188554,0.594277 0.754474,0 1.183387,-0.594277 0.43408,-0.599445 0.43408,-1.648473 z" />
        <path
           id="path1041"
           style="text-align:center;text-anchor:middle;fill:#999999"
           d="m 70.623814,41.4401 h 0.950843 v 8.040827 h -0.950843 z" />
        <path
           id="path1043"
           style="text-align:center;text-anchor:middle;fill:#999999"
           d="m 73.559027,43.693185 h 0.950844 v 5.787742 h -0.950844 z m 0,-2.253085 h 0.950844 v 1.204057 h -0.950844 z" />
        <path
           id="path1045"
           style="text-align:center;text-anchor:middle;fill:#999999"
           d="m 81.444825,46.349345 v 0.465087 h -4.371812 q 0.06201,0.981849 0.589109,1.498612 0.532266,0.511595 1.477941,0.511595 0.547769,0 1.059364,-0.134359 0.516763,-0.134358 1.02319,-0.403075 v 0.899167 q -0.511595,0.217041 -1.049028,0.330729 -0.537433,0.113687 -1.09037,0.113687 -1.384924,0 -2.196241,-0.806149 -0.80615,-0.80615 -0.80615,-2.180739 0,-1.421097 0.764809,-2.253085 0.769976,-0.837156 2.072218,-0.837156 1.167884,0 1.844843,0.754474 0.682127,0.749306 0.682127,2.041212 z m -0.950843,-0.279051 q -0.01034,-0.780312 -0.439249,-1.245399 -0.423745,-0.465086 -1.126542,-0.465086 -0.795815,0 -1.276404,0.449584 -0.475422,0.449583 -0.547769,1.266068 z" />
        <path
           id="path1047"
           style="text-align:center;text-anchor:middle;fill:#999999"
           d="M 86.813989,44.571682 V 41.4401 h 0.950843 v 8.040827 h -0.950843 v -0.868161 q -0.299723,0.516763 -0.759641,0.769976 -0.454751,0.248046 -1.095537,0.248046 -1.049028,0 -1.710485,-0.837155 -0.656288,-0.837156 -0.656288,-2.201409 0,-1.364254 0.656288,-2.201409 0.661457,-0.837156 1.710485,-0.837156 0.640786,0 1.095537,0.253214 0.459918,0.248046 0.759641,0.764809 z m -3.240102,2.020542 q 0,1.049028 0.428913,1.648473 0.434081,0.594277 1.188554,0.594277 0.754474,0 1.188554,-0.594277 0.434081,-0.599445 0.434081,-1.648473 0,-1.049028 -0.434081,-1.643305 -0.43408,-0.599445 -1.188554,-0.599445 -0.754473,0 -1.188554,0.599445 -0.428913,0.594277 -0.428913,1.643305 z" />
        <path
           id="path1049"
           style="text-align:center;text-anchor:middle;fill:#999999"
           d="m 48.061957,58.550114 q 0.749306,0.160196 1.167884,0.666623 0.423745,0.506428 0.423745,1.250566 0,1.142046 -0.785479,1.767329 -0.78548,0.625282 -2.232415,0.625282 -0.485757,0 -1.00252,-0.09819 -0.511595,-0.09302 -1.059363,-0.284219 v -1.007687 q 0.434081,0.253213 0.950843,0.382404 0.516763,0.129191 1.080034,0.129191 0.981849,0 1.493444,-0.387572 0.516763,-0.387572 0.516763,-1.126543 0,-0.682127 -0.480589,-1.064531 Q 47.658882,59.0152 46.806224,59.0152 h -0.899167 v -0.857826 h 0.940508 q 0.769976,0 1.178219,-0.30489 0.408242,-0.310058 0.408242,-0.888832 0,-0.594277 -0.423745,-0.909502 -0.418578,-0.320393 -1.204057,-0.320393 -0.428913,0 -0.919838,0.09302 -0.490924,0.09302 -1.080034,0.289387 v -0.930172 q 0.594277,-0.165364 1.11104,-0.248046 0.52193,-0.08268 0.981849,-0.08268 1.188554,0 1.881016,0.542601 0.692462,0.537433 0.692462,1.457271 0,0.640786 -0.366901,1.085202 -0.366902,0.439248 -1.043861,0.60978 z" />
        <path
           id="path1051"
           style="text-align:center;text-anchor:middle;fill:#999999"
           d="m 54.857386,57.811143 q -0.160196,-0.09302 -0.351398,-0.134358 -0.186035,-0.04651 -0.41341,-0.04651 -0.80615,0 -1.240231,0.527098 -0.428913,0.52193 -0.428913,1.503779 v 3.0489 h -0.956011 v -5.787742 h 0.956011 v 0.899167 q 0.299722,-0.527098 0.780312,-0.780311 0.480589,-0.258382 1.167883,-0.258382 0.09819,0 0.217041,0.0155 0.118855,0.01033 0.263549,0.03617 z" />
        <path
           id="path1053"
           style="text-align:center;text-anchor:middle;fill:#999999"
           d="m 59.48758,57.800808 v -3.131582 h 0.950843 v 8.040827 H 59.48758 v -0.868161 q -0.299722,0.516763 -0.759641,0.769976 -0.454751,0.248046 -1.095537,0.248046 -1.049028,0 -1.710484,-0.837155 -0.656289,-0.837156 -0.656289,-2.201409 0,-1.364254 0.656289,-2.201409 0.661456,-0.837156 1.710484,-0.837156 0.640786,0 1.095537,0.253214 0.459919,0.248046 0.759641,0.764809 z m -3.240102,2.020542 q 0,1.049028 0.428913,1.648473 0.434081,0.594277 1.188554,0.594277 0.754474,0 1.188554,-0.594277 0.434081,-0.599445 0.434081,-1.648473 0,-1.049028 -0.434081,-1.643305 -0.43408,-0.599445 -1.188554,-0.599445 -0.754473,0 -1.188554,0.599445 -0.428913,0.594277 -0.428913,1.643305 z" />
        <path
           id="path1055"
           style="text-align:center;text-anchor:middle;fill:#999999"
           d="m 62.531312,61.397476 h 1.090369 v 1.312577 h -1.090369 z" />
        <path
           id="path1057"
           style="text-align:center;text-anchor:middle;fill:#999999"
           d="m 70.055376,61.841892 v 3.06957 h -0.956011 v -7.989151 h 0.956011 v 0.878497 q 0.299722,-0.516763 0.754473,-0.764809 0.459919,-0.253214 1.095537,-0.253214 1.054196,0 1.710485,0.837156 0.661456,0.837155 0.661456,2.201409 0,1.364253 -0.661456,2.201409 -0.656289,0.837155 -1.710485,0.837155 -0.635618,0 -1.095537,-0.248046 -0.454751,-0.253213 -0.754473,-0.769976 z M 73.29031,59.82135 q 0,-1.049028 -0.43408,-1.643305 -0.428913,-0.599445 -1.183387,-0.599445 -0.754473,0 -1.188554,0.599445 -0.428913,0.594277 -0.428913,1.643305 0,1.049028 0.428913,1.648473 0.434081,0.594277 1.188554,0.594277 0.754474,0 1.183387,-0.594277 0.43408,-0.599445 0.43408,-1.648473 z" />
        <path
           id="path1059"
           style="text-align:center;text-anchor:middle;fill:#999999"
           d="m 80.804039,59.578471 v 0.465087 h -4.371812 q 0.06201,0.981849 0.58911,1.498612 0.532265,0.511595 1.477941,0.511595 0.547768,0 1.059363,-0.134359 0.516763,-0.134358 1.02319,-0.403075 v 0.899167 q -0.511595,0.217041 -1.049028,0.330729 -0.537433,0.113687 -1.090369,0.113687 -1.384924,0 -2.196241,-0.806149 -0.80615,-0.80615 -0.80615,-2.180739 0,-1.421097 0.764809,-2.253085 0.769976,-0.837156 2.072218,-0.837156 1.167884,0 1.844843,0.754474 0.682126,0.749306 0.682126,2.041212 z M 79.853196,59.29942 q -0.01033,-0.780312 -0.439248,-1.245399 -0.423746,-0.465086 -1.126543,-0.465086 -0.795814,0 -1.276404,0.449584 -0.475421,0.449583 -0.547768,1.266068 z" />
        <path
           id="path1061"
           style="text-align:center;text-anchor:middle;fill:#999999"
           d="m 85.718452,57.811143 q -0.160196,-0.09302 -0.351398,-0.134358 -0.186035,-0.04651 -0.413411,-0.04651 -0.806149,0 -1.24023,0.527098 -0.428913,0.52193 -0.428913,1.503779 v 3.0489 H 82.328489 V 56.922311 H 83.2845 v 0.899167 q 0.299722,-0.527098 0.780312,-0.780311 0.480589,-0.258382 1.167883,-0.258382 0.09818,0 0.217041,0.0155 0.118855,0.01033 0.263549,0.03617 z" />
        <path
           id="path1063"
           style="text-align:center;text-anchor:middle;fill:#999999"
           d="M 90.415825,57.092843 V 57.99201 Q 90.01275,57.785305 89.578669,57.681952 89.144589,57.5786 88.679502,57.5786 q -0.707965,0 -1.064531,0.21704 -0.351399,0.21704 -0.351399,0.651121 0,0.330728 0.253214,0.52193 0.253214,0.186035 1.018023,0.356567 l 0.32556,0.07235 q 1.012855,0.217041 1.4366,0.614948 0.428913,0.39274 0.428913,1.100705 0,0.806149 -0.640785,1.276403 -0.635618,0.470254 -1.751826,0.470254 -0.465086,0 -0.971514,-0.09302 -0.501259,-0.08785 -1.059363,-0.268717 v -0.981849 q 0.527098,0.273885 1.038693,0.413411 0.511595,0.134358 1.012855,0.134358 0.671791,0 1.033525,-0.227376 0.361734,-0.232543 0.361734,-0.651121 0,-0.387572 -0.263549,-0.594277 -0.258381,-0.206705 -1.142046,-0.397907 l -0.330728,-0.07751 q -0.883664,-0.186035 -1.276403,-0.568439 -0.39274,-0.387572 -0.39274,-1.059364 0,-0.816485 0.578774,-1.260901 0.578774,-0.444416 1.643305,-0.444416 0.527098,0 0.992185,0.07752 0.465086,0.07751 0.857826,0.232543 z" />
        <path
           id="path1065"
           style="text-align:center;text-anchor:middle;fill:#999999"
           d="m 92.379525,61.397476 h 1.09037 v 1.312577 h -1.09037 z" />
        <path
           id="path1067"
           style="text-align:center;text-anchor:middle;fill:#999999"
           d="m 44.620317,71.262477 q 0.356567,-0.640786 0.852659,-0.945676 0.496092,-0.30489 1.167884,-0.30489 0.904334,0 1.395259,0.635618 0.490924,0.630451 0.490924,1.798334 v 3.493316 h -0.956011 v -3.46231 q 0,-0.831988 -0.294554,-1.235063 -0.294555,-0.403074 -0.899167,-0.403074 -0.738971,0 -1.167884,0.490924 -0.428913,0.490925 -0.428913,1.338415 v 3.271108 h -0.956011 v -3.46231 q 0,-0.837155 -0.294555,-1.235063 -0.294554,-0.403074 -0.909502,-0.403074 -0.728635,0 -1.157548,0.496092 -0.428913,0.490924 -0.428913,1.333247 v 3.271108 h -0.956011 v -5.787742 h 0.956011 v 0.899167 q 0.32556,-0.532265 0.780311,-0.785479 0.454751,-0.253214 1.080034,-0.253214 0.630451,0 1.069699,0.320393 0.444416,0.320393 0.656288,0.930173 z" />
        <path
           id="path1069"
           style="text-align:center;text-anchor:middle;fill:#999999"
           d="m 53.059052,73.029805 q -1.152381,0 -1.596797,0.263549 -0.444416,0.263549 -0.444416,0.899167 0,0.506428 0.330728,0.80615 0.335896,0.294555 0.909503,0.294555 0.790647,0 1.266068,-0.558104 0.480589,-0.563271 0.480589,-1.493444 v -0.211873 z m 1.896519,-0.392739 v 3.302113 h -0.950844 v -0.878496 q -0.32556,0.527098 -0.811317,0.780311 -0.485757,0.248046 -1.188554,0.248046 -0.888832,0 -1.41593,-0.496092 -0.52193,-0.50126 -0.52193,-1.338415 0,-0.976682 0.651121,-1.472774 0.656288,-0.496092 1.953363,-0.496092 h 1.333247 v -0.09302 q 0,-0.656289 -0.43408,-1.012855 -0.428913,-0.361734 -1.209225,-0.361734 -0.496092,0 -0.966346,0.118855 -0.470254,0.118856 -0.904335,0.356567 v -0.878497 q 0.521931,-0.201537 1.012855,-0.299722 0.490925,-0.103353 0.956011,-0.103353 1.255733,0 1.875849,0.651121 0.620115,0.651121 0.620115,1.974034 z" />
        <path
           id="path1071"
           style="text-align:center;text-anchor:middle;fill:#999999"
           d="m 60.608955,70.321969 v 0.899167 q -0.403075,-0.206705 -0.837156,-0.310058 -0.43408,-0.103352 -0.899167,-0.103352 -0.707965,0 -1.064531,0.21704 -0.351398,0.21704 -0.351398,0.651121 0,0.330728 0.253213,0.52193 0.253214,0.186035 1.018023,0.356567 l 0.32556,0.07235 q 1.012855,0.217041 1.4366,0.614948 0.428913,0.39274 0.428913,1.100704 0,0.80615 -0.640785,1.276404 -0.635618,0.470254 -1.751826,0.470254 -0.465086,0 -0.971514,-0.09302 -0.501259,-0.08785 -1.059363,-0.268717 v -0.981849 q 0.527098,0.273885 1.038693,0.413411 0.511595,0.134358 1.012855,0.134358 0.671791,0 1.033525,-0.227376 0.361734,-0.232543 0.361734,-0.651121 0,-0.387572 -0.263549,-0.594277 -0.258381,-0.206705 -1.142045,-0.397907 l -0.330729,-0.07751 q -0.883664,-0.186035 -1.276403,-0.568439 -0.39274,-0.387572 -0.39274,-1.059364 0,-0.816485 0.578774,-1.260901 0.578774,-0.444416 1.643305,-0.444416 0.527098,0 0.992185,0.07752 0.465086,0.07751 0.857826,0.232543 z" />
        <path
           id="path1073"
           style="text-align:center;text-anchor:middle;fill:#999999"
           d="m 66.6034,70.373645 v 0.888832 q -0.403074,-0.222208 -0.811317,-0.330728 -0.403075,-0.113688 -0.816485,-0.113688 -0.925005,0 -1.4366,0.589109 -0.511595,0.583942 -0.511595,1.643306 0,1.059363 0.511595,1.648473 0.511595,0.583942 1.4366,0.583942 0.41341,0 0.816485,-0.108521 0.408243,-0.113687 0.811317,-0.335895 v 0.878496 q -0.397907,0.186035 -0.82682,0.279052 -0.423745,0.09302 -0.904335,0.09302 -1.307409,0 -2.077386,-0.821652 -0.769976,-0.821653 -0.769976,-2.216912 0,-1.41593 0.775144,-2.227247 0.780312,-0.811318 2.13423,-0.811318 0.439248,0 0.857826,0.09302 0.418578,0.08785 0.811317,0.268716 z" />
        <path
           id="path1075"
           style="text-align:center;text-anchor:middle;fill:#999999"
           d="m 68.401736,74.626602 h 1.090369 v 1.312577 h -1.090369 z" />
        <path
           id="path1077"
           style="text-align:center;text-anchor:middle;fill:#999999"
           d="m 78.695648,70.321969 v 0.899167 q -0.403075,-0.206705 -0.837156,-0.310058 -0.434081,-0.103352 -0.899167,-0.103352 -0.707965,0 -1.064531,0.21704 -0.351399,0.21704 -0.351399,0.651121 0,0.330728 0.253214,0.52193 0.253214,0.186035 1.018023,0.356567 l 0.32556,0.07235 q 1.012855,0.217041 1.4366,0.614948 0.428913,0.39274 0.428913,1.100704 0,0.80615 -0.640785,1.276404 -0.635619,0.470254 -1.751826,0.470254 -0.465086,0 -0.971514,-0.09302 -0.50126,-0.08785 -1.059363,-0.268717 v -0.981849 q 0.527098,0.273885 1.038693,0.413411 0.511595,0.134358 1.012855,0.134358 0.671791,0 1.033525,-0.227376 0.361734,-0.232543 0.361734,-0.651121 0,-0.387572 -0.263549,-0.594277 -0.258382,-0.206705 -1.142046,-0.397907 l -0.330728,-0.07751 q -0.883664,-0.186035 -1.276404,-0.568439 -0.392739,-0.387572 -0.392739,-1.059364 0,-0.816485 0.578774,-1.260901 0.578774,-0.444416 1.643305,-0.444416 0.527098,0 0.992185,0.07752 0.465086,0.07751 0.857826,0.232543 z" />
        <path
           id="path1079"
           style="text-align:center;text-anchor:middle;fill:#999999"
           d="m 80.52499,70.151437 h 0.950843 v 5.787742 H 80.52499 Z m 0,-2.253085 h 0.950843 v 1.204057 H 80.52499 Z" />
        <path
           id="path1081"
           style="text-align:center;text-anchor:middle;fill:#999999"
           d="m 88.271262,72.445863 v 3.493316 h -0.950844 v -3.46231 q 0,-0.821652 -0.320393,-1.229895 -0.320392,-0.408242 -0.961178,-0.408242 -0.769977,0 -1.214393,0.490924 -0.444415,0.490925 -0.444415,1.338415 v 3.271108 h -0.956011 v -5.787742 h 0.956011 v 0.899167 q 0.341063,-0.52193 0.800982,-0.780311 0.465086,-0.258382 1.069698,-0.258382 0.997352,0 1.508947,0.620115 0.511596,0.614948 0.511596,1.813837 z" />
        <path
           id="path1083"
           style="text-align:center;text-anchor:middle;fill:#999999"
           d="m 93.986657,72.978129 q 0,-1.033525 -0.428913,-1.601964 -0.423746,-0.568439 -1.193722,-0.568439 -0.764809,0 -1.193722,0.568439 -0.423745,0.568439 -0.423745,1.601964 0,1.028358 0.423745,1.596797 0.428913,0.568439 1.193722,0.568439 0.769976,0 1.193722,-0.568439 0.428913,-0.568439 0.428913,-1.596797 z m 0.950843,2.24275 q 0,1.477941 -0.656289,2.196241 -0.656288,0.723468 -2.010207,0.723468 -0.501259,0 -0.945675,-0.07751 -0.444416,-0.07235 -0.862994,-0.227376 v -0.925005 q 0.418578,0.227376 0.82682,0.335896 0.408243,0.10852 0.831988,0.10852 0.935341,0 1.400427,-0.490925 0.465087,-0.485757 0.465087,-1.472773 v -0.470254 q -0.294555,0.511595 -0.754474,0.764808 -0.459919,0.253214 -1.100704,0.253214 -1.064532,0 -1.715653,-0.811317 -0.651121,-0.811318 -0.651121,-2.149733 0,-1.343583 0.651121,-2.1549 0.651121,-0.811318 1.715653,-0.811318 0.640785,0 1.100704,0.253214 0.459919,0.253214 0.754474,0.764809 V 70.151437 H 94.9375 Z" />
        <path
           id="path1085"
           style="text-align:center;text-anchor:middle;fill:#999999"
           d="m 97.030388,74.626602 h 1.09037 v 1.312577 h -1.09037 z" />
      </g>
      <text
         xml:space="preserve"
         id="text1371"
         style="font-style:normal;font-weight:normal;font-size:10.5833px;line-height:1.25;font-family:sans-serif;white-space:pre;shape-inside:url(#rect1373);fill:#000000;fill-opacity:1;stroke:none;" />
      <path
         style="fill:none;stroke:#4d4d4d;stroke-width:0.865;stroke-linecap:butt;stroke-linejoin:miter;stroke-miterlimit:4;stroke-dasharray:3.46, 1.73;stroke-dashoffset:0;stroke-opacity:1"
         d="m -25.930477,134.12776 v 6.94901 H 135.76759 v -18.4416"
         id="path1161"
         sodipodi:nodetypes="cccc" />
    </g>
    <path
       sodipodi:nodetypes="cccc"
       id="path1169-1"
       d="m 36.883574,98.715892 9.342265,9.289858 h 40.102596 l 9.589405,-9.589418"
       style="fill:none;stroke:#808080;stroke-width:0.964999;stroke-linecap:butt;stroke-linejoin:miter;stroke-miterlimit:4;stroke-dasharray:none;stroke-opacity:1" />
    <g
       style="font-style:normal;font-weight:normal;font-size:10.5833px;line-height:1.25;font-family:sans-serif;white-space:pre;shape-inside:url(#rect1354);fill:#808080;fill-opacity:1;stroke:none"
       id="text1352"
       transform="translate(13.985119,-5.2916667)"
       aria-label="object">
      <path
         style="fill:#808080"
         id="path4403"
         d="m 39.076039,122.71137 q -0.764808,0 -1.209224,0.59945 -0.444416,0.59427 -0.444416,1.63297 0,1.03869 0.439248,1.63813 0.444416,0.59428 1.214392,0.59428 0.759642,0 1.204058,-0.59944 0.444415,-0.59945 0.444415,-1.63297 0,-1.02836 -0.444415,-1.62781 -0.444416,-0.60461 -1.204058,-0.60461 z m 0,-0.80615 q 1.240231,0 1.948196,0.80615 0.707965,0.80615 0.707965,2.23242 0,1.42109 -0.707965,2.23241 -0.707965,0.80615 -1.948196,0.80615 -1.245398,0 -1.953362,-0.80615 -0.702798,-0.81132 -0.702798,-2.23241 0,-1.42627 0.702798,-2.23242 0.707964,-0.80615 1.953362,-0.80615 z" />
      <path
         style="fill:#808080"
         id="path4405"
         d="m 47.45793,124.94379 q 0,-1.04903 -0.434081,-1.64331 -0.428913,-0.59944 -1.183386,-0.59944 -0.754474,0 -1.188554,0.59944 -0.428913,0.59428 -0.428913,1.64331 0,1.04902 0.428913,1.64847 0.43408,0.59428 1.188554,0.59428 0.754473,0 1.183386,-0.59428 0.434081,-0.59945 0.434081,-1.64847 z m -3.234934,-2.02055 q 0.299722,-0.51676 0.754473,-0.7648 0.459919,-0.25322 1.095537,-0.25322 1.054196,0 1.710485,0.83716 0.661456,0.83715 0.661456,2.20141 0,1.36425 -0.661456,2.20141 -0.656289,0.83715 -1.710485,0.83715 -0.635618,0 -1.095537,-0.24805 -0.454751,-0.25321 -0.754473,-0.76997 v 0.86816 h -0.956011 v -8.04083 h 0.956011 z" />
      <path
         style="fill:#808080"
         id="path4407"
         d="m 50.021073,122.04475 h 0.950843 v 5.89109 q 0,1.10587 -0.423745,1.60197 -0.418578,0.49609 -1.353919,0.49609 h -0.361733 v -0.80615 h 0.253213 q 0.542601,0 0.738971,-0.25321 0.19637,-0.24805 0.19637,-1.0387 z m 0,-2.25309 h 0.950843 v 1.20406 h -0.950843 z" />
      <path
         style="fill:#808080"
         id="path4409"
         d="m 57.906871,124.70091 v 0.46508 h -4.371812 q 0.06201,0.98185 0.589109,1.49862 0.532266,0.51159 1.477942,0.51159 0.547768,0 1.059363,-0.13436 0.516763,-0.13436 1.02319,-0.40307 v 0.89916 q -0.511595,0.21705 -1.049028,0.33073 -0.537433,0.11369 -1.090369,0.11369 -1.384924,0 -2.196242,-0.80615 -0.806149,-0.80615 -0.806149,-2.18074 0,-1.42109 0.764808,-2.25308 0.769977,-0.83716 2.072219,-0.83716 1.167883,0 1.844843,0.75448 0.682126,0.7493 0.682126,2.04121 z m -0.950843,-0.27905 q -0.01034,-0.78032 -0.439248,-1.2454 -0.423746,-0.46509 -1.126543,-0.46509 -0.795814,0 -1.276404,0.44959 -0.475421,0.44958 -0.547768,1.26606 z" />
      <path
         style="fill:#808080"
         id="path4411"
         d="m 63.632602,122.26696 v 0.88883 q -0.403075,-0.22221 -0.811318,-0.33073 -0.403075,-0.11369 -0.816485,-0.11369 -0.925005,0 -1.4366,0.58911 -0.511595,0.58394 -0.511595,1.64331 0,1.05936 0.511595,1.64847 0.511595,0.58394 1.4366,0.58394 0.41341,0 0.816485,-0.10852 0.408243,-0.11369 0.811318,-0.33589 v 0.87849 q -0.397908,0.18604 -0.826821,0.27905 -0.423745,0.093 -0.904334,0.093 -1.30741,0 -2.077386,-0.82165 -0.769977,-0.82165 -0.769977,-2.21691 0,-1.41593 0.775144,-2.22725 0.780312,-0.81132 2.13423,-0.81132 0.439248,0 0.857826,0.093 0.418578,0.0879 0.811318,0.26872 z" />
      <path
         style="fill:#808080"
         id="path4413"
         d="m 66.237085,120.40144 v 1.64331 h 1.95853 v 0.73897 h -1.95853 v 3.14192 q 0,0.70796 0.191202,0.9095 0.19637,0.20154 0.790647,0.20154 h 0.976681 v 0.79581 h -0.976681 q -1.100705,0 -1.519282,-0.40824 -0.418578,-0.41341 -0.418578,-1.49861 v -3.14192 h -0.69763 v -0.73897 h 0.69763 v -1.64331 z" />
    </g>
  </g>
</svg>
