<?xml version="1.0" encoding="UTF-8" standalone="no"?>
<svg
   xmlns:dc="http://purl.org/dc/elements/1.1/"
   xmlns:cc="http://creativecommons.org/ns#"
   xmlns:rdf="http://www.w3.org/1999/02/22-rdf-syntax-ns#"
   xmlns:svg="http://www.w3.org/2000/svg"
   xmlns="http://www.w3.org/2000/svg"
   xmlns:sodipodi="http://sodipodi.sourceforge.net/DTD/sodipodi-0.dtd"
   xmlns:inkscape="http://www.inkscape.org/namespaces/inkscape"
   sodipodi:docname="gramattically-transitive-past.svg"
   inkscape:version="1.0 (4035a4fb49, 2020-05-01)"
   id="svg8"
   version="1.1"
   viewBox="0 0 212.46637 92.675973"
   height="350.27139"
   width="803.02252">
  <defs
     id="defs2">
    <rect
       x="10.841692"
       y="4.1634259"
       width="100.76061"
       height="33.408691"
       id="rect4499" />
    <rect
       id="rect1391"
       height="46.113094"
       width="93.738098"
       y="-70.55368"
       x="-15.096844" />
    <rect
       id="rect1385"
       height="25.324406"
       width="51.404762"
       y="-43.339394"
       x="39.331726" />
    <rect
       id="rect1379"
       height="25.324406"
       width="78.997025"
       y="35.657631"
       x="38.953751" />
    <rect
       id="rect1373"
       height="23.434525"
       width="29.104168"
       y="33.389771"
       x="57.474583" />
    <rect
       id="rect1360"
       height="77.422302"
       width="112.6993"
       y="6.553463"
       x="4.935894" />
    <rect
       id="rect1354"
       height="35.151787"
       width="93.738098"
       y="118.46915"
       x="35.83614" />
    <rect
       id="rect1348"
       height="28.348213"
       width="76.351189"
       y="116.23755"
       x="-56.012074" />
    <rect
       id="rect1165"
       height="44.73629"
       width="50.263763"
       y="61.904251"
       x="35.529755" />
    <rect
       id="rect1113"
       height="23.8125"
       width="56.69643"
       y="112.25893"
       x="37.041668" />
    <marker
       inkscape:isstock="true"
       style="overflow:visible"
       id="Arrow1Lstart"
       refX="0"
       refY="0"
       orient="auto"
       inkscape:stockid="Arrow1Lstart">
      <path
         transform="matrix(0.8,0,0,0.8,10,0)"
         style="fillRule:evenodd;stroke:#000000;stroke-width:1pt"
         d="M 0,0 5,-5 -12.5,0 5,5 Z"
         id="path841" />
    </marker>
    <rect
       x="37.041668"
       y="112.25893"
       width="56.69643"
       height="23.8125"
       id="rect1113-9" />
    <rect
       x="37.041668"
       y="112.25893"
       width="56.69643"
       height="23.8125"
       id="rect1141" />
  </defs>
  <sodipodi:namedview
     inkscape:window-maximized="0"
     inkscape:window-y="118"
     inkscape:window-x="2167"
     inkscape:window-height="1080"
     inkscape:window-width="1515"
     fit-margin-left="10"
     fit-margin-bottom="10"
     fit-margin-right="10"
     fit-margin-top="10"
     units="px"
     showgrid="false"
     inkscape:document-rotation="0"
     inkscape:current-layer="text1358"
     inkscape:document-units="mm"
     inkscape:cy="-1.8078828"
     inkscape:cx="406.88683"
     inkscape:zoom="0.9899495"
     inkscape:pageshadow="2"
     inkscape:pageopacity="0.0"
     borderopacity="1.0"
     bordercolor="#666666"
     pagecolor="#ffffff"
     id="base"
     inkscape:snap-global="false" />
  <metadata
     id="metadata5">
    <rdf:RDF>
      <cc:Work
         rdf:about="">
        <dc:format>image/svg+xml</dc:format>
        <dc:type
           rdf:resource="http://purl.org/dc/dcmitype/StillImage" />
        <dc:title></dc:title>
      </cc:Work>
    </rdf:RDF>
  </metadata>
  <g
     transform="translate(52.843619,-52.585221)"
     id="layer1"
     inkscape:groupmode="layer"
     inkscape:label="Layer 1">
    <path
       d="m 122.9777,85.081856 h 33.44172 V 118.52357 H 122.9777 Z"
       style="opacity:1;fill:none;stroke:#000000;stroke-width:1.115;stroke-miterlimit:4;stroke-dasharray:none"
       id="rect839-4" />
    <g
       style="font-style:normal;font-weight:normal;font-size:10.5833px;line-height:1.25;font-family:sans-serif;white-space:pre;shape-inside:url(#rect1113-9);fill:#000000;fill-opacity:1;stroke:none"
       id="text1111-8"
       transform="translate(90.461538,-16.314846)"
       aria-label="verb">
      <path
         id="path1187"
         d="m 37.356241,115.83576 h 1.007687 l 1.808669,4.85757 1.80867,-4.85757 h 1.007687 l -2.170403,5.78775 h -1.291907 z" />
      <path
         id="path1189"
         d="m 49.252118,118.49192 v 0.46509 h -4.371813 q 0.06201,0.98185 0.58911,1.49861 0.532265,0.5116 1.477941,0.5116 0.547769,0 1.059364,-0.13436 0.516762,-0.13436 1.02319,-0.40308 v 0.89917 q -0.511595,0.21704 -1.049029,0.33073 -0.537433,0.11369 -1.090369,0.11369 -1.384924,0 -2.196241,-0.80615 -0.80615,-0.80615 -0.80615,-2.18074 0,-1.4211 0.764809,-2.25309 0.769976,-0.83715 2.072218,-0.83715 1.167884,0 1.844843,0.75447 0.682127,0.74931 0.682127,2.04121 z m -0.950844,-0.27905 q -0.01033,-0.78031 -0.439248,-1.2454 -0.423745,-0.46508 -1.126543,-0.46508 -0.795814,0 -1.276403,0.44958 -0.475422,0.44958 -0.547769,1.26607 z" />
      <path
         id="path1191"
         d="m 54.166531,116.7246 q -0.160196,-0.093 -0.351398,-0.13436 -0.186035,-0.0465 -0.41341,-0.0465 -0.80615,0 -1.240231,0.5271 -0.428913,0.52193 -0.428913,1.50378 v 3.0489 h -0.956011 v -5.78775 h 0.956011 v 0.89917 q 0.299723,-0.5271 0.780312,-0.78031 0.480589,-0.25838 1.167883,-0.25838 0.09819,0 0.217041,0.0155 0.118855,0.0103 0.263549,0.0362 z" />
      <path
         id="path1193"
         d="m 59.32899,118.7348 q 0,-1.04903 -0.43408,-1.6433 -0.428913,-0.59945 -1.183387,-0.59945 -0.754473,0 -1.188554,0.59945 -0.428913,0.59427 -0.428913,1.6433 0,1.04903 0.428913,1.64847 0.434081,0.59428 1.188554,0.59428 0.754474,0 1.183387,-0.59428 0.43408,-0.59944 0.43408,-1.64847 z m -3.234934,-2.02054 q 0.299722,-0.51676 0.754474,-0.76481 0.459918,-0.25321 1.095536,-0.25321 1.054196,0 1.710485,0.83715 0.661456,0.83716 0.661456,2.20141 0,1.36426 -0.661456,2.20141 -0.656289,0.83716 -1.710485,0.83716 -0.635618,0 -1.095536,-0.24805 -0.454752,-0.25321 -0.754474,-0.76998 v 0.86817 h -0.956011 v -8.04083 h 0.956011 z" />
    </g>
    <g
       transform="translate(7.9375,-1.5481652)"
       id="g1333">
      <path
         style="fill:none;stroke:#000000;stroke-width:0.965;stroke-linecap:butt;stroke-linejoin:miter;stroke-miterlimit:4;stroke-dasharray:none;stroke-opacity:1"
         d="m -57.795068,100.26406 9.342265,9.28984 h 40.1025978 l 9.589407,-9.589405"
         id="path1169"
         sodipodi:nodetypes="cccc" />
      <g
         aria-label="subject / agent"
         transform="translate(-9.827381,-4.5357143)"
         id="text1346"
         style="font-style:normal;font-weight:normal;font-size:10.5833px;line-height:1.25;font-family:sans-serif;white-space:pre;shape-inside:url(#rect1348);fill:#000000;fill-opacity:1;stroke:none">
        <path
           d="m -35.814111,119.98481 v 0.89917 q -0.403075,-0.20671 -0.837156,-0.31006 -0.43408,-0.10335 -0.899167,-0.10335 -0.707965,0 -1.064531,0.21704 -0.351398,0.21704 -0.351398,0.65112 0,0.33073 0.253213,0.52193 0.253214,0.18603 1.018023,0.35657 l 0.32556,0.0723 q 1.012855,0.21704 1.436601,0.61495 0.428913,0.39274 0.428913,1.1007 0,0.80615 -0.640786,1.27641 -0.635618,0.47025 -1.751826,0.47025 -0.465086,0 -0.971513,-0.093 -0.50126,-0.0878 -1.059364,-0.26871 v -0.98185 q 0.527098,0.27388 1.038693,0.41341 0.511595,0.13436 1.012855,0.13436 0.671791,0 1.033525,-0.22738 0.361734,-0.23254 0.361734,-0.65112 0,-0.38757 -0.263549,-0.59428 -0.258381,-0.2067 -1.142045,-0.3979 l -0.330729,-0.0775 q -0.883664,-0.18603 -1.276403,-0.56844 -0.39274,-0.38757 -0.39274,-1.05936 0,-0.81649 0.578774,-1.2609 0.578774,-0.44442 1.643306,-0.44442 0.527097,0 0.992184,0.0775 0.465086,0.0775 0.857826,0.23254 z"
           style="text-align:center;text-anchor:middle"
           id="path3360" />
        <path
           d="m -34.082956,123.31793 v -3.50365 h 0.950843 v 3.46748 q 0,0.82165 0.320393,1.23506 0.320393,0.40824 0.961179,0.40824 0.769976,0 1.214392,-0.49092 0.449583,-0.49093 0.449583,-1.33842 v -3.28144 h 0.950844 v 5.78774 h -0.950844 v -0.88883 q -0.346231,0.5271 -0.806149,0.78548 -0.454751,0.25321 -1.059364,0.25321 -0.997352,0 -1.514114,-0.62011 -0.516763,-0.62012 -0.516763,-1.81384 z m 2.392611,-3.64318 z"
           style="text-align:center;text-anchor:middle"
           id="path3362" />
        <path
           d="m -23.112084,122.71332 q 0,-1.04903 -0.434081,-1.64331 -0.428913,-0.59944 -1.183386,-0.59944 -0.754474,0 -1.188555,0.59944 -0.428913,0.59428 -0.428913,1.64331 0,1.04903 0.428913,1.64847 0.434081,0.59428 1.188555,0.59428 0.754473,0 1.183386,-0.59428 0.434081,-0.59944 0.434081,-1.64847 z m -3.234935,-2.02054 q 0.299723,-0.51677 0.754474,-0.76481 0.459919,-0.25322 1.095537,-0.25322 1.054196,0 1.710484,0.83716 0.661456,0.83715 0.661456,2.20141 0,1.36425 -0.661456,2.20141 -0.656288,0.83715 -1.710484,0.83715 -0.635618,0 -1.095537,-0.24804 -0.454751,-0.25322 -0.754474,-0.76998 v 0.86816 h -0.956011 v -8.04083 h 0.956011 z"
           style="text-align:center;text-anchor:middle"
           id="path3364" />
        <path
           d="m -20.548942,119.81428 h 0.950844 v 5.89109 q 0,1.10588 -0.423746,1.60197 -0.418577,0.49609 -1.353918,0.49609 h -0.361734 v -0.80615 h 0.253214 q 0.542601,0 0.738971,-0.25321 0.196369,-0.24805 0.196369,-1.0387 z m 0,-2.25309 h 0.950844 v 1.20406 h -0.950844 z"
           style="text-align:center;text-anchor:middle"
           id="path3366" />
        <path
           d="m -12.663144,122.47044 v 0.46509 h -4.371812 q 0.06201,0.98184 0.589109,1.49861 0.532266,0.51159 1.477941,0.51159 0.547769,0 1.059364,-0.13436 0.516763,-0.13435 1.02319,-0.40307 v 0.89917 q -0.511595,0.21704 -1.049028,0.33072 -0.537433,0.11369 -1.090369,0.11369 -1.384924,0 -2.196242,-0.80615 -0.80615,-0.80615 -0.80615,-2.18074 0,-1.42109 0.764809,-2.25308 0.769977,-0.83716 2.072219,-0.83716 1.167883,0 1.844842,0.75448 0.682127,0.7493 0.682127,2.04121 z m -0.950843,-0.27905 q -0.01034,-0.78031 -0.439249,-1.2454 -0.423745,-0.46509 -1.126542,-0.46509 -0.795815,0 -1.276404,0.44959 -0.475422,0.44958 -0.547768,1.26606 z"
           style="text-align:center;text-anchor:middle"
           id="path3368" />
        <path
           d="m -6.9374138,120.03649 v 0.88883 q -0.4030748,-0.22221 -0.8113174,-0.33073 -0.4030748,-0.11369 -0.816485,-0.11369 -0.9250052,0 -1.4365998,0.58911 -0.511595,0.58394 -0.511595,1.64331 0,1.05936 0.511595,1.64847 0.5115946,0.58394 1.4365998,0.58394 0.4134102,0 0.816485,-0.10852 0.4082426,-0.11369 0.8113174,-0.33589 v 0.87849 q -0.3979072,0.18604 -0.8268202,0.27905 -0.4237454,0.093 -0.9043347,0.093 -1.3074096,0 -2.0773863,-0.82165 -0.769976,-0.82165 -0.769976,-2.21691 0,-1.41593 0.775144,-2.22725 0.7803116,-0.81132 2.1342298,-0.81132 0.4392483,0 0.857826,0.093 0.4185778,0.0879 0.8113174,0.26872 z"
           style="text-align:center;text-anchor:middle"
           id="path3370" />
        <path
           d="m -4.3329304,118.17097 v 1.64331 h 1.9585306 v 0.73897 h -1.9585306 v 3.14192 q 0,0.70796 0.1912022,0.9095 0.1963698,0.20154 0.7906469,0.20154 h 0.9766815 v 0.79581 h -0.9766815 q -1.1007045,0 -1.5192823,-0.40824 -0.4185777,-0.41341 -0.4185777,-1.49861 v -3.14192 h -0.6976296 v -0.73897 h 0.6976296 v -1.64331 z"
           style="text-align:center;text-anchor:middle"
           id="path3372" />
        <path
           d="M 3.9404424,117.88675 H 4.818939 l -2.6871659,8.69712 H 1.2532765 Z"
           style="text-align:center;text-anchor:middle"
           id="path3374" />
        <path
           d="m -29.504439,135.92177 q -1.152381,0 -1.596796,0.26355 -0.444416,0.26355 -0.444416,0.89917 0,0.50643 0.330728,0.80615 0.335896,0.29455 0.909502,0.29455 0.790647,0 1.266069,-0.5581 0.480589,-0.56327 0.480589,-1.49344 v -0.21188 z m 1.896519,-0.39274 v 3.30212 h -0.950843 v -0.8785 q -0.325561,0.5271 -0.811317,0.78031 -0.485757,0.24805 -1.188555,0.24805 -0.888831,0 -1.415929,-0.49609 -0.521931,-0.50126 -0.521931,-1.33842 0,-0.97668 0.651121,-1.47277 0.656289,-0.4961 1.953363,-0.4961 h 1.333248 v -0.093 q 0,-0.65629 -0.434081,-1.01286 -0.428913,-0.36173 -1.209224,-0.36173 -0.496093,0 -0.966347,0.11885 -0.470254,0.11886 -0.904334,0.35657 v -0.8785 q 0.52193,-0.20153 1.012855,-0.29972 0.490924,-0.10335 0.956011,-0.10335 1.255733,0 1.875848,0.65112 0.620115,0.65112 0.620115,1.97403 z"
           style="text-align:center;text-anchor:middle"
           id="path3376" />
        <path
           d="m -21.835681,135.8701 q 0,-1.03353 -0.428913,-1.60197 -0.423745,-0.56844 -1.193722,-0.56844 -0.764808,0 -1.193721,0.56844 -0.423746,0.56844 -0.423746,1.60197 0,1.02835 0.423746,1.59679 0.428913,0.56844 1.193721,0.56844 0.769977,0 1.193722,-0.56844 0.428913,-0.56844 0.428913,-1.59679 z m 0.950844,2.24275 q 0,1.47794 -0.656289,2.19624 -0.656289,0.72347 -2.010207,0.72347 -0.50126,0 -0.945676,-0.0775 -0.444415,-0.0724 -0.862993,-0.22737 v -0.92501 q 0.418578,0.22738 0.82682,0.3359 0.408243,0.10852 0.831988,0.10852 0.93534,0 1.400427,-0.49093 0.465086,-0.48575 0.465086,-1.47277 v -0.47026 q -0.294555,0.5116 -0.754473,0.76481 -0.459919,0.25322 -1.100705,0.25322 -1.064531,0 -1.715652,-0.81132 -0.651121,-0.81132 -0.651121,-2.14973 0,-1.34359 0.651121,-2.1549 0.651121,-0.81132 1.715652,-0.81132 0.640786,0 1.100705,0.25321 0.459918,0.25322 0.754473,0.76481 v -0.8785 h 0.950844 z"
           style="text-align:center;text-anchor:middle"
           id="path3378" />
        <path
           d="m -13.97572,135.69957 v 0.46508 h -4.371812 q 0.06201,0.98185 0.589109,1.49861 0.532266,0.5116 1.477941,0.5116 0.547769,0 1.059364,-0.13436 0.516762,-0.13436 1.02319,-0.40307 v 0.89916 q -0.511595,0.21704 -1.049028,0.33073 -0.537434,0.11369 -1.09037,0.11369 -1.384924,0 -2.196241,-0.80615 -0.80615,-0.80615 -0.80615,-2.18074 0,-1.4211 0.764809,-2.25309 0.769976,-0.83715 2.072218,-0.83715 1.167884,0 1.844843,0.75447 0.682127,0.74931 0.682127,2.04122 z m -0.950844,-0.27906 q -0.01033,-0.78031 -0.439248,-1.24539 -0.423745,-0.46509 -1.126542,-0.46509 -0.795815,0 -1.276404,0.44958 -0.475422,0.44959 -0.547769,1.26607 z"
           style="text-align:center;text-anchor:middle"
           id="path3380" />
        <path
           d="m -7.6040366,135.33783 v 3.49332 H -8.55488 v -3.46231 q 0,-0.82166 -0.3203928,-1.2299 -0.3203929,-0.40824 -0.9611786,-0.40824 -0.7699766,0 -1.2143926,0.49092 -0.444416,0.49093 -0.444416,1.33842 v 3.27111 h -0.956011 v -5.78775 h 0.956011 v 0.89917 q 0.341064,-0.52193 0.800983,-0.78031 0.465086,-0.25838 1.0696983,-0.25838 0.997352,0 1.508947,0.62011 0.5115951,0.61495 0.5115951,1.81384 z"
           style="text-align:center;text-anchor:middle"
           id="path3382" />
        <path
           d="m -4.7566745,131.4001 v 1.6433 h 1.9585305 v 0.73898 h -1.9585305 v 3.14191 q 0,0.70797 0.1912022,0.9095 0.1963698,0.20154 0.7906469,0.20154 h 0.9766814 v 0.79582 h -0.9766814 q -1.1007045,0 -1.5192823,-0.40825 -0.4185778,-0.41341 -0.4185778,-1.49861 v -3.14191 h -0.6976296 v -0.73898 h 0.6976296 v -1.6433 z"
           style="text-align:center;text-anchor:middle"
           id="path3384" />
      </g>
    </g>
    <g
       style="font-style:normal;font-weight:normal;font-size:8.46667px;line-height:1.25;font-family:sans-serif;white-space:pre;shape-inside:url(#rect1360);fill:#000000;fill-opacity:1;stroke:none"
       id="text1358"
       transform="translate(-120.88099,10.440184)"
       aria-label="plain noun / pronoun ">
      <g
         aria-label="inflected noun / pronoun"
         transform="matrix(0.91075878,0,0,0.91075878,44.423281,40.361891)"
         id="text4497"
         style="font-style:normal;font-weight:normal;font-size:10.5833px;line-height:0.95;font-family:sans-serif;white-space:pre;shape-inside:url(#rect4499);fill:#000000;fill-opacity:1;stroke:none">
        <path
           d="m 28.822611,7.310097 h 0.760677 v 4.63021 h -0.760677 z m 0,-1.8024746 h 0.760677 v 0.963249 h -0.760677 z"
           style="font-size:8.46667px;text-align:center;text-anchor:middle"
           id="path4503" />
        <path
           d="M 35.019651,9.1456446 V 11.940307 H 34.258974 V 9.1704493 q 0,-0.6573244 -0.256316,-0.9839196 -0.256315,-0.3265952 -0.768945,-0.3265952 -0.615984,0 -0.971518,0.392741 -0.355534,0.3927411 -0.355534,1.0707361 V 11.940307 H 31.14185 v -4.63021 h 0.764811 v 0.7193363 q 0.272852,-0.4175458 0.640788,-0.6242516 0.372071,-0.2067058 0.855762,-0.2067058 0.797885,0 1.207162,0.4960939 0.409278,0.4919599 0.409278,1.4510748 z"
           style="font-size:8.46667px;text-align:center;text-anchor:middle"
           id="path4505" />
        <path
           d="m 38.169847,5.5076224 h 2.116668 V 11.940307 H 39.521703 V 6.1401421 h -1.360124 q -0.409277,0 -0.570508,0.1653647 -0.157096,0.1653646 -0.157096,0.5953127 V 7.310097 h 1.252637 V 7.9012757 H 37.433975 V 11.940307 H 36.669163 V 7.9012757 H 35.941559 V 7.310097 h 0.727604 V 6.987636 q 0,-0.7730798 0.359668,-1.1244796 0.359668,-0.355534 1.141016,-0.355534 z"
           style="font-size:8.46667px;text-align:center;text-anchor:middle"
           id="path4507" />
        <path
           d="m 45.846901,9.4350328 v 0.3720704 h -3.497463 q 0.04961,0.7854818 0.47129,1.1988938 0.425814,0.409277 1.182357,0.409277 0.438216,0 0.847494,-0.107487 0.413411,-0.107487 0.818555,-0.322461 v 0.719337 q -0.409278,0.173632 -0.839226,0.264583 -0.429948,0.09095 -0.872298,0.09095 -1.107944,0 -1.757,-0.644923 -0.644922,-0.644922 -0.644922,-1.7445966 0,-1.136882 0.611849,-1.8024747 0.615984,-0.6697268 1.657781,-0.6697268 0.93431,0 1.475879,0.603581 0.545704,0.5994468 0.545704,1.6329759 z M 45.086223,9.2117905 q -0.0083,-0.6242516 -0.3514,-0.996322 -0.338997,-0.3720705 -0.901237,-0.3720705 -0.636654,0 -1.021127,0.3596681 -0.380338,0.3596682 -0.438216,1.0128585 z"
           style="font-size:8.46667px;text-align:center;text-anchor:middle"
           id="path4509" />
        <path
           d="M 50.427501,7.487864 V 8.198932 Q 50.10504,8.021165 49.778445,7.9343486 49.455984,7.843398 49.125255,7.843398 q -0.740007,0 -1.149285,0.4712893 -0.409277,0.4671551 -0.409277,1.3146489 0,0.8474938 0.409277,1.3187828 0.409278,0.467155 1.149285,0.467155 0.330729,0 0.65319,-0.08682 0.326595,-0.09095 0.649056,-0.268718 v 0.7028 q -0.318327,0.148828 -0.661458,0.223242 -0.338998,0.07442 -0.723471,0.07442 -1.045931,0 -1.661914,-0.657325 -0.615984,-0.657324 -0.615984,-1.7735358 0,-1.1327478 0.620118,-1.7818041 0.624251,-0.6490562 1.70739,-0.6490562 0.3514,0 0.686263,0.074414 0.334863,0.07028 0.649056,0.214974 z"
           style="font-size:8.46667px;text-align:center;text-anchor:middle"
           id="path4511" />
        <path
           d="M 52.511097,5.9954481 V 7.310097 h 1.56683 v 0.5911787 h -1.56683 v 2.5135423 q 0,0.566374 0.152962,0.727605 0.157097,0.16123 0.63252,0.16123 h 0.781348 v 0.636654 h -0.781348 q -0.880567,0 -1.21543,-0.326595 -0.334863,-0.330729 -0.334863,-1.198894 V 7.9012757 H 51.18818 V 7.310097 h 0.558106 V 5.9954481 Z"
           style="font-size:8.46667px;text-align:center;text-anchor:middle"
           id="path4513" />
        <path
           d="m 59.042999,9.4350328 v 0.3720704 h -3.497462 q 0.04961,0.7854818 0.471289,1.1988938 0.425814,0.409277 1.182357,0.409277 0.438216,0 0.847494,-0.107487 0.413412,-0.107487 0.818555,-0.322461 v 0.719337 q -0.409277,0.173632 -0.839226,0.264583 -0.429948,0.09095 -0.872298,0.09095 -1.107943,0 -1.757,-0.644923 -0.644922,-0.644922 -0.644922,-1.7445966 0,-1.136882 0.61185,-1.8024747 0.615983,-0.6697268 1.65778,-0.6697268 0.93431,0 1.47588,0.603581 0.545703,0.5994468 0.545703,1.6329759 z M 58.282322,9.2117905 q -0.0083,-0.6242516 -0.3514,-0.996322 -0.338998,-0.3720705 -0.901238,-0.3720705 -0.636653,0 -1.021126,0.3596681 -0.380339,0.3596682 -0.438217,1.0128585 z"
           style="font-size:8.46667px;text-align:center;text-anchor:middle"
           id="path4515" />
        <path
           d="M 63.338346,8.0128968 V 5.5076224 h 0.760677 v 6.4326846 h -0.760677 v -0.694531 q -0.239779,0.413411 -0.607715,0.615983 -0.363803,0.198438 -0.876433,0.198438 -0.839226,0 -1.368393,-0.669727 -0.525032,-0.669727 -0.525032,-1.7611338 0,-1.0914066 0.525032,-1.7611335 0.529167,-0.6697268 1.368393,-0.6697268 0.51263,0 0.876433,0.2025717 0.367936,0.1984376 0.607715,0.6118492 z m -2.592091,1.6164394 q 0,0.8392258 0.343131,1.3187828 0.347266,0.475424 0.950847,0.475424 0.603581,0 0.950847,-0.475424 0.347266,-0.479557 0.347266,-1.3187828 0,-0.8392256 -0.347266,-1.3146489 -0.347266,-0.4795575 -0.950847,-0.4795575 -0.603581,0 -0.950847,0.4795575 -0.343131,0.4754233 -0.343131,1.3146489 z"
           style="font-size:8.46667px;text-align:center;text-anchor:middle"
           id="path4517" />
        <path
           d="M 72.210162,9.1456446 V 11.940307 H 71.449484 V 9.1704493 q 0,-0.6573244 -0.256315,-0.9839196 -0.256315,-0.3265952 -0.768946,-0.3265952 -0.615983,0 -0.971517,0.392741 -0.355534,0.3927411 -0.355534,1.0707361 v 2.6168954 h -0.764811 v -4.63021 h 0.764811 v 0.7193363 q 0.272852,-0.4175458 0.640788,-0.6242516 0.372071,-0.2067058 0.855762,-0.2067058 0.797885,0 1.207162,0.4960939 0.409278,0.4919599 0.409278,1.4510748 z"
           style="font-size:8.46667px;text-align:center;text-anchor:middle"
           id="path4519" />
        <path
           d="m 75.529854,7.843398 q -0.61185,0 -0.967384,0.4795575 -0.355534,0.4754234 -0.355534,1.3063807 0,0.8309578 0.3514,1.3105148 0.355534,0.475423 0.971518,0.475423 0.607715,0 0.963249,-0.479557 0.355534,-0.479558 0.355534,-1.3063808 0,-0.8226891 -0.355534,-1.3022466 Q 76.137569,7.843398 75.529854,7.843398 Z m 0,-0.6449221 q 0.992187,0 1.558561,0.6449221 0.566374,0.6449222 0.566374,1.7859382 0,1.1368818 -0.566374,1.7859378 -0.566374,0.644923 -1.558561,0.644923 -0.996322,0 -1.562696,-0.644923 -0.56224,-0.649056 -0.56224,-1.7859378 0,-1.141016 0.56224,-1.7859382 0.566374,-0.6449221 1.562696,-0.6449221 z"
           style="font-size:8.46667px;text-align:center;text-anchor:middle"
           id="path4521" />
        <path
           d="M 78.833014,10.113028 V 7.310097 h 0.760677 v 2.773992 q 0,0.657325 0.256315,0.988054 0.256316,0.326595 0.768946,0.326595 0.615983,0 0.971517,-0.392741 0.359668,-0.392741 0.359668,-1.0707362 V 7.310097 h 0.760678 v 4.63021 h -0.760678 v -0.711068 q -0.276985,0.42168 -0.644922,0.628386 -0.363802,0.202572 -0.847494,0.202572 -0.797884,0 -1.211296,-0.496094 -0.413411,-0.496094 -0.413411,-1.451075 z M 80.74711,7.1984759 Z"
           style="font-size:8.46667px;text-align:center;text-anchor:middle"
           id="path4523" />
        <path
           d="M 88.134776,9.1456446 V 11.940307 H 87.374098 V 9.1704493 q 0,-0.6573244 -0.256315,-0.9839196 -0.256315,-0.3265952 -0.768946,-0.3265952 -0.615983,0 -0.971517,0.392741 -0.355534,0.3927411 -0.355534,1.0707361 v 2.6168954 h -0.764811 v -4.63021 h 0.764811 v 0.7193363 q 0.272852,-0.4175458 0.640788,-0.6242516 0.372071,-0.2067058 0.855762,-0.2067058 0.797885,0 1.207162,0.4960939 0.409278,0.4919599 0.409278,1.4510748 z"
           style="font-size:8.46667px;text-align:center;text-anchor:middle"
           id="path4525" />
        <path
           d="m 93.707563,5.7680717 h 0.7028 l -2.149741,6.9577173 h -0.702799 z"
           style="font-size:8.46667px;text-align:center;text-anchor:middle"
           id="path4527" />
        <path
           d="m 45.177175,21.29991 v 2.455665 h -0.764812 v -6.391344 h 0.764812 v 0.7028 q 0.239778,-0.413411 0.603581,-0.611849 0.367936,-0.202572 0.876432,-0.202572 0.84336,0 1.368393,0.669727 0.529167,0.669727 0.529167,1.761134 0,1.091406 -0.529167,1.761133 -0.525033,0.669727 -1.368393,0.669727 -0.508496,0 -0.876432,-0.198438 -0.363803,-0.202571 -0.603581,-0.615983 z m 2.587956,-1.616439 q 0,-0.839226 -0.347265,-1.314649 -0.343132,-0.479558 -0.946713,-0.479558 -0.603581,0 -0.950847,0.479558 -0.343131,0.475423 -0.343131,1.314649 0,0.839225 0.343131,1.318783 0.347266,0.475423 0.950847,0.475423 0.603581,0 0.946713,-0.475423 0.347265,-0.479558 0.347265,-1.318783 z"
           style="font-size:8.46667px;text-align:center;text-anchor:middle"
           id="path4529" />
        <path
           d="m 52.498694,18.075299 q -0.128157,-0.07441 -0.28112,-0.107487 -0.148828,-0.03721 -0.330729,-0.03721 -0.644922,0 -0.992188,0.42168 -0.343131,0.417546 -0.343131,1.203028 v 2.439129 h -0.764812 v -4.630211 h 0.764812 v 0.719337 q 0.239778,-0.42168 0.624251,-0.624252 0.384473,-0.206706 0.93431,-0.206706 0.07855,0 0.173633,0.0124 0.09508,0.0083 0.21084,0.02894 z"
           style="font-size:8.46667px;text-align:center;text-anchor:middle"
           id="path4531" />
        <path
           d="m 54.917153,17.897532 q -0.611849,0 -0.967383,0.479558 -0.355534,0.475423 -0.355534,1.306381 0,0.830957 0.351399,1.310514 0.355534,0.475424 0.971518,0.475424 0.607715,0 0.963249,-0.479558 0.355534,-0.479557 0.355534,-1.30638 0,-0.82269 -0.355534,-1.302247 -0.355534,-0.483692 -0.963249,-0.483692 z m 0,-0.644922 q 0.992188,0 1.558562,0.644922 0.566374,0.644923 0.566374,1.785939 0,1.136882 -0.566374,1.785938 -0.566374,0.644922 -1.558562,0.644922 -0.996322,0 -1.562696,-0.644922 -0.56224,-0.649056 -0.56224,-1.785938 0,-1.141016 0.56224,-1.785939 0.566374,-0.644922 1.562696,-0.644922 z"
           style="font-size:8.46667px;text-align:center;text-anchor:middle"
           id="path4533" />
        <path
           d="m 62.147721,19.199779 v 2.794663 h -0.760677 v -2.769858 q 0,-0.657325 -0.256315,-0.98392 -0.256315,-0.326595 -0.768946,-0.326595 -0.615983,0 -0.971517,0.392741 -0.355534,0.392741 -0.355534,1.070736 v 2.616896 H 58.26992 v -4.630211 h 0.764812 v 0.719337 q 0.272852,-0.417546 0.640788,-0.624252 0.37207,-0.206706 0.855762,-0.206706 0.797884,0 1.207162,0.496094 0.409277,0.49196 0.409277,1.451075 z"
           style="font-size:8.46667px;text-align:center;text-anchor:middle"
           id="path4535" />
        <path
           d="m 65.467417,17.897532 q -0.611849,0 -0.967383,0.479558 -0.355534,0.475423 -0.355534,1.306381 0,0.830957 0.3514,1.310514 0.355534,0.475424 0.971517,0.475424 0.607715,0 0.963249,-0.479558 0.355534,-0.479557 0.355534,-1.30638 0,-0.82269 -0.355534,-1.302247 -0.355534,-0.483692 -0.963249,-0.483692 z m 0,-0.644922 q 0.992188,0 1.558562,0.644922 0.566374,0.644923 0.566374,1.785939 0,1.136882 -0.566374,1.785938 -0.566374,0.644922 -1.558562,0.644922 -0.996322,0 -1.562696,-0.644922 -0.56224,-0.649056 -0.56224,-1.785938 0,-1.141016 0.56224,-1.785939 0.566374,-0.644922 1.562696,-0.644922 z"
           style="font-size:8.46667px;text-align:center;text-anchor:middle"
           id="path4537" />
        <path
           d="m 68.770575,20.167162 v -2.802931 h 0.760678 v 2.773992 q 0,0.657325 0.256315,0.988054 0.256315,0.326595 0.768946,0.326595 0.615983,0 0.971517,-0.392741 0.359668,-0.392741 0.359668,-1.070736 v -2.625164 h 0.760677 v 4.630211 h -0.760677 v -0.711068 q -0.276986,0.421679 -0.644922,0.628385 -0.363802,0.202572 -0.847494,0.202572 -0.797884,0 -1.211296,-0.496094 -0.413412,-0.496094 -0.413412,-1.451075 z m 1.914096,-2.914552 z"
           style="font-size:8.46667px;text-align:center;text-anchor:middle"
           id="path4539" />
        <path
           d="m 78.072337,19.199779 v 2.794663 H 77.31166 v -2.769858 q 0,-0.657325 -0.256315,-0.98392 -0.256316,-0.326595 -0.768946,-0.326595 -0.615983,0 -0.971517,0.392741 -0.355534,0.392741 -0.355534,1.070736 v 2.616896 h -0.764812 v -4.630211 h 0.764812 v 0.719337 q 0.272851,-0.417546 0.640788,-0.624252 0.37207,-0.206706 0.855762,-0.206706 0.797884,0 1.207162,0.496094 0.409277,0.49196 0.409277,1.451075 z"
           style="font-size:8.46667px;text-align:center;text-anchor:middle"
           id="path4541" />
      </g>
      <g
         style="font-style:normal;font-weight:normal;font-size:10.5833px;line-height:1.25;font-family:sans-serif;white-space:pre;shape-inside:url(#rect982);fill:#999999;fill-opacity:1;stroke:none"
         id="text980"
         transform="matrix(0.82417526,0,0,0.82417526,127.75251,22.723474)"
         aria-label="implied 3rd. pers. masc. sing.">
        <path
           id="path1035"
           style="text-align:center;text-anchor:middle;fill:#999999"
           d="m 50.656106,43.693185 h 0.950843 v 5.787742 h -0.950843 z m 0,-2.253085 h 0.950843 v 1.204057 h -0.950843 z" />
        <path
           id="path1037"
           style="text-align:center;text-anchor:middle;fill:#999999"
           d="m 58.097488,44.804225 q 0.356566,-0.640786 0.852658,-0.945676 0.496093,-0.30489 1.167884,-0.30489 0.904335,0 1.395259,0.635618 0.490925,0.630451 0.490925,1.798335 v 3.493315 h -0.956011 v -3.46231 q 0,-0.831988 -0.294555,-1.235063 -0.294555,-0.403074 -0.899167,-0.403074 -0.738971,0 -1.167884,0.490924 -0.428913,0.490925 -0.428913,1.338415 v 3.271108 h -0.956011 v -3.46231 q 0,-0.837155 -0.294554,-1.235063 -0.294555,-0.403074 -0.909503,-0.403074 -0.728635,0 -1.157548,0.496092 -0.428913,0.490924 -0.428913,1.333247 v 3.271108 h -0.956011 v -5.787742 h 0.956011 v 0.899167 q 0.325561,-0.532265 0.780312,-0.785479 0.454751,-0.253214 1.080034,-0.253214 0.63045,0 1.069698,0.320393 0.444416,0.320393 0.656289,0.930173 z" />
        <path
           id="path1039"
           style="text-align:center;text-anchor:middle;fill:#999999"
           d="m 64.825738,48.612766 v 3.06957 h -0.956011 v -7.989151 h 0.956011 v 0.878497 q 0.299722,-0.516763 0.754474,-0.764809 0.459918,-0.253214 1.095536,-0.253214 1.054196,0 1.710485,0.837156 0.661456,0.837155 0.661456,2.201409 0,1.364253 -0.661456,2.201409 -0.656289,0.837155 -1.710485,0.837155 -0.635618,0 -1.095536,-0.248046 -0.454752,-0.253213 -0.754474,-0.769976 z m 3.234934,-2.020542 q 0,-1.049028 -0.43408,-1.643305 -0.428913,-0.599445 -1.183387,-0.599445 -0.754473,0 -1.188554,0.599445 -0.428913,0.594277 -0.428913,1.643305 0,1.049028 0.428913,1.648473 0.434081,0.594277 1.188554,0.594277 0.754474,0 1.183387,-0.594277 0.43408,-0.599445 0.43408,-1.648473 z" />
        <path
           id="path1041"
           style="text-align:center;text-anchor:middle;fill:#999999"
           d="m 70.623814,41.4401 h 0.950843 v 8.040827 h -0.950843 z" />
        <path
           id="path1043"
           style="text-align:center;text-anchor:middle;fill:#999999"
           d="m 73.559027,43.693185 h 0.950844 v 5.787742 h -0.950844 z m 0,-2.253085 h 0.950844 v 1.204057 h -0.950844 z" />
        <path
           id="path1045"
           style="text-align:center;text-anchor:middle;fill:#999999"
           d="m 81.444825,46.349345 v 0.465087 h -4.371812 q 0.06201,0.981849 0.589109,1.498612 0.532266,0.511595 1.477941,0.511595 0.547769,0 1.059364,-0.134359 0.516763,-0.134358 1.02319,-0.403075 v 0.899167 q -0.511595,0.217041 -1.049028,0.330729 -0.537433,0.113687 -1.09037,0.113687 -1.384924,0 -2.196241,-0.806149 -0.80615,-0.80615 -0.80615,-2.180739 0,-1.421097 0.764809,-2.253085 0.769976,-0.837156 2.072218,-0.837156 1.167884,0 1.844843,0.754474 0.682127,0.749306 0.682127,2.041212 z m -0.950843,-0.279051 q -0.01034,-0.780312 -0.439249,-1.245399 -0.423745,-0.465086 -1.126542,-0.465086 -0.795815,0 -1.276404,0.449584 -0.475422,0.449583 -0.547769,1.266068 z" />
        <path
           id="path1047"
           style="text-align:center;text-anchor:middle;fill:#999999"
           d="M 86.813989,44.571682 V 41.4401 h 0.950843 v 8.040827 h -0.950843 v -0.868161 q -0.299723,0.516763 -0.759641,0.769976 -0.454751,0.248046 -1.095537,0.248046 -1.049028,0 -1.710485,-0.837155 -0.656288,-0.837156 -0.656288,-2.201409 0,-1.364254 0.656288,-2.201409 0.661457,-0.837156 1.710485,-0.837156 0.640786,0 1.095537,0.253214 0.459918,0.248046 0.759641,0.764809 z m -3.240102,2.020542 q 0,1.049028 0.428913,1.648473 0.434081,0.594277 1.188554,0.594277 0.754474,0 1.188554,-0.594277 0.434081,-0.599445 0.434081,-1.648473 0,-1.049028 -0.434081,-1.643305 -0.43408,-0.599445 -1.188554,-0.599445 -0.754473,0 -1.188554,0.599445 -0.428913,0.594277 -0.428913,1.643305 z" />
        <path
           id="path1049"
           style="text-align:center;text-anchor:middle;fill:#999999"
           d="m 48.061957,58.550114 q 0.749306,0.160196 1.167884,0.666623 0.423745,0.506428 0.423745,1.250566 0,1.142046 -0.785479,1.767329 -0.78548,0.625282 -2.232415,0.625282 -0.485757,0 -1.00252,-0.09819 -0.511595,-0.09302 -1.059363,-0.284219 v -1.007687 q 0.434081,0.253213 0.950843,0.382404 0.516763,0.129191 1.080034,0.129191 0.981849,0 1.493444,-0.387572 0.516763,-0.387572 0.516763,-1.126543 0,-0.682127 -0.480589,-1.064531 Q 47.658882,59.0152 46.806224,59.0152 h -0.899167 v -0.857826 h 0.940508 q 0.769976,0 1.178219,-0.30489 0.408242,-0.310058 0.408242,-0.888832 0,-0.594277 -0.423745,-0.909502 -0.418578,-0.320393 -1.204057,-0.320393 -0.428913,0 -0.919838,0.09302 -0.490924,0.09302 -1.080034,0.289387 v -0.930172 q 0.594277,-0.165364 1.11104,-0.248046 0.52193,-0.08268 0.981849,-0.08268 1.188554,0 1.881016,0.542601 0.692462,0.537433 0.692462,1.457271 0,0.640786 -0.366901,1.085202 -0.366902,0.439248 -1.043861,0.60978 z" />
        <path
           id="path1051"
           style="text-align:center;text-anchor:middle;fill:#999999"
           d="m 54.857386,57.811143 q -0.160196,-0.09302 -0.351398,-0.134358 -0.186035,-0.04651 -0.41341,-0.04651 -0.80615,0 -1.240231,0.527098 -0.428913,0.52193 -0.428913,1.503779 v 3.0489 H 51.467423 V 56.92231 h 0.956011 v 0.899167 q 0.299722,-0.527098 0.780312,-0.780311 0.480589,-0.258382 1.167883,-0.258382 0.09819,0 0.217041,0.0155 0.118855,0.01033 0.263549,0.03617 z" />
        <path
           id="path1053"
           style="text-align:center;text-anchor:middle;fill:#999999"
           d="m 59.48758,57.800808 v -3.131582 h 0.950843 v 8.040827 H 59.48758 v -0.868161 q -0.299722,0.516763 -0.759641,0.769976 -0.454751,0.248046 -1.095537,0.248046 -1.049028,0 -1.710484,-0.837155 -0.656289,-0.837156 -0.656289,-2.201409 0,-1.364254 0.656289,-2.201409 0.661456,-0.837156 1.710484,-0.837156 0.640786,0 1.095537,0.253214 0.459919,0.248046 0.759641,0.764809 z m -3.240102,2.020542 q 0,1.049028 0.428913,1.648473 0.434081,0.594277 1.188554,0.594277 0.754474,0 1.188554,-0.594277 0.434081,-0.599445 0.434081,-1.648473 0,-1.049028 -0.434081,-1.643305 -0.43408,-0.599445 -1.188554,-0.599445 -0.754473,0 -1.188554,0.599445 -0.428913,0.594277 -0.428913,1.643305 z" />
        <path
           id="path1055"
           style="text-align:center;text-anchor:middle;fill:#999999"
           d="m 62.531312,61.397476 h 1.090369 v 1.312577 h -1.090369 z" />
        <path
           id="path1057"
           style="text-align:center;text-anchor:middle;fill:#999999"
           d="m 70.055376,61.841892 v 3.06957 h -0.956011 v -7.989151 h 0.956011 v 0.878497 q 0.299722,-0.516763 0.754473,-0.764809 0.459919,-0.253214 1.095537,-0.253214 1.054196,0 1.710485,0.837156 0.661456,0.837155 0.661456,2.201409 0,1.364253 -0.661456,2.201409 -0.656289,0.837155 -1.710485,0.837155 -0.635618,0 -1.095537,-0.248046 -0.454751,-0.253213 -0.754473,-0.769976 z M 73.29031,59.82135 q 0,-1.049028 -0.43408,-1.643305 -0.428913,-0.599445 -1.183387,-0.599445 -0.754473,0 -1.188554,0.599445 -0.428913,0.594277 -0.428913,1.643305 0,1.049028 0.428913,1.648473 0.434081,0.594277 1.188554,0.594277 0.754474,0 1.183387,-0.594277 0.43408,-0.599445 0.43408,-1.648473 z" />
        <path
           id="path1059"
           style="text-align:center;text-anchor:middle;fill:#999999"
           d="m 80.804039,59.578471 v 0.465087 h -4.371812 q 0.06201,0.981849 0.58911,1.498612 0.532265,0.511595 1.477941,0.511595 0.547768,0 1.059363,-0.134359 0.516763,-0.134358 1.02319,-0.403075 v 0.899167 q -0.511595,0.217041 -1.049028,0.330729 -0.537433,0.113687 -1.090369,0.113687 -1.384924,0 -2.196241,-0.806149 -0.80615,-0.80615 -0.80615,-2.180739 0,-1.421097 0.764809,-2.253085 0.769976,-0.837156 2.072218,-0.837156 1.167884,0 1.844843,0.754474 0.682126,0.749306 0.682126,2.041212 z M 79.853196,59.29942 q -0.01033,-0.780312 -0.439248,-1.245399 -0.423746,-0.465086 -1.126543,-0.465086 -0.795814,0 -1.276404,0.449584 -0.475421,0.449583 -0.547768,1.266068 z" />
        <path
           id="path1061"
           style="text-align:center;text-anchor:middle;fill:#999999"
           d="m 85.718452,57.811143 q -0.160196,-0.09302 -0.351398,-0.134358 -0.186035,-0.04651 -0.413411,-0.04651 -0.806149,0 -1.24023,0.527098 -0.428913,0.52193 -0.428913,1.503779 v 3.0489 H 82.328489 V 56.922311 H 83.2845 v 0.899167 q 0.299722,-0.527098 0.780312,-0.780311 0.480589,-0.258382 1.167883,-0.258382 0.09818,0 0.217041,0.0155 0.118855,0.01033 0.263549,0.03617 z" />
        <path
           id="path1063"
           style="text-align:center;text-anchor:middle;fill:#999999"
           d="M 90.415825,57.092843 V 57.99201 Q 90.01275,57.785305 89.578669,57.681952 89.144589,57.5786 88.679502,57.5786 q -0.707965,0 -1.064531,0.21704 -0.351399,0.21704 -0.351399,0.651121 0,0.330728 0.253214,0.52193 0.253214,0.186035 1.018023,0.356567 l 0.32556,0.07235 q 1.012855,0.217041 1.4366,0.614948 0.428913,0.39274 0.428913,1.100705 0,0.806149 -0.640785,1.276403 -0.635618,0.470254 -1.751826,0.470254 -0.465086,0 -0.971514,-0.09302 -0.501259,-0.08785 -1.059363,-0.268717 v -0.981849 q 0.527098,0.273885 1.038693,0.413411 0.511595,0.134358 1.012855,0.134358 0.671791,0 1.033525,-0.227376 0.361734,-0.232543 0.361734,-0.651121 0,-0.387572 -0.263549,-0.594277 -0.258381,-0.206705 -1.142046,-0.397907 l -0.330728,-0.07751 q -0.883664,-0.186035 -1.276403,-0.568439 -0.39274,-0.387572 -0.39274,-1.059364 0,-0.816485 0.578774,-1.260901 0.578774,-0.444416 1.643305,-0.444416 0.527098,0 0.992185,0.07752 0.465086,0.07751 0.857826,0.232543 z" />
        <path
           id="path1065"
           style="text-align:center;text-anchor:middle;fill:#999999"
           d="m 92.379525,61.397476 h 1.09037 v 1.312577 h -1.09037 z" />
        <path
           id="path1067"
           style="text-align:center;text-anchor:middle;fill:#999999"
           d="m 44.620317,71.262477 q 0.356567,-0.640786 0.852659,-0.945676 0.496092,-0.30489 1.167884,-0.30489 0.904334,0 1.395259,0.635618 0.490924,0.630451 0.490924,1.798334 v 3.493316 h -0.956011 v -3.46231 q 0,-0.831988 -0.294554,-1.235063 -0.294555,-0.403074 -0.899167,-0.403074 -0.738971,0 -1.167884,0.490924 -0.428913,0.490925 -0.428913,1.338415 v 3.271108 h -0.956011 v -3.46231 q 0,-0.837155 -0.294555,-1.235063 -0.294554,-0.403074 -0.909502,-0.403074 -0.728635,0 -1.157548,0.496092 -0.428913,0.490924 -0.428913,1.333247 v 3.271108 h -0.956011 v -5.787742 h 0.956011 v 0.899167 q 0.32556,-0.532265 0.780311,-0.785479 0.454751,-0.253214 1.080034,-0.253214 0.630451,0 1.069699,0.320393 0.444416,0.320393 0.656288,0.930173 z" />
        <path
           id="path1069"
           style="text-align:center;text-anchor:middle;fill:#999999"
           d="m 53.059052,73.029805 q -1.152381,0 -1.596797,0.263549 -0.444416,0.263549 -0.444416,0.899167 0,0.506428 0.330728,0.80615 0.335896,0.294555 0.909503,0.294555 0.790647,0 1.266068,-0.558104 0.480589,-0.563271 0.480589,-1.493444 v -0.211873 z m 1.896519,-0.392739 v 3.302113 h -0.950844 v -0.878496 q -0.32556,0.527098 -0.811317,0.780311 -0.485757,0.248046 -1.188554,0.248046 -0.888832,0 -1.41593,-0.496092 -0.52193,-0.50126 -0.52193,-1.338415 0,-0.976682 0.651121,-1.472774 0.656288,-0.496092 1.953363,-0.496092 h 1.333247 v -0.09302 q 0,-0.656289 -0.43408,-1.012855 -0.428913,-0.361734 -1.209225,-0.361734 -0.496092,0 -0.966346,0.118855 -0.470254,0.118856 -0.904335,0.356567 v -0.878497 q 0.521931,-0.201537 1.012855,-0.299722 0.490925,-0.103353 0.956011,-0.103353 1.255733,0 1.875849,0.651121 0.620115,0.651121 0.620115,1.974034 z" />
        <path
           id="path1071"
           style="text-align:center;text-anchor:middle;fill:#999999"
           d="m 60.608955,70.321969 v 0.899167 q -0.403075,-0.206705 -0.837156,-0.310058 -0.43408,-0.103352 -0.899167,-0.103352 -0.707965,0 -1.064531,0.21704 -0.351398,0.21704 -0.351398,0.651121 0,0.330728 0.253213,0.52193 0.253214,0.186035 1.018023,0.356567 l 0.32556,0.07235 q 1.012855,0.217041 1.4366,0.614948 0.428913,0.39274 0.428913,1.100704 0,0.80615 -0.640785,1.276404 -0.635618,0.470254 -1.751826,0.470254 -0.465086,0 -0.971514,-0.09302 -0.501259,-0.08785 -1.059363,-0.268717 v -0.981849 q 0.527098,0.273885 1.038693,0.413411 0.511595,0.134358 1.012855,0.134358 0.671791,0 1.033525,-0.227376 0.361734,-0.232543 0.361734,-0.651121 0,-0.387572 -0.263549,-0.594277 -0.258381,-0.206705 -1.142045,-0.397907 l -0.330729,-0.07751 q -0.883664,-0.186035 -1.276403,-0.568439 -0.39274,-0.387572 -0.39274,-1.059364 0,-0.816485 0.578774,-1.260901 0.578774,-0.444416 1.643305,-0.444416 0.527098,0 0.992185,0.07752 0.465086,0.07751 0.857826,0.232543 z" />
        <path
           id="path1073"
           style="text-align:center;text-anchor:middle;fill:#999999"
           d="m 66.6034,70.373645 v 0.888832 q -0.403074,-0.222208 -0.811317,-0.330728 -0.403075,-0.113688 -0.816485,-0.113688 -0.925005,0 -1.4366,0.589109 -0.511595,0.583942 -0.511595,1.643306 0,1.059363 0.511595,1.648473 0.511595,0.583942 1.4366,0.583942 0.41341,0 0.816485,-0.108521 0.408243,-0.113687 0.811317,-0.335895 v 0.878496 q -0.397907,0.186035 -0.82682,0.279052 -0.423745,0.09302 -0.904335,0.09302 -1.307409,0 -2.077386,-0.821652 -0.769976,-0.821653 -0.769976,-2.216912 0,-1.41593 0.775144,-2.227247 0.780312,-0.811318 2.13423,-0.811318 0.439248,0 0.857826,0.09302 0.418578,0.08785 0.811317,0.268716 z" />
        <path
           id="path1075"
           style="text-align:center;text-anchor:middle;fill:#999999"
           d="m 68.401736,74.626602 h 1.090369 v 1.312577 h -1.090369 z" />
        <path
           id="path1077"
           style="text-align:center;text-anchor:middle;fill:#999999"
           d="m 78.695648,70.321969 v 0.899167 q -0.403075,-0.206705 -0.837156,-0.310058 -0.434081,-0.103352 -0.899167,-0.103352 -0.707965,0 -1.064531,0.21704 -0.351399,0.21704 -0.351399,0.651121 0,0.330728 0.253214,0.52193 0.253214,0.186035 1.018023,0.356567 l 0.32556,0.07235 q 1.012855,0.217041 1.4366,0.614948 0.428913,0.39274 0.428913,1.100704 0,0.80615 -0.640785,1.276404 -0.635619,0.470254 -1.751826,0.470254 -0.465086,0 -0.971514,-0.09302 -0.50126,-0.08785 -1.059363,-0.268717 v -0.981849 q 0.527098,0.273885 1.038693,0.413411 0.511595,0.134358 1.012855,0.134358 0.671791,0 1.033525,-0.227376 0.361734,-0.232543 0.361734,-0.651121 0,-0.387572 -0.263549,-0.594277 -0.258382,-0.206705 -1.142046,-0.397907 l -0.330728,-0.07751 q -0.883664,-0.186035 -1.276404,-0.568439 -0.392739,-0.387572 -0.392739,-1.059364 0,-0.816485 0.578774,-1.260901 0.578774,-0.444416 1.643305,-0.444416 0.527098,0 0.992185,0.07752 0.465086,0.07751 0.857826,0.232543 z" />
        <path
           id="path1079"
           style="text-align:center;text-anchor:middle;fill:#999999"
           d="m 80.52499,70.151437 h 0.950843 v 5.787742 H 80.52499 Z m 0,-2.253085 h 0.950843 v 1.204057 H 80.52499 Z" />
        <path
           id="path1081"
           style="text-align:center;text-anchor:middle;fill:#999999"
           d="m 88.271262,72.445863 v 3.493316 h -0.950844 v -3.46231 q 0,-0.821652 -0.320393,-1.229895 -0.320392,-0.408242 -0.961178,-0.408242 -0.769977,0 -1.214393,0.490924 -0.444415,0.490925 -0.444415,1.338415 v 3.271108 h -0.956011 v -5.787742 h 0.956011 v 0.899167 q 0.341063,-0.52193 0.800982,-0.780311 0.465086,-0.258382 1.069698,-0.258382 0.997352,0 1.508947,0.620115 0.511596,0.614948 0.511596,1.813837 z" />
        <path
           id="path1083"
           style="text-align:center;text-anchor:middle;fill:#999999"
           d="m 93.986657,72.978129 q 0,-1.033525 -0.428913,-1.601964 -0.423746,-0.568439 -1.193722,-0.568439 -0.764809,0 -1.193722,0.568439 -0.423745,0.568439 -0.423745,1.601964 0,1.028358 0.423745,1.596797 0.428913,0.568439 1.193722,0.568439 0.769976,0 1.193722,-0.568439 0.428913,-0.568439 0.428913,-1.596797 z m 0.950843,2.24275 q 0,1.477941 -0.656289,2.196241 -0.656288,0.723468 -2.010207,0.723468 -0.501259,0 -0.945675,-0.07751 -0.444416,-0.07235 -0.862994,-0.227376 v -0.925005 q 0.418578,0.227376 0.82682,0.335896 0.408243,0.10852 0.831988,0.10852 0.935341,0 1.400427,-0.490925 0.465087,-0.485757 0.465087,-1.472773 v -0.470254 q -0.294555,0.511595 -0.754474,0.764808 -0.459919,0.253214 -1.100704,0.253214 -1.064532,0 -1.715653,-0.811317 -0.651121,-0.811318 -0.651121,-2.149733 0,-1.343583 0.651121,-2.1549 0.651121,-0.811318 1.715653,-0.811318 0.640785,0 1.100704,0.253214 0.459919,0.253214 0.754474,0.764809 V 70.151437 H 94.9375 Z" />
        <path
           id="path1085"
           style="text-align:center;text-anchor:middle;fill:#999999"
           d="m 97.030388,74.626602 h 1.09037 v 1.312577 h -1.09037 z" />
      </g>
      <path
         sodipodi:nodetypes="cccc"
         id="path1169-1"
         d="m 154.51473,89.585299 9.34226,9.289855 h 40.1026 L 213.549,89.28574"
         style="fill:none;stroke:#808080;stroke-width:0.964999;stroke-linecap:butt;stroke-linejoin:miter;stroke-miterlimit:4;stroke-dasharray:none;stroke-opacity:1" />
      <g
         style="font-style:normal;font-weight:normal;font-size:10.5833px;line-height:1.25;font-family:sans-serif;white-space:pre;shape-inside:url(#rect1354);fill:#808080;fill-opacity:1;stroke:none"
         id="text1352"
         transform="translate(131.61628,-14.422261)"
         aria-label="object">
        <path
           style="fill:#808080"
           id="path4403"
           d="m 39.076039,122.71137 q -0.764808,0 -1.209224,0.59945 -0.444416,0.59427 -0.444416,1.63297 0,1.03869 0.439248,1.63813 0.444416,0.59428 1.214392,0.59428 0.759642,0 1.204058,-0.59944 0.444415,-0.59945 0.444415,-1.63297 0,-1.02836 -0.444415,-1.62781 -0.444416,-0.60461 -1.204058,-0.60461 z m 0,-0.80615 q 1.240231,0 1.948196,0.80615 0.707965,0.80615 0.707965,2.23242 0,1.42109 -0.707965,2.23241 -0.707965,0.80615 -1.948196,0.80615 -1.245398,0 -1.953362,-0.80615 -0.702798,-0.81132 -0.702798,-2.23241 0,-1.42627 0.702798,-2.23242 0.707964,-0.80615 1.953362,-0.80615 z" />
        <path
           style="fill:#808080"
           id="path4405"
           d="m 47.45793,124.94379 q 0,-1.04903 -0.434081,-1.64331 -0.428913,-0.59944 -1.183386,-0.59944 -0.754474,0 -1.188554,0.59944 -0.428913,0.59428 -0.428913,1.64331 0,1.04902 0.428913,1.64847 0.43408,0.59428 1.188554,0.59428 0.754473,0 1.183386,-0.59428 0.434081,-0.59945 0.434081,-1.64847 z m -3.234934,-2.02055 q 0.299722,-0.51676 0.754473,-0.7648 0.459919,-0.25322 1.095537,-0.25322 1.054196,0 1.710485,0.83716 0.661456,0.83715 0.661456,2.20141 0,1.36425 -0.661456,2.20141 -0.656289,0.83715 -1.710485,0.83715 -0.635618,0 -1.095537,-0.24805 -0.454751,-0.25321 -0.754473,-0.76997 v 0.86816 h -0.956011 v -8.04083 h 0.956011 z" />
        <path
           style="fill:#808080"
           id="path4407"
           d="m 50.021073,122.04475 h 0.950843 v 5.89109 q 0,1.10587 -0.423745,1.60197 -0.418578,0.49609 -1.353919,0.49609 h -0.361733 v -0.80615 h 0.253213 q 0.542601,0 0.738971,-0.25321 0.19637,-0.24805 0.19637,-1.0387 z m 0,-2.25309 h 0.950843 v 1.20406 h -0.950843 z" />
        <path
           style="fill:#808080"
           id="path4409"
           d="m 57.906871,124.70091 v 0.46508 h -4.371812 q 0.06201,0.98185 0.589109,1.49862 0.532266,0.51159 1.477942,0.51159 0.547768,0 1.059363,-0.13436 0.516763,-0.13436 1.02319,-0.40307 v 0.89916 q -0.511595,0.21705 -1.049028,0.33073 -0.537433,0.11369 -1.090369,0.11369 -1.384924,0 -2.196242,-0.80615 -0.806149,-0.80615 -0.806149,-2.18074 0,-1.42109 0.764808,-2.25308 0.769977,-0.83716 2.072219,-0.83716 1.167883,0 1.844843,0.75448 0.682126,0.7493 0.682126,2.04121 z m -0.950843,-0.27905 q -0.01034,-0.78032 -0.439248,-1.2454 -0.423746,-0.46509 -1.126543,-0.46509 -0.795814,0 -1.276404,0.44959 -0.475421,0.44958 -0.547768,1.26606 z" />
        <path
           style="fill:#808080"
           id="path4411"
           d="m 63.632602,122.26696 v 0.88883 q -0.403075,-0.22221 -0.811318,-0.33073 -0.403075,-0.11369 -0.816485,-0.11369 -0.925005,0 -1.4366,0.58911 -0.511595,0.58394 -0.511595,1.64331 0,1.05936 0.511595,1.64847 0.511595,0.58394 1.4366,0.58394 0.41341,0 0.816485,-0.10852 0.408243,-0.11369 0.811318,-0.33589 v 0.87849 q -0.397908,0.18604 -0.826821,0.27905 -0.423745,0.093 -0.904334,0.093 -1.30741,0 -2.077386,-0.82165 -0.769977,-0.82165 -0.769977,-2.21691 0,-1.41593 0.775144,-2.22725 0.780312,-0.81132 2.13423,-0.81132 0.439248,0 0.857826,0.093 0.418578,0.0879 0.811318,0.26872 z" />
        <path
           style="fill:#808080"
           id="path4413"
           d="m 66.237085,120.40144 v 1.64331 h 1.95853 v 0.73897 h -1.95853 v 3.14192 q 0,0.70796 0.191202,0.9095 0.19637,0.20154 0.790647,0.20154 h 0.976681 v 0.79581 h -0.976681 q -1.100705,0 -1.519282,-0.40824 -0.418578,-0.41341 -0.418578,-1.49861 v -3.14192 h -0.69763 v -0.73897 h 0.69763 v -1.64331 z" />
      </g>
    </g>
    <text
       xml:space="preserve"
       id="text1371"
       style="font-style:normal;font-weight:normal;font-size:10.5833px;line-height:1.25;font-family:sans-serif;white-space:pre;shape-inside:url(#rect1373);fill:#000000;fill-opacity:1;stroke:none;"
       transform="translate(5.342511,1.1060936)" />
    <g
       style="font-style:normal;font-weight:normal;font-size:8.46667px;line-height:1.25;font-family:sans-serif;white-space:pre;shape-inside:url(#rect1385);fill:#000000;fill-opacity:1;stroke:none"
       id="text1383"
       transform="matrix(0.91075878,0,0,0.91075878,-60.316824,112.33249)"
       aria-label="or">
      <path
         id="path3493"
         style="shape-inside:url(#rect1385)"
         d="m 41.924122,-39.945734 q -0.611849,0 -0.967383,0.479557 -0.355534,0.475424 -0.355534,1.306381 0,0.830957 0.3514,1.310515 0.355534,0.475423 0.971517,0.475423 0.607715,0 0.963249,-0.479557 0.355534,-0.479558 0.355534,-1.306381 0,-0.822689 -0.355534,-1.302247 -0.355534,-0.483691 -0.963249,-0.483691 z m 0,-0.644922 q 0.992188,0 1.558562,0.644922 0.566374,0.644922 0.566374,1.785938 0,1.136882 -0.566374,1.785938 -0.566374,0.644922 -1.558562,0.644922 -0.996322,0 -1.562696,-0.644922 -0.56224,-0.649056 -0.56224,-1.785938 0,-1.141016 0.56224,-1.785938 0.566374,-0.644922 1.562696,-0.644922 z" />
      <path
         id="path3495"
         style="shape-inside:url(#rect1385)"
         d="m 47.98887,-39.767967 q -0.128157,-0.07441 -0.281119,-0.107487 -0.148829,-0.03721 -0.33073,-0.03721 -0.644922,0 -0.992188,0.421679 -0.343131,0.417546 -0.343131,1.203028 v 2.439129 H 45.27689 v -4.63021 h 0.764812 v 0.719336 q 0.239778,-0.42168 0.624251,-0.624252 0.384473,-0.206705 0.934311,-0.206705 0.07855,0 0.173632,0.0124 0.09508,0.0083 0.21084,0.02894 z" />
    </g>
    <g
       style="font-style:normal;font-weight:normal;font-size:10.5833px;line-height:0.85;font-family:sans-serif;white-space:pre;shape-inside:url(#rect1391);fill:#000000;fill-opacity:1;stroke:none"
       id="text1389"
       transform="matrix(0.91075878,0,0,0.91075878,-49.155624,146.73253)"
       aria-label="enclitic (mini) pronoun">
      <path
         id="path3498"
         style="font-size:8.46667px;text-align:center;text-anchor:middle"
         d="m 7.5745021,-65.810929 v 0.372071 H 4.0770398 q 0.049609,0.785482 0.4712892,1.198893 0.425814,0.409278 1.1823573,0.409278 0.4382163,0 0.8474938,-0.107487 0.4134116,-0.107487 0.818555,-0.322461 v 0.719336 q -0.4092775,0.173633 -0.8392256,0.264583 -0.4299481,0.09095 -0.8722985,0.09095 -1.1079432,0 -1.7569994,-0.644922 -0.6449222,-0.644922 -0.6449222,-1.744597 0,-1.136882 0.6118492,-1.802475 0.6159834,-0.669727 1.6577807,-0.669727 0.9343102,0 1.4758794,0.603581 0.5457034,0.599447 0.5457034,1.632977 z m -0.7606774,-0.223242 q -0.00827,-0.624252 -0.3513999,-0.996322 -0.3389975,-0.372071 -0.9012373,-0.372071 -0.6366539,0 -1.0211267,0.359668 -0.3803387,0.359669 -0.4382163,1.012859 z" />
      <path
         id="path3500"
         style="font-size:8.46667px;text-align:center;text-anchor:middle"
         d="m 12.671867,-66.100317 v 2.794663 H 11.91119 v -2.769858 q 0,-0.657325 -0.256315,-0.98392 -0.256316,-0.326595 -0.768946,-0.326595 -0.615983,0 -0.9715173,0.392741 -0.355534,0.392741 -0.355534,1.070736 v 2.616896 H 8.7940662 v -4.630211 h 0.7648115 v 0.719337 q 0.2728517,-0.417546 0.6407883,-0.624252 0.37207,-0.206706 0.855762,-0.206706 0.797884,0 1.207162,0.496094 0.409277,0.49196 0.409277,1.451075 z" />
      <path
         id="path3502"
         style="font-size:8.46667px;text-align:center;text-anchor:middle"
         d="m 17.529454,-67.758098 v 0.711068 q -0.322461,-0.177767 -0.649056,-0.264583 -0.322461,-0.09095 -0.65319,-0.09095 -0.740007,0 -1.149285,0.47129 -0.409277,0.467155 -0.409277,1.314649 0,0.847493 0.409277,1.318783 0.409278,0.467155 1.149285,0.467155 0.330729,0 0.65319,-0.08682 0.326595,-0.09095 0.649056,-0.268717 v 0.7028 q -0.318327,0.148828 -0.661458,0.223242 -0.338998,0.07441 -0.723471,0.07441 -1.045931,0 -1.661914,-0.657325 -0.615984,-0.657324 -0.615984,-1.773535 0,-1.132748 0.620118,-1.781805 0.624251,-0.649056 1.70739,-0.649056 0.3514,0 0.686263,0.07441 0.334863,0.07028 0.649056,0.214974 z" />
      <path
         id="path3504"
         style="font-size:8.46667px;text-align:center;text-anchor:middle"
         d="m 18.860639,-69.738339 h 0.760677 v 6.432685 h -0.760677 z" />
      <path
         id="path3506"
         style="font-size:8.46667px;text-align:center;text-anchor:middle"
         d="m 21.208818,-67.935865 h 0.760677 v 4.630211 h -0.760677 z m 0,-1.802474 h 0.760677 v 0.963249 h -0.760677 z" />
      <path
         id="path3508"
         style="font-size:8.46667px;text-align:center;text-anchor:middle"
         d="m 24.309404,-69.250514 v 1.314649 h 1.56683 v 0.591179 h -1.56683 v 2.513543 q 0,0.566374 0.152962,0.727604 0.157097,0.161231 0.63252,0.161231 h 0.781348 v 0.636654 h -0.781348 q -0.880567,0 -1.21543,-0.326596 -0.334864,-0.330729 -0.334864,-1.198893 v -2.513543 h -0.558105 v -0.591179 h 0.558105 v -1.314649 z" />
      <path
         id="path3510"
         style="font-size:8.46667px;text-align:center;text-anchor:middle"
         d="m 26.880824,-67.935865 h 0.760678 v 4.630211 h -0.760678 z m 0,-1.802474 h 0.760678 v 0.963249 h -0.760678 z" />
      <path
         id="path3512"
         style="font-size:8.46667px;text-align:center;text-anchor:middle"
         d="m 32.561099,-67.758098 v 0.711068 q -0.322461,-0.177767 -0.649056,-0.264583 -0.322461,-0.09095 -0.653191,-0.09095 -0.740006,0 -1.149284,0.47129 -0.409277,0.467155 -0.409277,1.314649 0,0.847493 0.409277,1.318783 0.409278,0.467155 1.149284,0.467155 0.33073,0 0.653191,-0.08682 0.326595,-0.09095 0.649056,-0.268717 v 0.7028 q -0.318327,0.148828 -0.661459,0.223242 -0.338997,0.07441 -0.72347,0.07441 -1.045931,0 -1.661915,-0.657325 -0.615983,-0.657324 -0.615983,-1.773535 0,-1.132748 0.620117,-1.781805 0.624252,-0.649056 1.70739,-0.649056 0.3514,0 0.686264,0.07441 0.334863,0.07028 0.649056,0.214974 z" />
      <path
         id="path3514"
         style="font-size:8.46667px;text-align:center;text-anchor:middle"
         d="m 38.415007,-69.730071 q -0.553971,0.950847 -0.822689,1.881023 -0.268717,0.930176 -0.268717,1.885157 0,0.954981 0.268717,1.893425 0.272852,0.93431 0.822689,1.881023 h -0.661458 q -0.620118,-0.971517 -0.930177,-1.909962 -0.305924,-0.938444 -0.305924,-1.864486 0,-0.921908 0.305924,-1.856218 0.305925,-0.934311 0.930177,-1.909962 z" />
      <path
         id="path3516"
         style="font-size:8.46667px;text-align:center;text-anchor:middle"
         d="m 43.49997,-67.04703 q 0.285254,-0.51263 0.682129,-0.756543 0.396875,-0.243913 0.934311,-0.243913 0.72347,0 1.116211,0.508497 0.392741,0.504362 0.392741,1.438672 v 2.794663 h -0.764811 v -2.769858 q 0,-0.665593 -0.235645,-0.988054 -0.235645,-0.322461 -0.719336,-0.322461 -0.591179,0 -0.934311,0.392741 -0.343131,0.392741 -0.343131,1.070736 v 2.616896 h -0.764812 v -2.769858 q 0,-0.669727 -0.235644,-0.988054 -0.235645,-0.322461 -0.727605,-0.322461 -0.58291,0 -0.926042,0.396875 -0.343132,0.392741 -0.343132,1.066602 v 2.616896 h -0.764811 v -4.630211 h 0.764811 v 0.719337 q 0.26045,-0.425814 0.624252,-0.628386 0.363802,-0.202572 0.86403,-0.202572 0.504362,0 0.855762,0.256315 0.355534,0.256316 0.525033,0.744141 z" />
      <path
         id="path3518"
         style="font-size:8.46667px;text-align:center;text-anchor:middle"
         d="m 48.146718,-67.935865 h 0.760678 v 4.630211 h -0.760678 z m 0,-1.802474 h 0.760678 v 0.963249 h -0.760678 z" />
      <path
         id="path3520"
         style="font-size:8.46667px;text-align:center;text-anchor:middle"
         d="m 54.343756,-66.100317 v 2.794663 h -0.760678 v -2.769858 q 0,-0.657325 -0.256315,-0.98392 -0.256315,-0.326595 -0.768946,-0.326595 -0.615983,0 -0.971517,0.392741 -0.355534,0.392741 -0.355534,1.070736 v 2.616896 h -0.764811 v -4.630211 h 0.764811 v 0.719337 q 0.272852,-0.417546 0.640788,-0.624252 0.372071,-0.206706 0.855762,-0.206706 0.797885,0 1.207162,0.496094 0.409278,0.49196 0.409278,1.451075 z" />
      <path
         id="path3522"
         style="font-size:8.46667px;text-align:center;text-anchor:middle"
         d="m 55.869245,-67.935865 h 0.760677 v 4.630211 h -0.760677 z m 0,-1.802474 h 0.760677 v 0.963249 h -0.760677 z" />
      <path
         id="path3524"
         style="font-size:8.46667px;text-align:center;text-anchor:middle"
         d="m 58.097534,-69.730071 h 0.661459 q 0.620117,0.975651 0.926042,1.909962 0.310059,0.93431 0.310059,1.856218 0,0.926042 -0.310059,1.864486 -0.305925,0.938445 -0.926042,1.909962 h -0.661459 q 0.549838,-0.946713 0.818555,-1.881023 0.272852,-0.938444 0.272852,-1.893425 0,-0.954981 -0.272852,-1.885157 -0.268717,-0.930176 -0.818555,-1.881023 z" />
      <path
         id="path3526"
         style="font-size:8.46667px;text-align:center;text-anchor:middle"
         d="m 15.726979,-55.004382 v 2.455665 h -0.764811 v -6.391344 h 0.764811 v 0.7028 q 0.239779,-0.413412 0.603581,-0.611849 0.367937,-0.202572 0.876433,-0.202572 0.84336,0 1.368392,0.669727 0.529167,0.669727 0.529167,1.761133 0,1.091407 -0.529167,1.761134 -0.525032,0.669727 -1.368392,0.669727 -0.508496,0 -0.876433,-0.198438 -0.363802,-0.202572 -0.603581,-0.615983 z m 2.587957,-1.61644 q 0,-0.839225 -0.347266,-1.314649 -0.343131,-0.479557 -0.946712,-0.479557 -0.603581,0 -0.950847,0.479557 -0.343132,0.475424 -0.343132,1.314649 0,0.839226 0.343132,1.318783 0.347266,0.475424 0.950847,0.475424 0.603581,0 0.946712,-0.475424 0.347266,-0.479557 0.347266,-1.318783 z" />
      <path
         id="path3528"
         style="font-size:8.46667px;text-align:center;text-anchor:middle"
         d="m 23.048499,-58.228993 q -0.128158,-0.07441 -0.28112,-0.107487 -0.148828,-0.03721 -0.330729,-0.03721 -0.644922,0 -0.992188,0.42168 -0.343132,0.417546 -0.343132,1.203028 v 2.439128 h -0.764811 v -4.63021 h 0.764811 v 0.719336 q 0.239779,-0.421679 0.624252,-0.624251 0.384473,-0.206706 0.93431,-0.206706 0.07855,0 0.173633,0.0124 0.09508,0.0083 0.21084,0.02894 z" />
      <path
         id="path3530"
         style="font-size:8.46667px;text-align:center;text-anchor:middle"
         d="m 25.466957,-58.40676 q -0.611849,0 -0.967383,0.479558 -0.355534,0.475423 -0.355534,1.30638 0,0.830958 0.3514,1.310515 0.355534,0.475424 0.971517,0.475424 0.607716,0 0.96325,-0.479558 0.355534,-0.479557 0.355534,-1.306381 0,-0.822689 -0.355534,-1.302246 -0.355534,-0.483692 -0.96325,-0.483692 z m 0,-0.644922 q 0.992188,0 1.558562,0.644922 0.566374,0.644922 0.566374,1.785938 0,1.136882 -0.566374,1.785939 -0.566374,0.644922 -1.558562,0.644922 -0.996322,0 -1.562695,-0.644922 -0.56224,-0.649057 -0.56224,-1.785939 0,-1.141016 0.56224,-1.785938 0.566373,-0.644922 1.562695,-0.644922 z" />
      <path
         id="path3532"
         style="font-size:8.46667px;text-align:center;text-anchor:middle"
         d="m 32.697526,-57.104513 v 2.794662 h -0.760677 v -2.769857 q 0,-0.657325 -0.256315,-0.98392 -0.256316,-0.326595 -0.768946,-0.326595 -0.615983,0 -0.971517,0.392741 -0.355534,0.392741 -0.355534,1.070736 v 2.616895 h -0.764812 v -4.63021 h 0.764812 v 0.719336 q 0.272851,-0.417545 0.640788,-0.624251 0.37207,-0.206706 0.855762,-0.206706 0.797884,0 1.207162,0.496094 0.409277,0.49196 0.409277,1.451075 z" />
      <path
         id="path3534"
         style="font-size:8.46667px;text-align:center;text-anchor:middle"
         d="m 36.017222,-58.40676 q -0.611849,0 -0.967383,0.479558 -0.355534,0.475423 -0.355534,1.30638 0,0.830958 0.3514,1.310515 0.355534,0.475424 0.971517,0.475424 0.607715,0 0.963249,-0.479558 0.355534,-0.479557 0.355534,-1.306381 0,-0.822689 -0.355534,-1.302246 -0.355534,-0.483692 -0.963249,-0.483692 z m 0,-0.644922 q 0.992188,0 1.558562,0.644922 0.566374,0.644922 0.566374,1.785938 0,1.136882 -0.566374,1.785939 -0.566374,0.644922 -1.558562,0.644922 -0.996322,0 -1.562696,-0.644922 -0.56224,-0.649057 -0.56224,-1.785939 0,-1.141016 0.56224,-1.785938 0.566374,-0.644922 1.562696,-0.644922 z" />
      <path
         id="path3536"
         style="font-size:8.46667px;text-align:center;text-anchor:middle"
         d="m 39.32038,-56.13713 v -2.802931 h 0.760677 v 2.773992 q 0,0.657325 0.256316,0.988054 0.256315,0.326595 0.768945,0.326595 0.615984,0 0.971518,-0.392741 0.359668,-0.392741 0.359668,-1.070736 v -2.625164 h 0.760677 v 4.63021 h -0.760677 v -0.711068 q -0.276986,0.42168 -0.644922,0.628386 -0.363803,0.202572 -0.847494,0.202572 -0.797885,0 -1.211296,-0.496094 -0.413412,-0.496094 -0.413412,-1.451075 z m 1.914096,-2.914552 z" />
      <path
         id="path3538"
         style="font-size:8.46667px;text-align:center;text-anchor:middle"
         d="m 48.622142,-57.104513 v 2.794662 h -0.760677 v -2.769857 q 0,-0.657325 -0.256316,-0.98392 -0.256315,-0.326595 -0.768945,-0.326595 -0.615984,0 -0.971518,0.392741 -0.355534,0.392741 -0.355534,1.070736 v 2.616895 h -0.764811 v -4.63021 h 0.764811 v 0.719336 q 0.272852,-0.417545 0.640788,-0.624251 0.372071,-0.206706 0.855763,-0.206706 0.797884,0 1.207161,0.496094 0.409278,0.49196 0.409278,1.451075 z" />
    </g>
    <path
       style="font-style:normal;font-weight:normal;font-size:8.46667px;line-height:1.05;font-family:sans-serif;white-space:pre;fill:none;fill-opacity:1;stroke:#4d4d4d;stroke-width:0.865;stroke-linecap:butt;stroke-linejoin:miter;stroke-miterlimit:4;stroke-dasharray:3.46, 1.73;stroke-dashoffset:0;stroke-opacity:1"
       d="m 65.472822,127.48303 -10e-7,14.69983 H 141.1101 v -18.4416"
       id="path1161"
       sodipodi:nodetypes="cccc" />
  </g>
</svg>
