<?xml version="1.0" encoding="UTF-8" standalone="no"?>
<svg
   xmlns:dc="http://purl.org/dc/elements/1.1/"
   xmlns:cc="http://creativecommons.org/ns#"
   xmlns:rdf="http://www.w3.org/1999/02/22-rdf-syntax-ns#"
   xmlns:svg="http://www.w3.org/2000/svg"
   xmlns="http://www.w3.org/2000/svg"
   xmlns:sodipodi="http://sodipodi.sourceforge.net/DTD/sodipodi-0.dtd"
   xmlns:inkscape="http://www.inkscape.org/namespaces/inkscape"
   sodipodi:docname="intransitive.svg"
   inkscape:version="1.0 (4035a4fb49, 2020-05-01)"
   id="svg8"
   version="1.1"
   viewBox="0 0 135.88185 67.253996"
   height="254.18832"
   width="513.56921">
  <defs
     id="defs2">
    <rect
       id="rect1165"
       height="44.73629"
       width="50.263763"
       y="61.904251"
       x="35.529755" />
    <rect
       id="rect1113"
       height="23.8125"
       width="56.69643"
       y="112.25893"
       x="37.041668" />
    <marker
       inkscape:isstock="true"
       style="overflow:visible"
       id="Arrow1Lstart"
       refX="0"
       refY="0"
       orient="auto"
       inkscape:stockid="Arrow1Lstart">
      <path
         transform="matrix(0.8,0,0,0.8,10,0)"
         style="fillRule:evenodd;stroke:#000000;stroke-width:1pt"
         d="M 0,0 5,-5 -12.5,0 5,5 Z"
         id="path841" />
    </marker>
    <rect
       x="37.041668"
       y="112.25893"
       width="56.69643"
       height="23.8125"
       id="rect1113-9" />
    <rect
       x="37.041668"
       y="112.25893"
       width="56.69643"
       height="23.8125"
       id="rect1141" />
  </defs>
  <sodipodi:namedview
     inkscape:window-maximized="0"
     inkscape:window-y="32"
     inkscape:window-x="1952"
     inkscape:window-height="1080"
     inkscape:window-width="1515"
     fit-margin-left="10"
     fit-margin-bottom="10"
     fit-margin-right="10"
     fit-margin-top="10"
     units="px"
     showgrid="false"
     inkscape:document-rotation="0"
     inkscape:current-layer="layer1"
     inkscape:document-units="mm"
     inkscape:cy="143.11867"
     inkscape:cx="290.76106"
     inkscape:zoom="0.98994949"
     inkscape:pageshadow="2"
     inkscape:pageopacity="0.0"
     borderopacity="1.0"
     bordercolor="#666666"
     pagecolor="#ffffff"
     id="base" />
  <metadata
     id="metadata5">
    <rdf:RDF>
      <cc:Work
         rdf:about="">
        <dc:format>image/svg+xml</dc:format>
        <dc:type
           rdf:resource="http://purl.org/dc/dcmitype/StillImage" />
        <dc:title></dc:title>
      </cc:Work>
    </rdf:RDF>
  </metadata>
  <g
     transform="translate(-23.740903,-66.686407)"
     id="layer1"
     inkscape:groupmode="layer"
     inkscape:label="Layer 1">
    <path
       d="m 122.9777,85.081856 h 33.44172 V 118.52357 H 122.9777 Z"
       style="opacity:1;fill:none;stroke:#000000;stroke-width:1.115;stroke-miterlimit:4;stroke-dasharray:none"
       id="rect839-4" />
    <g
       style="font-style:normal;font-weight:normal;font-size:10.5833px;line-height:1.25;font-family:sans-serif;white-space:pre;shape-inside:url(#rect1113-9);fill:#000000;fill-opacity:1;stroke:none"
       id="text1111-8"
       transform="translate(90.461538,-16.314846)"
       aria-label="verb">
      <path
         id="path1187"
         d="m 37.356241,115.83576 h 1.007687 l 1.808669,4.85757 1.80867,-4.85757 h 1.007687 l -2.170403,5.78775 h -1.291907 z" />
      <path
         id="path1189"
         d="m 49.252118,118.49192 v 0.46509 h -4.371813 q 0.06201,0.98185 0.58911,1.49861 0.532265,0.5116 1.477941,0.5116 0.547769,0 1.059364,-0.13436 0.516762,-0.13436 1.02319,-0.40308 v 0.89917 q -0.511595,0.21704 -1.049029,0.33073 -0.537433,0.11369 -1.090369,0.11369 -1.384924,0 -2.196241,-0.80615 -0.80615,-0.80615 -0.80615,-2.18074 0,-1.4211 0.764809,-2.25309 0.769976,-0.83715 2.072218,-0.83715 1.167884,0 1.844843,0.75447 0.682127,0.74931 0.682127,2.04121 z m -0.950844,-0.27905 q -0.01033,-0.78031 -0.439248,-1.2454 -0.423745,-0.46508 -1.126543,-0.46508 -0.795814,0 -1.276403,0.44958 -0.475422,0.44958 -0.547769,1.26607 z" />
      <path
         id="path1191"
         d="m 54.166531,116.7246 q -0.160196,-0.093 -0.351398,-0.13436 -0.186035,-0.0465 -0.41341,-0.0465 -0.80615,0 -1.240231,0.5271 -0.428913,0.52193 -0.428913,1.50378 v 3.0489 h -0.956011 v -5.78775 h 0.956011 v 0.89917 q 0.299723,-0.5271 0.780312,-0.78031 0.480589,-0.25838 1.167883,-0.25838 0.09819,0 0.217041,0.0155 0.118855,0.0103 0.263549,0.0362 z" />
      <path
         id="path1193"
         d="m 59.32899,118.7348 q 0,-1.04903 -0.43408,-1.6433 -0.428913,-0.59945 -1.183387,-0.59945 -0.754473,0 -1.188554,0.59945 -0.428913,0.59427 -0.428913,1.6433 0,1.04903 0.428913,1.64847 0.434081,0.59428 1.188554,0.59428 0.754474,0 1.183387,-0.59428 0.43408,-0.59944 0.43408,-1.64847 z m -3.234934,-2.02054 q 0.299722,-0.51676 0.754474,-0.76481 0.459918,-0.25321 1.095536,-0.25321 1.054196,0 1.710485,0.83715 0.661456,0.83716 0.661456,2.20141 0,1.36426 -0.661456,2.20141 -0.656289,0.83716 -1.710485,0.83716 -0.635618,0 -1.095536,-0.24805 -0.454752,-0.25321 -0.754474,-0.76998 v 0.86817 h -0.956011 v -8.04083 h 0.956011 z" />
    </g>
    <path
       sodipodi:nodetypes="cccc"
       id="path1161"
       d="m 55.85933,124.01306 v 6.94901 h 83.65536 v -7.21628"
       style="fill:none;stroke:#4d4d4d;stroke-width:0.665;stroke-linecap:butt;stroke-linejoin:miter;stroke-miterlimit:4;stroke-dasharray:2.66, 1.33;stroke-dashoffset:0;stroke-opacity:1" />
    <g
       style="font-style:normal;font-weight:normal;font-size:10.5833px;line-height:1.25;font-family:sans-serif;white-space:pre;shape-inside:url(#rect1113);fill:#000000;fill-opacity:1;stroke:none"
       id="text1111"
       transform="translate(-0.07274806,-3.3559295)"
       aria-label="subject">
      <path
         id="path1171"
         d="m 41.728053,116.0063 v 0.89916 q -0.403075,-0.2067 -0.837155,-0.31006 -0.434081,-0.10335 -0.899167,-0.10335 -0.707965,0 -1.064532,0.21704 -0.351398,0.21704 -0.351398,0.65112 0,0.33073 0.253213,0.52193 0.253214,0.18604 1.018023,0.35657 l 0.32556,0.0724 q 1.012855,0.21704 1.436601,0.61494 0.428913,0.39274 0.428913,1.10071 0,0.80615 -0.640786,1.2764 -0.635618,0.47026 -1.751825,0.47026 -0.465087,0 -0.971514,-0.093 -0.50126,-0.0879 -1.059364,-0.26872 v -0.98185 q 0.527098,0.27389 1.038693,0.41341 0.511595,0.13436 1.012855,0.13436 0.671792,0 1.033525,-0.22737 0.361734,-0.23255 0.361734,-0.65112 0,-0.38758 -0.263549,-0.59428 -0.258381,-0.20671 -1.142045,-0.39791 l -0.330728,-0.0775 q -0.883665,-0.18604 -1.276404,-0.56844 -0.39274,-0.38757 -0.39274,-1.05937 0,-0.81648 0.578774,-1.2609 0.578775,-0.44441 1.643306,-0.44441 0.527098,0 0.992184,0.0775 0.465086,0.0775 0.857826,0.23255 z" />
      <path
         id="path1173"
         d="m 43.459208,119.33941 v -3.50365 h 0.950843 v 3.46748 q 0,0.82165 0.320393,1.23506 0.320393,0.40825 0.961179,0.40825 0.769976,0 1.214392,-0.49093 0.449584,-0.49092 0.449584,-1.33841 v -3.28145 h 0.950843 v 5.78775 h -0.950843 v -0.88884 q -0.346231,0.5271 -0.80615,0.78548 -0.454751,0.25322 -1.059364,0.25322 -0.997352,0 -1.514114,-0.62012 -0.516763,-0.62011 -0.516763,-1.81384 z m 2.392611,-3.64317 z" />
      <path
         id="path1175"
         d="m 54.43008,118.7348 q 0,-1.04903 -0.434081,-1.6433 -0.428913,-0.59945 -1.183386,-0.59945 -0.754474,0 -1.188554,0.59945 -0.428913,0.59427 -0.428913,1.6433 0,1.04903 0.428913,1.64847 0.43408,0.59428 1.188554,0.59428 0.754473,0 1.183386,-0.59428 0.434081,-0.59944 0.434081,-1.64847 z m -3.234934,-2.02054 q 0.299722,-0.51676 0.754473,-0.76481 0.459919,-0.25321 1.095537,-0.25321 1.054196,0 1.710484,0.83715 0.661457,0.83716 0.661457,2.20141 0,1.36426 -0.661457,2.20141 -0.656288,0.83716 -1.710484,0.83716 -0.635618,0 -1.095537,-0.24805 -0.454751,-0.25321 -0.754473,-0.76998 v 0.86817 h -0.956011 v -8.04083 h 0.956011 z" />
      <path
         id="path1177"
         d="m 56.993223,115.83576 h 0.950843 v 5.8911 q 0,1.10587 -0.423746,1.60196 -0.418577,0.49609 -1.353918,0.49609 h -0.361734 v -0.80615 h 0.253214 q 0.542601,0 0.738971,-0.25321 0.19637,-0.24805 0.19637,-1.03869 z m 0,-2.25308 h 0.950843 v 1.20406 h -0.950843 z" />
      <path
         id="path1179"
         d="m 64.87902,118.49192 v 0.46509 h -4.371812 q 0.06201,0.98185 0.589109,1.49861 0.532266,0.5116 1.477942,0.5116 0.547768,0 1.059363,-0.13436 0.516763,-0.13436 1.02319,-0.40308 v 0.89917 q -0.511595,0.21704 -1.049028,0.33073 -0.537433,0.11369 -1.090369,0.11369 -1.384924,0 -2.196242,-0.80615 -0.806149,-0.80615 -0.806149,-2.18074 0,-1.4211 0.764808,-2.25309 0.769977,-0.83715 2.072219,-0.83715 1.167883,0 1.844842,0.75447 0.682127,0.74931 0.682127,2.04121 z m -0.950843,-0.27905 q -0.01033,-0.78031 -0.439248,-1.2454 -0.423746,-0.46508 -1.126543,-0.46508 -0.795815,0 -1.276404,0.44958 -0.475422,0.44958 -0.547768,1.26607 z" />
      <path
         id="path1181"
         d="m 70.60475,116.05797 v 0.88883 q -0.403074,-0.2222 -0.811317,-0.33073 -0.403075,-0.11368 -0.816485,-0.11368 -0.925005,0 -1.4366,0.58911 -0.511595,0.58394 -0.511595,1.6433 0,1.05937 0.511595,1.64847 0.511595,0.58395 1.4366,0.58395 0.41341,0 0.816485,-0.10852 0.408243,-0.11369 0.811317,-0.3359 v 0.8785 q -0.397907,0.18603 -0.82682,0.27905 -0.423745,0.093 -0.904335,0.093 -1.307409,0 -2.077386,-0.82166 -0.769976,-0.82165 -0.769976,-2.21691 0,-1.41593 0.775144,-2.22725 0.780312,-0.81131 2.13423,-0.81131 0.439248,0 0.857826,0.093 0.418578,0.0879 0.811317,0.26872 z" />
      <path
         id="path1183"
         d="m 73.209234,114.19246 v 1.6433 h 1.95853 v 0.73897 h -1.95853 v 3.14192 q 0,0.70797 0.191202,0.9095 0.19637,0.20154 0.790647,0.20154 h 0.976681 v 0.79582 h -0.976681 q -1.100705,0 -1.519282,-0.40825 -0.418578,-0.41341 -0.418578,-1.49861 v -3.14192 h -0.69763 v -0.73897 h 0.69763 v -1.6433 z" />
    </g>
    <g
       style="font-style:normal;font-weight:normal;font-size:8.46667px;line-height:1.05;font-family:sans-serif;white-space:pre;shape-inside:url(#rect1165);fill:#000000;fill-opacity:1;stroke:none"
       id="text1163"
       transform="translate(-5.3453906,9.0871639)"
       aria-label="plain
noun /
pronoun">
      <path
         id="path1196"
         style="font-size:8.46667px;text-align:center;text-anchor:middle"
         d="m 51.876136,67.854117 v 2.455665 h -0.764812 v -6.391344 h 0.764812 v 0.7028 q 0.239779,-0.413412 0.603581,-0.611849 0.367936,-0.202572 0.876432,-0.202572 0.84336,0 1.368393,0.669727 0.529167,0.669727 0.529167,1.761133 0,1.091407 -0.529167,1.761134 -0.525033,0.669727 -1.368393,0.669727 -0.508496,0 -0.876432,-0.198438 -0.363802,-0.202572 -0.603581,-0.615983 z m 2.587957,-1.61644 q 0,-0.839225 -0.347266,-1.314649 -0.343132,-0.479557 -0.946713,-0.479557 -0.603581,0 -0.950847,0.479557 -0.343131,0.475424 -0.343131,1.314649 0,0.839226 0.343131,1.318783 0.347266,0.475424 0.950847,0.475424 0.603581,0 0.946713,-0.475424 0.347266,-0.479557 0.347266,-1.318783 z" />
      <path
         id="path1198"
         style="font-size:8.46667px;text-align:center;text-anchor:middle"
         d="m 56.514614,62.115963 h 0.760678 v 6.432685 h -0.760678 z" />
      <path
         id="path1200"
         style="font-size:8.46667px;text-align:center;text-anchor:middle"
         d="m 60.967057,66.221141 q -0.921908,0 -1.277442,0.21084 -0.355534,0.21084 -0.355534,0.719336 0,0.405143 0.264584,0.644922 0.268717,0.235645 0.727604,0.235645 0.63252,0 1.012859,-0.446485 0.384473,-0.450618 0.384473,-1.194759 v -0.169499 z m 1.517221,-0.314193 v 2.6417 h -0.760677 v -0.702799 q -0.26045,0.421679 -0.649057,0.624251 -0.388607,0.198438 -0.950846,0.198438 -0.711068,0 -1.132748,-0.396876 -0.417546,-0.401009 -0.417546,-1.070736 0,-0.781348 0.520899,-1.178223 0.525032,-0.396875 1.562696,-0.396875 h 1.066602 v -0.07441 q 0,-0.525033 -0.347266,-0.810287 -0.343132,-0.289388 -0.967383,-0.289388 -0.396876,0 -0.77308,0.09508 -0.376205,0.09508 -0.723471,0.285254 v -0.7028 q 0.417546,-0.161231 0.810287,-0.239779 0.392741,-0.08268 0.764812,-0.08268 1.00459,0 1.500684,0.520899 0.496094,0.520898 0.496094,1.579232 z" />
      <path
         id="path1202"
         style="font-size:8.46667px;text-align:center;text-anchor:middle"
         d="m 64.055242,63.918438 h 0.760678 v 4.63021 h -0.760678 z m 0,-1.802475 h 0.760678 v 0.96325 h -0.760678 z" />
      <path
         id="path1204"
         style="font-size:8.46667px;text-align:center;text-anchor:middle"
         d="m 70.252282,65.753986 v 2.794662 H 69.491605 V 65.77879 q 0,-0.657324 -0.256315,-0.983919 -0.256316,-0.326595 -0.768946,-0.326595 -0.615983,0 -0.971517,0.392741 -0.355534,0.392741 -0.355534,1.070736 v 2.616895 h -0.764812 v -4.63021 h 0.764812 v 0.719336 q 0.272851,-0.417545 0.640788,-0.624251 0.37207,-0.206706 0.855762,-0.206706 0.797884,0 1.207162,0.496094 0.409277,0.49196 0.409277,1.451075 z" />
      <path
         id="path1206"
         style="font-size:8.46667px;text-align:center;text-anchor:middle"
         d="m 51.88027,74.643985 v 2.794663 H 51.119593 V 74.66879 q 0,-0.657325 -0.256316,-0.98392 -0.256315,-0.326595 -0.768945,-0.326595 -0.615984,0 -0.971518,0.392741 -0.355534,0.392741 -0.355534,1.070736 v 2.616896 h -0.764811 v -4.630211 h 0.764811 v 0.719337 q 0.272852,-0.417546 0.640788,-0.624252 0.372071,-0.206706 0.855762,-0.206706 0.797885,0 1.207162,0.496094 0.409278,0.49196 0.409278,1.451075 z" />
      <path
         id="path1208"
         style="font-size:8.46667px;text-align:center;text-anchor:middle"
         d="m 55.199965,73.341738 q -0.611849,0 -0.967383,0.479558 -0.355534,0.475423 -0.355534,1.306381 0,0.830957 0.3514,1.310515 0.355534,0.475423 0.971517,0.475423 0.607715,0 0.963249,-0.479558 0.355534,-0.479557 0.355534,-1.30638 0,-0.822689 -0.355534,-1.302247 -0.355534,-0.483692 -0.963249,-0.483692 z m 0,-0.644922 q 0.992188,0 1.558562,0.644922 0.566374,0.644923 0.566374,1.785939 0,1.136882 -0.566374,1.785938 -0.566374,0.644922 -1.558562,0.644922 -0.996322,0 -1.562696,-0.644922 -0.56224,-0.649056 -0.56224,-1.785938 0,-1.141016 0.56224,-1.785939 0.566374,-0.644922 1.562696,-0.644922 z" />
      <path
         id="path1210"
         style="font-size:8.46667px;text-align:center;text-anchor:middle"
         d="m 58.503124,75.611368 v -2.802931 h 0.760677 v 2.773992 q 0,0.657325 0.256315,0.988054 0.256316,0.326595 0.768946,0.326595 0.615983,0 0.971517,-0.392741 0.359669,-0.392741 0.359669,-1.070736 v -2.625164 h 0.760677 v 4.630211 H 61.620248 V 76.72758 q -0.276986,0.42168 -0.644923,0.628385 -0.363802,0.202572 -0.847493,0.202572 -0.797885,0 -1.211296,-0.496094 -0.413412,-0.496094 -0.413412,-1.451075 z m 1.914096,-2.914552 z" />
      <path
         id="path1212"
         style="font-size:8.46667px;text-align:center;text-anchor:middle"
         d="m 67.804886,74.643985 v 2.794663 H 67.044208 V 74.66879 q 0,-0.657325 -0.256315,-0.98392 -0.256315,-0.326595 -0.768945,-0.326595 -0.615984,0 -0.971518,0.392741 -0.355534,0.392741 -0.355534,1.070736 v 2.616896 h -0.764811 v -4.630211 h 0.764811 v 0.719337 q 0.272852,-0.417546 0.640788,-0.624252 0.372071,-0.206706 0.855762,-0.206706 0.797885,0 1.207162,0.496094 0.409278,0.49196 0.409278,1.451075 z" />
      <path
         id="path1214"
         style="font-size:8.46667px;text-align:center;text-anchor:middle"
         d="m 73.377673,71.266412 h 0.7028 l -2.14974,6.957718 h -0.7028 z" />
      <path
         id="path1216"
         style="font-size:8.46667px;text-align:center;text-anchor:middle"
         d="m 44.616628,85.634116 v 2.455665 h -0.764812 v -6.391344 h 0.764812 v 0.7028 q 0.239778,-0.413412 0.603581,-0.61185 0.367936,-0.202571 0.876432,-0.202571 0.84336,0 1.368393,0.669727 0.529167,0.669726 0.529167,1.761133 0,1.091407 -0.529167,1.761134 -0.525033,0.669726 -1.368393,0.669726 -0.508496,0 -0.876432,-0.198437 -0.363803,-0.202572 -0.603581,-0.615983 z m 2.587956,-1.61644 q 0,-0.839226 -0.347265,-1.314649 -0.343132,-0.479557 -0.946713,-0.479557 -0.603581,0 -0.950847,0.479557 -0.343131,0.475423 -0.343131,1.314649 0,0.839226 0.343131,1.318783 0.347266,0.475424 0.950847,0.475424 0.603581,0 0.946713,-0.475424 0.347265,-0.479557 0.347265,-1.318783 z" />
      <path
         id="path1218"
         style="font-size:8.46667px;text-align:center;text-anchor:middle"
         d="m 51.938147,82.409505 q -0.128157,-0.07441 -0.281119,-0.107487 -0.148829,-0.03721 -0.33073,-0.03721 -0.644922,0 -0.992188,0.42168 -0.343131,0.417545 -0.343131,1.203027 v 2.439129 h -0.764812 v -4.63021 h 0.764812 v 0.719336 q 0.239778,-0.42168 0.624251,-0.624251 0.384473,-0.206706 0.934311,-0.206706 0.07855,0 0.173632,0.0124 0.09508,0.0083 0.21084,0.02894 z" />
      <path
         id="path1220"
         style="font-size:8.46667px;text-align:center;text-anchor:middle"
         d="m 54.356606,82.231738 q -0.611849,0 -0.967383,0.479557 -0.355534,0.475424 -0.355534,1.306381 0,0.830957 0.3514,1.310515 0.355534,0.475423 0.971517,0.475423 0.607715,0 0.963249,-0.479557 0.355534,-0.479558 0.355534,-1.306381 0,-0.822689 -0.355534,-1.302247 -0.355534,-0.483691 -0.963249,-0.483691 z m 0,-0.644922 q 0.992188,0 1.558562,0.644922 0.566374,0.644922 0.566374,1.785938 0,1.136882 -0.566374,1.785938 -0.566374,0.644922 -1.558562,0.644922 -0.996322,0 -1.562696,-0.644922 -0.56224,-0.649056 -0.56224,-1.785938 0,-1.141016 0.56224,-1.785938 0.566374,-0.644922 1.562696,-0.644922 z" />
      <path
         id="path1222"
         style="font-size:8.46667px;text-align:center;text-anchor:middle"
         d="m 61.587175,83.533984 v 2.794663 h -0.760678 v -2.769858 q 0,-0.657324 -0.256315,-0.983919 -0.256315,-0.326596 -0.768946,-0.326596 -0.615983,0 -0.971517,0.392741 -0.355534,0.392741 -0.355534,1.070736 v 2.616896 h -0.764811 v -4.63021 h 0.764811 v 0.719336 q 0.272852,-0.417546 0.640788,-0.624251 0.372071,-0.206706 0.855762,-0.206706 0.797885,0 1.207162,0.496094 0.409278,0.49196 0.409278,1.451074 z" />
      <path
         id="path1224"
         style="font-size:8.46667px;text-align:center;text-anchor:middle"
         d="m 64.90687,82.231738 q -0.611849,0 -0.967383,0.479557 -0.355534,0.475424 -0.355534,1.306381 0,0.830957 0.3514,1.310515 0.355534,0.475423 0.971517,0.475423 0.607715,0 0.963249,-0.479557 0.355534,-0.479558 0.355534,-1.306381 0,-0.822689 -0.355534,-1.302247 -0.355534,-0.483691 -0.963249,-0.483691 z m 0,-0.644922 q 0.992188,0 1.558562,0.644922 0.566374,0.644922 0.566374,1.785938 0,1.136882 -0.566374,1.785938 -0.566374,0.644922 -1.558562,0.644922 -0.996322,0 -1.562696,-0.644922 -0.562239,-0.649056 -0.562239,-1.785938 0,-1.141016 0.562239,-1.785938 0.566374,-0.644922 1.562696,-0.644922 z" />
      <path
         id="path1226"
         style="font-size:8.46667px;text-align:center;text-anchor:middle"
         d="m 68.210028,84.501368 v -2.802931 h 0.760678 v 2.773992 q 0,0.657324 0.256315,0.988054 0.256315,0.326595 0.768946,0.326595 0.615983,0 0.971517,-0.392741 0.359668,-0.392741 0.359668,-1.070736 v -2.625164 h 0.760678 v 4.63021 h -0.760678 v -0.711068 q -0.276986,0.42168 -0.644922,0.628386 -0.363802,0.202571 -0.847494,0.202571 -0.797884,0 -1.211296,-0.496094 -0.413412,-0.496093 -0.413412,-1.451074 z m 1.914096,-2.914552 z" />
      <path
         id="path1228"
         style="font-size:8.46667px;text-align:center;text-anchor:middle"
         d="m 77.51179,83.533984 v 2.794663 h -0.760677 v -2.769858 q 0,-0.657324 -0.256315,-0.983919 -0.256315,-0.326596 -0.768946,-0.326596 -0.615983,0 -0.971517,0.392741 -0.355534,0.392741 -0.355534,1.070736 v 2.616896 h -0.764812 v -4.63021 h 0.764812 v 0.719336 q 0.272852,-0.417546 0.640788,-0.624251 0.37207,-0.206706 0.855762,-0.206706 0.797884,0 1.207162,0.496094 0.409277,0.49196 0.409277,1.451074 z" />
    </g>
    <path
       sodipodi:nodetypes="cccc"
       id="path1169"
       d="m 26.726954,97.018837 9.342265,9.289843 h 40.102597 l 9.589407,-9.589408"
       style="fill:none;stroke:#000000;stroke-width:0.965;stroke-linecap:butt;stroke-linejoin:miter;stroke-miterlimit:4;stroke-dasharray:none;stroke-opacity:1" />
  </g>
</svg>
