<?xml version="1.0" encoding="UTF-8" standalone="no"?>
<svg
   xmlns:dc="http://purl.org/dc/elements/1.1/"
   xmlns:cc="http://creativecommons.org/ns#"
   xmlns:rdf="http://www.w3.org/1999/02/22-rdf-syntax-ns#"
   xmlns:svg="http://www.w3.org/2000/svg"
   xmlns="http://www.w3.org/2000/svg"
   xmlns:sodipodi="http://sodipodi.sourceforge.net/DTD/sodipodi-0.dtd"
   xmlns:inkscape="http://www.inkscape.org/namespaces/inkscape"
   sodipodi:docname="transitive-present.svg"
   inkscape:version="1.0 (4035a4fb49, 2020-05-01)"
   id="svg8"
   version="1.1"
   viewBox="0 0 212.46637 114.62142"
   height="433.21481"
   width="803.02252">
  <defs
     id="defs2">
    <rect
       id="rect1391"
       height="46.113094"
       width="93.738098"
       y="-70.55368"
       x="-15.096844" />
    <rect
       id="rect1385"
       height="25.324406"
       width="51.404762"
       y="-43.339394"
       x="39.331726" />
    <rect
       id="rect1379"
       height="25.324406"
       width="78.997025"
       y="35.657631"
       x="38.953751" />
    <rect
       id="rect1373"
       height="23.434525"
       width="29.104168"
       y="33.389771"
       x="57.474583" />
    <rect
       id="rect1360"
       height="77.422302"
       width="112.6993"
       y="6.553463"
       x="4.935894" />
    <rect
       id="rect1354"
       height="35.151787"
       width="93.738098"
       y="118.46915"
       x="35.83614" />
    <rect
       id="rect1348"
       height="28.348213"
       width="76.351189"
       y="116.23755"
       x="-56.012074" />
    <rect
       id="rect1165"
       height="44.73629"
       width="50.263763"
       y="61.904251"
       x="35.529755" />
    <rect
       id="rect1113"
       height="23.8125"
       width="56.69643"
       y="112.25893"
       x="37.041668" />
    <marker
       inkscape:isstock="true"
       style="overflow:visible"
       id="Arrow1Lstart"
       refX="0"
       refY="0"
       orient="auto"
       inkscape:stockid="Arrow1Lstart">
      <path
         transform="matrix(0.8,0,0,0.8,10,0)"
         style="fillRule:evenodd;stroke:#000000;stroke-width:1pt"
         d="M 0,0 5,-5 -12.5,0 5,5 Z"
         id="path841" />
    </marker>
    <rect
       x="37.041668"
       y="112.25893"
       width="56.69643"
       height="23.8125"
       id="rect1113-9" />
    <rect
       x="37.041668"
       y="112.25893"
       width="56.69643"
       height="23.8125"
       id="rect1141" />
  </defs>
  <sodipodi:namedview
     inkscape:window-maximized="0"
     inkscape:window-y="118"
     inkscape:window-x="2167"
     inkscape:window-height="1080"
     inkscape:window-width="1515"
     fit-margin-left="10"
     fit-margin-bottom="10"
     fit-margin-right="10"
     fit-margin-top="10"
     units="px"
     showgrid="false"
     inkscape:document-rotation="0"
     inkscape:current-layer="text1163-1"
     inkscape:document-units="mm"
     inkscape:cy="272.71875"
     inkscape:cx="408.29075"
     inkscape:zoom="0.49497475"
     inkscape:pageshadow="2"
     inkscape:pageopacity="0.0"
     borderopacity="1.0"
     bordercolor="#666666"
     pagecolor="#ffffff"
     id="base" />
  <metadata
     id="metadata5">
    <rdf:RDF>
      <cc:Work
         rdf:about="">
        <dc:format>image/svg+xml</dc:format>
        <dc:type
           rdf:resource="http://purl.org/dc/dcmitype/StillImage" />
        <dc:title />
      </cc:Work>
    </rdf:RDF>
  </metadata>
  <g
     transform="translate(52.843619,-30.639781)"
     id="layer1"
     inkscape:groupmode="layer"
     inkscape:label="Layer 1">
    <path
       d="m 122.9777,85.081856 h 33.44172 V 118.52357 H 122.9777 Z"
       style="opacity:1;fill:none;stroke:#000000;stroke-width:1.115;stroke-miterlimit:4;stroke-dasharray:none"
       id="rect839-4" />
    <g
       style="font-style:normal;font-weight:normal;font-size:10.5833px;line-height:1.25;font-family:sans-serif;white-space:pre;shape-inside:url(#rect1113-9);fill:#000000;fill-opacity:1;stroke:none"
       id="text1111-8"
       transform="translate(90.461538,-16.314846)"
       aria-label="verb">
      <path
         id="path1187"
         d="m 37.356241,115.83576 h 1.007687 l 1.808669,4.85757 1.80867,-4.85757 h 1.007687 l -2.170403,5.78775 h -1.291907 z" />
      <path
         id="path1189"
         d="m 49.252118,118.49192 v 0.46509 h -4.371813 q 0.06201,0.98185 0.58911,1.49861 0.532265,0.5116 1.477941,0.5116 0.547769,0 1.059364,-0.13436 0.516762,-0.13436 1.02319,-0.40308 v 0.89917 q -0.511595,0.21704 -1.049029,0.33073 -0.537433,0.11369 -1.090369,0.11369 -1.384924,0 -2.196241,-0.80615 -0.80615,-0.80615 -0.80615,-2.18074 0,-1.4211 0.764809,-2.25309 0.769976,-0.83715 2.072218,-0.83715 1.167884,0 1.844843,0.75447 0.682127,0.74931 0.682127,2.04121 z m -0.950844,-0.27905 q -0.01033,-0.78031 -0.439248,-1.2454 -0.423745,-0.46508 -1.126543,-0.46508 -0.795814,0 -1.276403,0.44958 -0.475422,0.44958 -0.547769,1.26607 z" />
      <path
         id="path1191"
         d="m 54.166531,116.7246 q -0.160196,-0.093 -0.351398,-0.13436 -0.186035,-0.0465 -0.41341,-0.0465 -0.80615,0 -1.240231,0.5271 -0.428913,0.52193 -0.428913,1.50378 v 3.0489 h -0.956011 v -5.78775 h 0.956011 v 0.89917 q 0.299723,-0.5271 0.780312,-0.78031 0.480589,-0.25838 1.167883,-0.25838 0.09819,0 0.217041,0.0155 0.118855,0.0103 0.263549,0.0362 z" />
      <path
         id="path1193"
         d="m 59.32899,118.7348 q 0,-1.04903 -0.43408,-1.6433 -0.428913,-0.59945 -1.183387,-0.59945 -0.754473,0 -1.188554,0.59945 -0.428913,0.59427 -0.428913,1.6433 0,1.04903 0.428913,1.64847 0.434081,0.59428 1.188554,0.59428 0.754474,0 1.183387,-0.59428 0.43408,-0.59944 0.43408,-1.64847 z m -3.234934,-2.02054 q 0.299722,-0.51676 0.754474,-0.76481 0.459918,-0.25321 1.095536,-0.25321 1.054196,0 1.710485,0.83715 0.661456,0.83716 0.661456,2.20141 0,1.36426 -0.661456,2.20141 -0.656289,0.83716 -1.710485,0.83716 -0.635618,0 -1.095536,-0.24805 -0.454752,-0.25321 -0.754474,-0.76998 v 0.86817 h -0.956011 v -8.04083 h 0.956011 z" />
    </g>
    <g
       style="font-style:normal;font-weight:normal;font-size:8.46667px;line-height:1.05;font-family:sans-serif;white-space:pre;shape-inside:url(#rect1165);fill:#000000;fill-opacity:1;stroke:none"
       id="text1163"
       transform="translate(-81.650166,5.4265352)"
       aria-label="plain noun / pronoun">
      <path
         id="path1196"
         style="font-size:8.46667px;text-align:center;text-anchor:middle"
         d="m 51.876136,67.854117 v 2.455665 h -0.764812 v -6.391344 h 0.764812 v 0.7028 q 0.239779,-0.413412 0.603581,-0.611849 0.367936,-0.202572 0.876432,-0.202572 0.84336,0 1.368393,0.669727 0.529167,0.669727 0.529167,1.761133 0,1.091407 -0.529167,1.761134 -0.525033,0.669727 -1.368393,0.669727 -0.508496,0 -0.876432,-0.198438 -0.363802,-0.202572 -0.603581,-0.615983 z m 2.587957,-1.61644 q 0,-0.839225 -0.347266,-1.314649 -0.343132,-0.479557 -0.946713,-0.479557 -0.603581,0 -0.950847,0.479557 -0.343131,0.475424 -0.343131,1.314649 0,0.839226 0.343131,1.318783 0.347266,0.475424 0.950847,0.475424 0.603581,0 0.946713,-0.475424 0.347266,-0.479557 0.347266,-1.318783 z" />
      <path
         id="path1198"
         style="font-size:8.46667px;text-align:center;text-anchor:middle"
         d="m 56.514614,62.115963 h 0.760678 v 6.432685 h -0.760678 z" />
      <path
         id="path1200"
         style="font-size:8.46667px;text-align:center;text-anchor:middle"
         d="m 60.967057,66.221141 q -0.921908,0 -1.277442,0.21084 -0.355534,0.21084 -0.355534,0.719336 0,0.405143 0.264584,0.644922 0.268717,0.235645 0.727604,0.235645 0.63252,0 1.012859,-0.446485 0.384473,-0.450618 0.384473,-1.194759 v -0.169499 z m 1.517221,-0.314193 v 2.6417 h -0.760677 v -0.702799 q -0.26045,0.421679 -0.649057,0.624251 -0.388607,0.198438 -0.950846,0.198438 -0.711068,0 -1.132748,-0.396876 -0.417546,-0.401009 -0.417546,-1.070736 0,-0.781348 0.520899,-1.178223 0.525032,-0.396875 1.562696,-0.396875 h 1.066602 v -0.07441 q 0,-0.525033 -0.347266,-0.810287 -0.343132,-0.289388 -0.967383,-0.289388 -0.396876,0 -0.77308,0.09508 -0.376205,0.09508 -0.723471,0.285254 v -0.7028 q 0.417546,-0.161231 0.810287,-0.239779 0.392741,-0.08268 0.764812,-0.08268 1.00459,0 1.500684,0.520899 0.496094,0.520898 0.496094,1.579231 z" />
      <path
         id="path1202"
         style="font-size:8.46667px;text-align:center;text-anchor:middle"
         d="m 64.055242,63.918438 h 0.760678 v 4.63021 h -0.760678 z m 0,-1.802475 h 0.760678 v 0.96325 h -0.760678 z" />
      <path
         id="path1204"
         style="font-size:8.46667px;text-align:center;text-anchor:middle"
         d="m 70.252282,65.753986 v 2.794662 H 69.491605 V 65.77879 q 0,-0.657324 -0.256315,-0.983919 -0.256316,-0.326595 -0.768946,-0.326595 -0.615983,0 -0.971517,0.392741 -0.355534,0.392741 -0.355534,1.070736 v 2.616895 h -0.764812 v -4.63021 h 0.764812 v 0.719336 q 0.272851,-0.417545 0.640788,-0.624251 0.37207,-0.206706 0.855762,-0.206706 0.797884,0 1.207162,0.496094 0.409277,0.49196 0.409277,1.451075 z" />
      <path
         id="path1206"
         style="font-size:8.46667px;text-align:center;text-anchor:middle"
         d="m 51.88027,74.643985 v 2.794663 H 51.119593 V 74.66879 q 0,-0.657325 -0.256316,-0.98392 -0.256315,-0.326595 -0.768945,-0.326595 -0.615984,0 -0.971518,0.392741 -0.355534,0.392741 -0.355534,1.070736 v 2.616896 h -0.764811 v -4.630211 h 0.764811 v 0.719337 q 0.272852,-0.417546 0.640788,-0.624252 0.372071,-0.206706 0.855762,-0.206706 0.797885,0 1.207162,0.496094 0.409278,0.49196 0.409278,1.451075 z" />
      <path
         id="path1208"
         style="font-size:8.46667px;text-align:center;text-anchor:middle"
         d="m 55.199965,73.341738 q -0.611849,0 -0.967383,0.479558 -0.355534,0.475423 -0.355534,1.306381 0,0.830957 0.3514,1.310515 0.355534,0.475423 0.971517,0.475423 0.607715,0 0.963249,-0.479558 0.355534,-0.479557 0.355534,-1.30638 0,-0.822689 -0.355534,-1.302247 -0.355534,-0.483692 -0.963249,-0.483692 z m 0,-0.644922 q 0.992188,0 1.558562,0.644922 0.566374,0.644923 0.566374,1.785939 0,1.136882 -0.566374,1.785938 -0.566374,0.644922 -1.558562,0.644922 -0.996322,0 -1.562696,-0.644922 -0.56224,-0.649056 -0.56224,-1.785938 0,-1.141016 0.56224,-1.785939 0.566374,-0.644922 1.562696,-0.644922 z" />
      <path
         id="path1210"
         style="font-size:8.46667px;text-align:center;text-anchor:middle"
         d="m 58.503124,75.611368 v -2.802931 h 0.760677 v 2.773992 q 0,0.657325 0.256315,0.988054 0.256316,0.326595 0.768946,0.326595 0.615983,0 0.971517,-0.392741 0.359669,-0.392741 0.359669,-1.070736 v -2.625164 h 0.760677 v 4.630211 H 61.620248 V 76.72758 q -0.276986,0.42168 -0.644923,0.628385 -0.363802,0.202572 -0.847493,0.202572 -0.797885,0 -1.211296,-0.496094 -0.413412,-0.496094 -0.413412,-1.451075 z m 1.914096,-2.914552 z" />
      <path
         id="path1212"
         style="font-size:8.46667px;text-align:center;text-anchor:middle"
         d="m 67.804886,74.643985 v 2.794663 H 67.044208 V 74.66879 q 0,-0.657325 -0.256315,-0.98392 -0.256315,-0.326595 -0.768945,-0.326595 -0.615984,0 -0.971518,0.392741 -0.355534,0.392741 -0.355534,1.070736 v 2.616896 h -0.764811 v -4.630211 h 0.764811 v 0.719337 q 0.272852,-0.417546 0.640788,-0.624252 0.372071,-0.206706 0.855762,-0.206706 0.797885,0 1.207162,0.496094 0.409278,0.49196 0.409278,1.451075 z" />
      <path
         id="path1214"
         style="font-size:8.46667px;text-align:center;text-anchor:middle"
         d="m 73.377673,71.266412 h 0.7028 l -2.14974,6.957718 h -0.7028 z" />
      <path
         id="path1216"
         style="font-size:8.46667px;text-align:center;text-anchor:middle"
         d="m 44.616628,85.634116 v 2.455665 h -0.764812 v -6.391344 h 0.764812 v 0.7028 q 0.239778,-0.413412 0.603581,-0.61185 0.367936,-0.202571 0.876432,-0.202571 0.84336,0 1.368393,0.669727 0.529167,0.669726 0.529167,1.761133 0,1.091407 -0.529167,1.761134 -0.525033,0.669726 -1.368393,0.669726 -0.508496,0 -0.876432,-0.198437 -0.363803,-0.202572 -0.603581,-0.615983 z m 2.587956,-1.61644 q 0,-0.839226 -0.347265,-1.314649 -0.343132,-0.479557 -0.946713,-0.479557 -0.603581,0 -0.950847,0.479557 -0.343131,0.475423 -0.343131,1.314649 0,0.839226 0.343131,1.318783 0.347266,0.475424 0.950847,0.475424 0.603581,0 0.946713,-0.475424 0.347265,-0.479557 0.347265,-1.318783 z" />
      <path
         id="path1218"
         style="font-size:8.46667px;text-align:center;text-anchor:middle"
         d="m 51.938147,82.409505 q -0.128157,-0.07441 -0.281119,-0.107487 -0.148829,-0.03721 -0.33073,-0.03721 -0.644922,0 -0.992188,0.42168 -0.343131,0.417545 -0.343131,1.203027 v 2.439129 h -0.764812 v -4.63021 h 0.764812 v 0.719336 q 0.239778,-0.42168 0.624251,-0.624251 0.384473,-0.206706 0.934311,-0.206706 0.07855,0 0.173632,0.0124 0.09508,0.0083 0.21084,0.02894 z" />
      <path
         id="path1220"
         style="font-size:8.46667px;text-align:center;text-anchor:middle"
         d="m 54.356606,82.231738 q -0.611849,0 -0.967383,0.479557 -0.355534,0.475424 -0.355534,1.306381 0,0.830957 0.3514,1.310515 0.355534,0.475423 0.971517,0.475423 0.607715,0 0.963249,-0.479557 0.355534,-0.479558 0.355534,-1.306381 0,-0.822689 -0.355534,-1.302247 -0.355534,-0.483691 -0.963249,-0.483691 z m 0,-0.644922 q 0.992188,0 1.558562,0.644922 0.566374,0.644922 0.566374,1.785938 0,1.136882 -0.566374,1.785938 -0.566374,0.644922 -1.558562,0.644922 -0.996322,0 -1.562696,-0.644922 -0.56224,-0.649056 -0.56224,-1.785938 0,-1.141016 0.56224,-1.785938 0.566374,-0.644922 1.562696,-0.644922 z" />
      <path
         id="path1222"
         style="font-size:8.46667px;text-align:center;text-anchor:middle"
         d="m 61.587175,83.533984 v 2.794663 h -0.760678 v -2.769858 q 0,-0.657324 -0.256315,-0.983919 -0.256315,-0.326596 -0.768946,-0.326596 -0.615983,0 -0.971517,0.392741 -0.355534,0.392741 -0.355534,1.070736 v 2.616896 h -0.764811 v -4.63021 h 0.764811 v 0.719336 q 0.272852,-0.417546 0.640788,-0.624251 0.372071,-0.206706 0.855762,-0.206706 0.797885,0 1.207162,0.496094 0.409278,0.49196 0.409278,1.451074 z" />
      <path
         id="path1224"
         style="font-size:8.46667px;text-align:center;text-anchor:middle"
         d="m 64.90687,82.231738 q -0.611849,0 -0.967383,0.479557 -0.355534,0.475424 -0.355534,1.306381 0,0.830957 0.3514,1.310515 0.355534,0.475423 0.971517,0.475423 0.607715,0 0.963249,-0.479557 0.355534,-0.479558 0.355534,-1.306381 0,-0.822689 -0.355534,-1.302247 -0.355534,-0.483691 -0.963249,-0.483691 z m 0,-0.644922 q 0.992188,0 1.558562,0.644922 0.566374,0.644922 0.566374,1.785938 0,1.136882 -0.566374,1.785938 -0.566374,0.644922 -1.558562,0.644922 -0.996322,0 -1.562696,-0.644922 -0.562239,-0.649056 -0.562239,-1.785938 0,-1.141016 0.562239,-1.785938 0.566374,-0.644922 1.562696,-0.644922 z" />
      <path
         id="path1226"
         style="font-size:8.46667px;text-align:center;text-anchor:middle"
         d="m 68.210028,84.501368 v -2.802931 h 0.760678 v 2.773992 q 0,0.657324 0.256315,0.988054 0.256315,0.326595 0.768946,0.326595 0.615983,0 0.971517,-0.392741 0.359668,-0.392741 0.359668,-1.070736 v -2.625164 h 0.760678 v 4.63021 h -0.760678 v -0.711068 q -0.276986,0.42168 -0.644922,0.628386 -0.363802,0.202571 -0.847494,0.202571 -0.797884,0 -1.211296,-0.496094 -0.413412,-0.496093 -0.413412,-1.451074 z m 1.914096,-2.914552 z" />
      <path
         id="path1228"
         style="font-size:8.46667px;text-align:center;text-anchor:middle"
         d="m 77.51179,83.533984 v 2.794663 h -0.760677 v -2.769858 q 0,-0.657324 -0.256315,-0.983919 -0.256315,-0.326596 -0.768946,-0.326596 -0.615983,0 -0.971517,0.392741 -0.355534,0.392741 -0.355534,1.070736 v 2.616896 h -0.764812 v -4.63021 h 0.764812 v 0.719336 q 0.272852,-0.417546 0.640788,-0.624251 0.37207,-0.206706 0.855762,-0.206706 0.797884,0 1.207162,0.496094 0.409277,0.49196 0.409277,1.451074 z" />
    </g>
    <g
       transform="translate(7.9375,-1.5481652)"
       id="g1333">
      <path
         style="fill:none;stroke:#000000;stroke-width:0.965;stroke-linecap:butt;stroke-linejoin:miter;stroke-miterlimit:4;stroke-dasharray:none;stroke-opacity:1"
         d="m -57.795068,100.26406 9.342265,9.28984 h 40.1025978 l 9.589407,-9.589405"
         id="path1169"
         sodipodi:nodetypes="cccc" />
      <g
         style="font-style:normal;font-weight:normal;font-size:10.5833px;line-height:1.25;font-family:sans-serif;white-space:pre;shape-inside:url(#rect1348);fill:#000000;fill-opacity:1;stroke:none"
         id="text1346"
         transform="translate(-9.827381,-4.5357143)"
         aria-label="subject /
agent">
        <path
           id="path4222"
           style="text-align:center;text-anchor:middle"
           d="m -35.814111,119.98481 v 0.89917 q -0.403075,-0.20671 -0.837156,-0.31006 -0.43408,-0.10335 -0.899167,-0.10335 -0.707965,0 -1.064531,0.21704 -0.351398,0.21704 -0.351398,0.65112 0,0.33073 0.253213,0.52193 0.253214,0.18603 1.018023,0.35657 l 0.32556,0.0723 q 1.012855,0.21704 1.436601,0.61495 0.428913,0.39274 0.428913,1.1007 0,0.80615 -0.640786,1.27641 -0.635618,0.47025 -1.751826,0.47025 -0.465086,0 -0.971513,-0.093 -0.50126,-0.0878 -1.059364,-0.26871 v -0.98185 q 0.527098,0.27388 1.038693,0.41341 0.511595,0.13436 1.012855,0.13436 0.671791,0 1.033525,-0.22738 0.361734,-0.23254 0.361734,-0.65112 0,-0.38757 -0.263549,-0.59428 -0.258381,-0.2067 -1.142045,-0.3979 l -0.330729,-0.0775 q -0.883664,-0.18603 -1.276403,-0.56844 -0.39274,-0.38757 -0.39274,-1.05936 0,-0.81649 0.578774,-1.2609 0.578774,-0.44442 1.643306,-0.44442 0.527097,0 0.992184,0.0775 0.465086,0.0775 0.857826,0.23254 z" />
        <path
           id="path4224"
           style="text-align:center;text-anchor:middle"
           d="m -34.082956,123.31793 v -3.50365 h 0.950843 v 3.46748 q 0,0.82165 0.320393,1.23506 0.320393,0.40824 0.961179,0.40824 0.769976,0 1.214392,-0.49092 0.449583,-0.49093 0.449583,-1.33842 v -3.28144 h 0.950844 v 5.78774 h -0.950844 v -0.88883 q -0.346231,0.5271 -0.806149,0.78548 -0.454751,0.25321 -1.059364,0.25321 -0.997352,0 -1.514114,-0.62011 -0.516763,-0.62012 -0.516763,-1.81384 z m 2.392611,-3.64318 z" />
        <path
           id="path4226"
           style="text-align:center;text-anchor:middle"
           d="m -23.112084,122.71332 q 0,-1.04903 -0.434081,-1.64331 -0.428913,-0.59944 -1.183386,-0.59944 -0.754474,0 -1.188555,0.59944 -0.428913,0.59428 -0.428913,1.64331 0,1.04903 0.428913,1.64847 0.434081,0.59428 1.188555,0.59428 0.754473,0 1.183386,-0.59428 0.434081,-0.59944 0.434081,-1.64847 z m -3.234935,-2.02054 q 0.299723,-0.51677 0.754474,-0.76481 0.459919,-0.25322 1.095537,-0.25322 1.054196,0 1.710484,0.83716 0.661456,0.83715 0.661456,2.20141 0,1.36425 -0.661456,2.20141 -0.656288,0.83715 -1.710484,0.83715 -0.635618,0 -1.095537,-0.24804 -0.454751,-0.25322 -0.754474,-0.76998 v 0.86816 h -0.956011 v -8.04083 h 0.956011 z" />
        <path
           id="path4228"
           style="text-align:center;text-anchor:middle"
           d="m -20.548942,119.81428 h 0.950844 v 5.89109 q 0,1.10588 -0.423746,1.60197 -0.418577,0.49609 -1.353918,0.49609 h -0.361734 v -0.80615 h 0.253214 q 0.542601,0 0.738971,-0.25321 0.196369,-0.24805 0.196369,-1.0387 z m 0,-2.25309 h 0.950844 v 1.20406 h -0.950844 z" />
        <path
           id="path4230"
           style="text-align:center;text-anchor:middle"
           d="m -12.663144,122.47044 v 0.46509 h -4.371812 q 0.06201,0.98184 0.589109,1.49861 0.532266,0.51159 1.477941,0.51159 0.547769,0 1.059364,-0.13436 0.516763,-0.13435 1.02319,-0.40307 v 0.89917 q -0.511595,0.21704 -1.049028,0.33072 -0.537433,0.11369 -1.090369,0.11369 -1.384924,0 -2.196242,-0.80615 -0.80615,-0.80615 -0.80615,-2.18074 0,-1.42109 0.764809,-2.25308 0.769977,-0.83716 2.072219,-0.83716 1.167883,0 1.844842,0.75448 0.682127,0.7493 0.682127,2.04121 z m -0.950843,-0.27905 q -0.01034,-0.78031 -0.439249,-1.2454 -0.423745,-0.46509 -1.126542,-0.46509 -0.795815,0 -1.276404,0.44959 -0.475422,0.44958 -0.547768,1.26606 z" />
        <path
           id="path4232"
           style="text-align:center;text-anchor:middle"
           d="m -6.9374138,120.03649 v 0.88883 q -0.4030748,-0.22221 -0.8113174,-0.33073 -0.4030748,-0.11369 -0.816485,-0.11369 -0.9250052,0 -1.4365998,0.58911 -0.511595,0.58394 -0.511595,1.64331 0,1.05936 0.511595,1.64847 0.5115946,0.58394 1.4365998,0.58394 0.4134102,0 0.816485,-0.10852 0.4082426,-0.11369 0.8113174,-0.33589 v 0.87849 q -0.3979072,0.18604 -0.8268202,0.27905 -0.4237454,0.093 -0.9043347,0.093 -1.3074096,0 -2.0773863,-0.82165 -0.769976,-0.82165 -0.769976,-2.21691 0,-1.41593 0.775144,-2.22725 0.7803116,-0.81132 2.1342298,-0.81132 0.4392483,0 0.857826,0.093 0.4185778,0.0879 0.8113174,0.26872 z" />
        <path
           id="path4234"
           style="text-align:center;text-anchor:middle"
           d="m -4.3329304,118.17097 v 1.64331 h 1.9585306 v 0.73897 h -1.9585306 v 3.14192 q 0,0.70796 0.1912022,0.9095 0.1963698,0.20154 0.7906469,0.20154 h 0.9766815 v 0.79581 h -0.9766815 q -1.1007045,0 -1.5192823,-0.40824 -0.4185777,-0.41341 -0.4185777,-1.49861 v -3.14192 h -0.6976296 v -0.73897 h 0.6976296 v -1.64331 z" />
        <path
           id="path4236"
           style="text-align:center;text-anchor:middle"
           d="M 3.9404424,117.88675 H 4.818939 l -2.6871659,8.69712 H 1.2532765 Z" />
        <path
           id="path4238"
           style="text-align:center;text-anchor:middle"
           d="m -29.504439,135.92177 q -1.152381,0 -1.596796,0.26355 -0.444416,0.26355 -0.444416,0.89917 0,0.50643 0.330728,0.80615 0.335896,0.29455 0.909502,0.29455 0.790647,0 1.266069,-0.5581 0.480589,-0.56327 0.480589,-1.49344 v -0.21188 z m 1.896519,-0.39274 v 3.30212 h -0.950843 v -0.8785 q -0.325561,0.5271 -0.811317,0.78031 -0.485757,0.24805 -1.188555,0.24805 -0.888831,0 -1.415929,-0.49609 -0.521931,-0.50126 -0.521931,-1.33842 0,-0.97668 0.651121,-1.47277 0.656289,-0.4961 1.953363,-0.4961 h 1.333248 v -0.093 q 0,-0.65629 -0.434081,-1.01286 -0.428913,-0.36173 -1.209224,-0.36173 -0.496093,0 -0.966347,0.11885 -0.470254,0.11886 -0.904334,0.35657 v -0.8785 q 0.52193,-0.20153 1.012855,-0.29972 0.490924,-0.10335 0.956011,-0.10335 1.255733,0 1.875848,0.65112 0.620115,0.65112 0.620115,1.97403 z" />
        <path
           id="path4240"
           style="text-align:center;text-anchor:middle"
           d="m -21.835681,135.8701 q 0,-1.03353 -0.428913,-1.60197 -0.423745,-0.56844 -1.193722,-0.56844 -0.764808,0 -1.193721,0.56844 -0.423746,0.56844 -0.423746,1.60197 0,1.02835 0.423746,1.59679 0.428913,0.56844 1.193721,0.56844 0.769977,0 1.193722,-0.56844 0.428913,-0.56844 0.428913,-1.59679 z m 0.950844,2.24275 q 0,1.47794 -0.656289,2.19624 -0.656289,0.72347 -2.010207,0.72347 -0.50126,0 -0.945676,-0.0775 -0.444415,-0.0724 -0.862993,-0.22737 v -0.92501 q 0.418578,0.22738 0.82682,0.3359 0.408243,0.10852 0.831988,0.10852 0.93534,0 1.400427,-0.49093 0.465086,-0.48575 0.465086,-1.47277 v -0.47026 q -0.294555,0.5116 -0.754473,0.76481 -0.459919,0.25322 -1.100705,0.25322 -1.064531,0 -1.715652,-0.81132 -0.651121,-0.81132 -0.651121,-2.14973 0,-1.34359 0.651121,-2.1549 0.651121,-0.81132 1.715652,-0.81132 0.640786,0 1.100705,0.25321 0.459918,0.25322 0.754473,0.76481 v -0.8785 h 0.950844 z" />
        <path
           id="path4242"
           style="text-align:center;text-anchor:middle"
           d="m -13.97572,135.69957 v 0.46508 h -4.371812 q 0.06201,0.98185 0.589109,1.49861 0.532266,0.5116 1.477941,0.5116 0.547769,0 1.059364,-0.13436 0.516762,-0.13436 1.02319,-0.40307 v 0.89916 q -0.511595,0.21704 -1.049028,0.33073 -0.537434,0.11369 -1.09037,0.11369 -1.384924,0 -2.196241,-0.80615 -0.80615,-0.80615 -0.80615,-2.18074 0,-1.4211 0.764809,-2.25309 0.769976,-0.83715 2.072218,-0.83715 1.167884,0 1.844843,0.75447 0.682127,0.74931 0.682127,2.04122 z m -0.950844,-0.27906 q -0.01033,-0.78031 -0.439248,-1.24539 -0.423745,-0.46509 -1.126542,-0.46509 -0.795815,0 -1.276404,0.44958 -0.475422,0.44959 -0.547769,1.26607 z" />
        <path
           id="path4244"
           style="text-align:center;text-anchor:middle"
           d="m -7.6040366,135.33783 v 3.49332 H -8.55488 v -3.46231 q 0,-0.82166 -0.3203928,-1.2299 -0.3203929,-0.40824 -0.9611786,-0.40824 -0.7699766,0 -1.2143926,0.49092 -0.444416,0.49093 -0.444416,1.33842 v 3.27111 h -0.956011 v -5.78775 h 0.956011 v 0.89917 q 0.341064,-0.52193 0.800983,-0.78031 0.465086,-0.25838 1.0696983,-0.25838 0.997352,0 1.508947,0.62011 0.5115951,0.61495 0.5115951,1.81384 z" />
        <path
           id="path4246"
           style="text-align:center;text-anchor:middle"
           d="m -4.7566745,131.4001 v 1.6433 h 1.9585305 v 0.73898 h -1.9585305 v 3.14191 q 0,0.70797 0.1912022,0.9095 0.1963698,0.20154 0.7906469,0.20154 h 0.9766814 v 0.79582 h -0.9766814 q -1.1007045,0 -1.5192823,-0.40825 -0.4185778,-0.41341 -0.4185778,-1.49861 v -3.14191 h -0.6976296 v -0.73898 h 0.6976296 v -1.6433 z" />
      </g>
    </g>
    <g
       aria-label="plain noun / pronoun"
       transform="translate(5.342511,1.1060936)"
       id="text1163-1"
       style="font-style:normal;font-weight:normal;font-size:8.46667px;line-height:1.05;font-family:sans-serif;white-space:pre;shape-inside:url(#rect1165);fill:#000000;fill-opacity:1;stroke:none">
      <g
         style="font-style:normal;font-weight:normal;font-size:8.46667px;line-height:1.25;font-family:sans-serif;white-space:pre;shape-inside:url(#rect1360);fill:#000000;fill-opacity:1;stroke:none"
         id="text1358"
         transform="translate(-0.6068181,24.568453)"
         aria-label="plain noun /
pronoun
">
        <path
           id="path4249"
           style="font-size:8.46667px;text-align:center;text-anchor:middle"
           d="m 37.724828,13.349221 v 2.455665 H 36.960016 V 9.4135428 h 0.764812 v 0.7028002 q 0.239779,-0.4134121 0.603581,-0.6118496 0.367936,-0.2025717 0.876432,-0.2025717 0.84336,0 1.368393,0.6697268 0.529167,0.6697265 0.529167,1.7611335 0,1.091407 -0.529167,1.761134 -0.525033,0.669726 -1.368393,0.669726 -0.508496,0 -0.876432,-0.198437 -0.363802,-0.202572 -0.603581,-0.615984 z m 2.587957,-1.616439 q 0,-0.839226 -0.347266,-1.314649 -0.343132,-0.4795574 -0.946713,-0.4795574 -0.603581,0 -0.950846,0.4795574 -0.343132,0.475423 -0.343132,1.314649 0,0.839226 0.343132,1.318783 0.347265,0.475423 0.950846,0.475423 0.603581,0 0.946713,-0.475423 0.347266,-0.479557 0.347266,-1.318783 z" />
        <path
           id="path4251"
           style="font-size:8.46667px;text-align:center;text-anchor:middle"
           d="m 42.363306,7.6110681 h 0.760678 v 6.4326849 h -0.760678 z" />
        <path
           id="path4253"
           style="font-size:8.46667px;text-align:center;text-anchor:middle"
           d="m 46.815749,11.716246 q -0.921908,0 -1.277442,0.210839 -0.355534,0.21084 -0.355534,0.719337 0,0.405143 0.264584,0.644922 0.268717,0.235644 0.727604,0.235644 0.63252,0 1.012859,-0.446484 0.384473,-0.450619 0.384473,-1.19476 v -0.169498 z m 1.517221,-0.314193 v 2.6417 h -0.760677 v -0.7028 q -0.26045,0.42168 -0.649057,0.624252 -0.388607,0.198437 -0.950846,0.198437 -0.711068,0 -1.132748,-0.396875 -0.417546,-0.401009 -0.417546,-1.070736 0,-0.781348 0.520899,-1.178223 0.525032,-0.396875 1.562696,-0.396875 h 1.066602 v -0.07441 q 0,-0.525033 -0.347266,-0.810287 -0.343132,-0.2893882 -0.967383,-0.2893882 -0.396876,0 -0.77308,0.095084 -0.376205,0.09508 -0.72347,0.285254 V 9.6243827 q 0.417545,-0.1612305 0.810286,-0.2397787 0.392741,-0.082682 0.764812,-0.082682 1.00459,0 1.500684,0.5208986 0.496094,0.5208987 0.496094,1.5792327 z" />
        <path
           id="path4255"
           style="font-size:8.46667px;text-align:center;text-anchor:middle"
           d="m 49.903934,9.4135428 h 0.760678 v 4.6302102 h -0.760678 z m 0,-1.8024747 h 0.760678 v 0.9632491 h -0.760678 z" />
        <path
           id="path4257"
           style="font-size:8.46667px;text-align:center;text-anchor:middle"
           d="m 56.100974,11.24909 v 2.794663 h -0.760677 v -2.769858 q 0,-0.657324 -0.256315,-0.98392 -0.256316,-0.3265947 -0.768946,-0.3265947 -0.615983,0 -0.971517,0.3927407 -0.355534,0.392741 -0.355534,1.070736 v 2.616896 H 52.223173 V 9.4135428 h 0.764812 v 0.7193362 q 0.272851,-0.4175457 0.640788,-0.6242515 0.37207,-0.2067058 0.855762,-0.2067058 0.797884,0 1.207162,0.4960939 0.409277,0.4919594 0.409277,1.4510744 z" />
        <path
           id="path4259"
           style="font-size:8.46667px;text-align:center;text-anchor:middle"
           d="m 64.17077,11.24909 v 2.794663 h -0.760678 v -2.769858 q 0,-0.657324 -0.256315,-0.98392 -0.256315,-0.3265947 -0.768945,-0.3265947 -0.615984,0 -0.971518,0.3927407 -0.355534,0.392741 -0.355534,1.070736 v 2.616896 H 60.292969 V 9.4135428 h 0.764811 v 0.7193362 q 0.272852,-0.4175457 0.640788,-0.6242515 0.372071,-0.2067058 0.855762,-0.2067058 0.797885,0 1.207162,0.4960939 0.409278,0.4919594 0.409278,1.4510744 z" />
        <path
           id="path4261"
           style="font-size:8.46667px;text-align:center;text-anchor:middle"
           d="m 67.490464,9.9468438 q -0.611849,0 -0.967383,0.4795572 -0.355534,0.475424 -0.355534,1.306381 0,0.830957 0.351399,1.310515 0.355534,0.475423 0.971518,0.475423 0.607715,0 0.963249,-0.479557 0.355534,-0.479558 0.355534,-1.306381 0,-0.822689 -0.355534,-1.302247 -0.355534,-0.4836912 -0.963249,-0.4836912 z m 0,-0.6449221 q 0.992188,0 1.558562,0.6449221 0.566373,0.6449222 0.566373,1.7859382 0,1.136882 -0.566373,1.785938 -0.566374,0.644922 -1.558562,0.644922 -0.996322,0 -1.562696,-0.644922 -0.56224,-0.649056 -0.56224,-1.785938 0,-1.141016 0.56224,-1.7859382 0.566374,-0.6449221 1.562696,-0.6449221 z" />
        <path
           id="path4263"
           style="font-size:8.46667px;text-align:center;text-anchor:middle"
           d="M 70.793624,12.216474 V 9.4135428 h 0.760677 v 2.7739922 q 0,0.657324 0.256315,0.988054 0.256316,0.326595 0.768946,0.326595 0.615983,0 0.971517,-0.392741 0.359668,-0.392741 0.359668,-1.070736 V 9.4135428 h 0.760678 v 4.6302102 h -0.760678 v -0.711068 q -0.276985,0.42168 -0.644922,0.628386 -0.363802,0.202571 -0.847493,0.202571 -0.797885,0 -1.211297,-0.496094 -0.413411,-0.496094 -0.413411,-1.451074 z M 72.70772,9.3019217 Z" />
        <path
           id="path4265"
           style="font-size:8.46667px;text-align:center;text-anchor:middle"
           d="m 80.095386,11.24909 v 2.794663 h -0.760678 v -2.769858 q 0,-0.657324 -0.256315,-0.98392 -0.256315,-0.3265947 -0.768945,-0.3265947 -0.615984,0 -0.971518,0.3927407 -0.355534,0.392741 -0.355534,1.070736 v 2.616896 H 76.217585 V 9.4135428 h 0.764811 v 0.7193362 q 0.272852,-0.4175457 0.640788,-0.6242515 0.372071,-0.2067058 0.855762,-0.2067058 0.797885,0 1.207162,0.4960939 0.409278,0.4919594 0.409278,1.4510744 z" />
        <path
           id="path4267"
           style="font-size:8.46667px;text-align:center;text-anchor:middle"
           d="m 85.668173,7.8715175 h 0.7028 l -2.14974,6.9577175 h -0.7028 z" />
        <path
           id="path4269"
           style="font-size:8.46667px;text-align:center;text-anchor:middle"
           d="m 45.240651,23.932559 v 2.455665 H 44.47584 v -6.391343 h 0.764811 v 0.702799 q 0.239779,-0.413411 0.603581,-0.611849 0.367936,-0.202572 0.876433,-0.202572 0.843359,0 1.368392,0.669727 0.529167,0.669727 0.529167,1.761134 0,1.091406 -0.529167,1.761133 -0.525033,0.669727 -1.368392,0.669727 -0.508497,0 -0.876433,-0.198437 -0.363802,-0.202572 -0.603581,-0.615984 z m 2.587957,-1.616439 q 0,-0.839226 -0.347266,-1.314649 -0.343131,-0.479558 -0.946712,-0.479558 -0.603581,0 -0.950847,0.479558 -0.343132,0.475423 -0.343132,1.314649 0,0.839225 0.343132,1.318783 0.347266,0.475423 0.950847,0.475423 0.603581,0 0.946712,-0.475423 0.347266,-0.479558 0.347266,-1.318783 z" />
        <path
           id="path4271"
           style="font-size:8.46667px;text-align:center;text-anchor:middle"
           d="m 52.562171,20.707949 q -0.128158,-0.07441 -0.28112,-0.107487 -0.148828,-0.03721 -0.330729,-0.03721 -0.644922,0 -0.992188,0.421679 -0.343132,0.417546 -0.343132,1.203028 v 2.439129 h -0.764811 v -4.63021 h 0.764811 v 0.719336 q 0.239779,-0.42168 0.624252,-0.624252 0.384473,-0.206706 0.93431,-0.206706 0.07855,0 0.173633,0.0124 0.09508,0.0083 0.21084,0.02894 z" />
        <path
           id="path4273"
           style="font-size:8.46667px;text-align:center;text-anchor:middle"
           d="m 54.980629,20.530182 q -0.611849,0 -0.967383,0.479557 -0.355534,0.475423 -0.355534,1.306381 0,0.830957 0.3514,1.310515 0.355534,0.475423 0.971517,0.475423 0.607715,0 0.963249,-0.479557 0.355534,-0.479558 0.355534,-1.306381 0,-0.822689 -0.355534,-1.302247 -0.355534,-0.483691 -0.963249,-0.483691 z m 0,-0.644923 q 0.992188,0 1.558562,0.644923 0.566374,0.644922 0.566374,1.785938 0,1.136882 -0.566374,1.785938 -0.566374,0.644922 -1.558562,0.644922 -0.996322,0 -1.562696,-0.644922 -0.562239,-0.649056 -0.562239,-1.785938 0,-1.141016 0.562239,-1.785938 0.566374,-0.644923 1.562696,-0.644923 z" />
        <path
           id="path4275"
           style="font-size:8.46667px;text-align:center;text-anchor:middle"
           d="m 62.211198,21.832428 v 2.794663 h -0.760677 v -2.769858 q 0,-0.657325 -0.256316,-0.98392 -0.256315,-0.326595 -0.768945,-0.326595 -0.615984,0 -0.971518,0.392741 -0.355534,0.392741 -0.355534,1.070736 v 2.616896 h -0.764811 v -4.63021 h 0.764811 v 0.719336 q 0.272852,-0.417546 0.640788,-0.624252 0.372071,-0.206706 0.855763,-0.206706 0.797884,0 1.207161,0.496094 0.409278,0.49196 0.409278,1.451075 z" />
        <path
           id="path4277"
           style="font-size:8.46667px;text-align:center;text-anchor:middle"
           d="m 65.530894,20.530182 q -0.611849,0 -0.967383,0.479557 -0.355534,0.475423 -0.355534,1.306381 0,0.830957 0.351399,1.310515 0.355534,0.475423 0.971518,0.475423 0.607715,0 0.963249,-0.479557 0.355534,-0.479558 0.355534,-1.306381 0,-0.822689 -0.355534,-1.302247 -0.355534,-0.483691 -0.963249,-0.483691 z m 0,-0.644923 q 0.992188,0 1.558562,0.644923 0.566373,0.644922 0.566373,1.785938 0,1.136882 -0.566373,1.785938 -0.566374,0.644922 -1.558562,0.644922 -0.996322,0 -1.562696,-0.644922 -0.56224,-0.649056 -0.56224,-1.785938 0,-1.141016 0.56224,-1.785938 0.566374,-0.644923 1.562696,-0.644923 z" />
        <path
           id="path4279"
           style="font-size:8.46667px;text-align:center;text-anchor:middle"
           d="m 68.834052,22.799811 v -2.80293 h 0.760677 v 2.773992 q 0,0.657324 0.256316,0.988053 0.256315,0.326596 0.768945,0.326596 0.615983,0 0.971517,-0.392742 0.359669,-0.392741 0.359669,-1.070736 v -2.625163 h 0.760677 v 4.63021 h -0.760677 v -0.711068 q -0.276986,0.42168 -0.644923,0.628385 -0.363802,0.202572 -0.847493,0.202572 -0.797885,0 -1.211296,-0.496094 -0.413412,-0.496094 -0.413412,-1.451075 z m 1.914096,-2.914552 z" />
        <path
           id="path4281"
           style="font-size:8.46667px;text-align:center;text-anchor:middle"
           d="m 78.135814,21.832428 v 2.794663 h -0.760678 v -2.769858 q 0,-0.657325 -0.256315,-0.98392 -0.256315,-0.326595 -0.768945,-0.326595 -0.615984,0 -0.971518,0.392741 -0.355534,0.392741 -0.355534,1.070736 v 2.616896 h -0.764811 v -4.63021 h 0.764811 v 0.719336 q 0.272852,-0.417546 0.640788,-0.624252 0.372071,-0.206706 0.855762,-0.206706 0.797885,0 1.207162,0.496094 0.409278,0.49196 0.409278,1.451075 z" />
      </g>
      <text
         style="font-style:normal;font-weight:normal;font-size:10.5833px;line-height:1.25;font-family:sans-serif;white-space:pre;shape-inside:url(#rect1373);fill:#000000;fill-opacity:1;stroke:none;"
         id="text1371"
         xml:space="preserve" />
      <g
         style="font-style:normal;font-weight:normal;font-size:10.5833px;line-height:0;font-family:sans-serif;white-space:pre;shape-inside:url(#rect1379);fill:#000000;fill-opacity:1;stroke:none"
         id="text1377"
         transform="translate(-17.742287,16.252976)"
         aria-label="(but inflected if
1st or 2nd pers. pronoun)">
        <path
           id="path4284"
           style="font-size:6.35px;line-height:1.15;text-align:center;text-anchor:middle"
           d="m 56.069019,36.140654 q -0.415479,0.713135 -0.617017,1.410767 -0.201538,0.697632 -0.201538,1.413867 0,0.716235 0.201538,1.420068 0.204639,0.700733 0.617017,1.410767 h -0.496094 q -0.465088,-0.728638 -0.697632,-1.432471 -0.229443,-0.703833 -0.229443,-1.398364 0,-0.691431 0.229443,-1.392163 0.229444,-0.700733 0.697632,-1.432471 z" />
        <path
           id="path4286"
           style="font-size:6.35px;line-height:1.15;text-align:center;text-anchor:middle"
           d="m 59.6719,39.225737 q 0,-0.629419 -0.260449,-0.985986 -0.257349,-0.359668 -0.710035,-0.359668 -0.452685,0 -0.713134,0.359668 -0.257349,0.356567 -0.257349,0.985986 0,0.629419 0.257349,0.989087 0.260449,0.356567 0.713134,0.356567 0.452686,0 0.710035,-0.356567 0.260449,-0.359668 0.260449,-0.989087 z m -1.940967,-1.212329 q 0.179834,-0.310058 0.452686,-0.458887 0.275952,-0.151928 0.657324,-0.151928 0.632519,0 1.026294,0.502295 0.396875,0.502295 0.396875,1.320849 0,0.818555 -0.396875,1.32085 -0.393775,0.502295 -1.026294,0.502295 -0.381372,0 -0.657324,-0.148828 -0.272852,-0.151929 -0.452686,-0.461988 v 0.520899 h -0.573608 v -4.824512 h 0.573608 z" />
        <path
           id="path4288"
           style="font-size:6.35px;line-height:1.15;text-align:center;text-anchor:middle"
           d="m 61.150879,39.588506 v -2.102198 h 0.570508 v 2.080494 q 0,0.492993 0.192236,0.74104 0.192237,0.244946 0.576709,0.244946 0.461988,0 0.728638,-0.294556 0.269751,-0.294555 0.269751,-0.803051 v -1.968873 h 0.570508 v 3.472657 h -0.570508 v -0.533301 q -0.207739,0.31626 -0.483691,0.471289 -0.272852,0.151929 -0.63562,0.151929 -0.598414,0 -0.908472,-0.372071 -0.310059,-0.37207 -0.310059,-1.088305 z m 1.435572,-2.185913 z" />
        <path
           id="path4290"
           style="font-size:6.35px;line-height:1.15;text-align:center;text-anchor:middle"
           d="m 65.804859,36.500322 v 0.985986 h 1.175122 v 0.443384 h -1.175122 v 1.885156 q 0,0.424781 0.114721,0.545704 0.117823,0.120922 0.47439,0.120922 h 0.586011 v 0.477491 H 66.39397 q -0.660425,0 -0.911572,-0.244947 -0.251148,-0.248046 -0.251148,-0.89917 v -1.885156 h -0.418579 v -0.443384 h 0.418579 v -0.985986 z" />
        <path
           id="path4292"
           style="font-size:6.35px;line-height:1.15;text-align:center;text-anchor:middle"
           d="m 69.755005,37.486308 h 0.570508 v 3.472657 h -0.570508 z m 0,-1.351855 h 0.570508 v 0.722437 h -0.570508 z" />
        <path
           id="path4294"
           style="font-size:6.35px;line-height:1.15;text-align:center;text-anchor:middle"
           d="m 74.402783,38.862969 v 2.095996 h -0.570508 v -2.077393 q 0,-0.492993 -0.192236,-0.737939 -0.192237,-0.244947 -0.576709,-0.244947 -0.461988,0 -0.728638,0.294556 -0.26665,0.294556 -0.26665,0.803052 v 1.962671 h -0.573609 v -3.472657 h 0.573609 v 0.539502 q 0.204638,-0.313159 0.48059,-0.468188 0.279053,-0.155029 0.641822,-0.155029 0.598413,0 0.905371,0.37207 0.306958,0.36897 0.306958,1.088306 z" />
        <path
           id="path4296"
           style="font-size:6.35px;line-height:1.15;text-align:center;text-anchor:middle"
           d="m 76.765429,36.134453 h 1.5875 v 4.824512 h -0.573608 v -4.350122 h -1.020093 q -0.306958,0 -0.427881,0.124023 -0.117822,0.124024 -0.117822,0.446484 v 0.306958 h 0.939477 v 0.443384 h -0.939477 v 3.029273 h -0.573608 v -3.029273 h -0.545704 v -0.443384 h 0.545704 v -0.241845 q 0,-0.57981 0.269751,-0.84336 0.269751,-0.26665 0.855761,-0.26665 z" />
        <path
           id="path4298"
           style="font-size:6.35px;line-height:1.15;text-align:center;text-anchor:middle"
           d="m 82.523219,39.08001 v 0.279052 h -2.623096 q 0.03721,0.589112 0.353467,0.89917 0.31936,0.306958 0.886768,0.306958 0.328662,0 0.63562,-0.08062 0.310058,-0.08062 0.613916,-0.241846 v 0.539502 q -0.306958,0.130225 -0.629419,0.198438 -0.322461,0.06821 -0.654224,0.06821 -0.830957,0 -1.317749,-0.483692 -0.483691,-0.483691 -0.483691,-1.308447 0,-0.852661 0.458886,-1.351855 0.461988,-0.502295 1.243335,-0.502295 0.700733,0 1.10691,0.452685 0.409277,0.449585 0.409277,1.224732 z m -0.570508,-0.167432 q -0.0062,-0.468188 -0.26355,-0.747241 -0.254248,-0.279053 -0.675927,-0.279053 -0.477491,0 -0.765845,0.269751 -0.285254,0.269751 -0.328662,0.759644 z" />
        <path
           id="path4300"
           style="font-size:6.35px;line-height:1.15;text-align:center;text-anchor:middle"
           d="m 85.958668,37.619634 v 0.5333 q -0.241846,-0.133325 -0.486792,-0.198437 -0.241846,-0.06821 -0.489892,-0.06821 -0.555005,0 -0.861963,0.353467 -0.306958,0.350366 -0.306958,0.985986 0,0.63562 0.306958,0.989087 0.306958,0.350366 0.861963,0.350366 0.248046,0 0.489892,-0.06511 0.244946,-0.06821 0.486792,-0.201538 v 0.527099 q -0.238745,0.111622 -0.496094,0.167432 -0.254248,0.05581 -0.542602,0.05581 -0.784448,0 -1.246436,-0.492993 -0.461987,-0.492994 -0.461987,-1.330152 0,-0.84956 0.465088,-1.336352 0.468188,-0.486792 1.280542,-0.486792 0.26355,0 0.514697,0.05581 0.251148,0.05271 0.486792,0.161231 z" />
        <path
           id="path4302"
           style="font-size:6.35px;line-height:1.15;text-align:center;text-anchor:middle"
           d="m 87.521362,36.500322 v 0.985986 h 1.175122 v 0.443384 h -1.175122 v 1.885156 q 0,0.424781 0.114722,0.545704 0.117822,0.120922 0.474389,0.120922 h 0.586011 v 0.477491 h -0.586011 q -0.660425,0 -0.911572,-0.244947 -0.251147,-0.248046 -0.251147,-0.89917 v -1.885156 h -0.41858 v -0.443384 h 0.41858 v -0.985986 z" />
        <path
           id="path4304"
           style="font-size:6.35px;line-height:1.15;text-align:center;text-anchor:middle"
           d="m 92.420287,39.08001 v 0.279052 h -2.623096 q 0.03721,0.589112 0.353467,0.89917 0.31936,0.306958 0.886768,0.306958 0.328662,0 0.63562,-0.08062 0.310058,-0.08062 0.613916,-0.241846 v 0.539502 q -0.306958,0.130225 -0.629419,0.198438 -0.322461,0.06821 -0.654224,0.06821 -0.830957,0 -1.317749,-0.483692 -0.483691,-0.483691 -0.483691,-1.308447 0,-0.852661 0.458886,-1.351855 0.461988,-0.502295 1.243335,-0.502295 0.700733,0 1.10691,0.452685 0.409277,0.449585 0.409277,1.224732 z m -0.570508,-0.167432 q -0.0062,-0.468188 -0.26355,-0.747241 -0.254248,-0.279053 -0.675927,-0.279053 -0.477491,0 -0.765845,0.269751 -0.285254,0.269751 -0.328662,0.759644 z" />
        <path
           id="path4306"
           style="font-size:6.35px;line-height:1.15;text-align:center;text-anchor:middle"
           d="m 95.641796,38.013408 v -1.878955 h 0.570507 v 4.824512 h -0.570507 v -0.520899 q -0.179834,0.310059 -0.455786,0.461988 -0.272852,0.148828 -0.657325,0.148828 -0.629419,0 -1.026294,-0.502295 -0.393774,-0.502295 -0.393774,-1.32085 0,-0.818554 0.393774,-1.320849 0.396875,-0.502295 1.026294,-0.502295 0.384473,0 0.657325,0.151928 0.275952,0.148829 0.455786,0.458887 z m -1.944068,1.212329 q 0,0.629419 0.257349,0.989087 0.260449,0.356567 0.713135,0.356567 0.452685,0 0.713134,-0.356567 0.26045,-0.359668 0.26045,-0.989087 0,-0.629419 -0.26045,-0.985986 -0.260449,-0.359668 -0.713134,-0.359668 -0.452686,0 -0.713135,0.359668 -0.257349,0.356567 -0.257349,0.985986 z" />
        <path
           id="path4308"
           style="font-size:6.35px;line-height:1.15;text-align:center;text-anchor:middle"
           d="m 99.409009,37.486308 h 0.570508 v 3.472657 h -0.570508 z m 0,-1.351855 h 0.570508 v 0.722437 h -0.570508 z" />
        <path
           id="path4310"
           style="font-size:6.35px;line-height:1.15;text-align:center;text-anchor:middle"
           d="m 102.92817,36.134453 v 0.47439 h -0.5457 q -0.30696,0 -0.42788,0.124023 -0.11782,0.124024 -0.11782,0.446484 v 0.306958 h 0.93947 v 0.443384 h -0.93947 v 3.029273 h -0.57361 v -3.029273 h -0.54571 v -0.443384 h 0.54571 v -0.241845 q 0,-0.57981 0.26975,-0.84336 0.26975,-0.26665 0.85576,-0.26665 z" />
        <path
           id="path4312"
           style="font-size:6.35px;line-height:1.15;text-align:center;text-anchor:middle"
           d="m 54.038135,47.734363 h 1.023193 v -3.531567 l -1.11311,0.223242 V 43.85553 l 1.106909,-0.223242 h 0.626319 v 4.102075 h 1.023193 v 0.5271 h -2.666504 z" />
        <path
           id="path4314"
           style="font-size:6.35px;line-height:1.15;text-align:center;text-anchor:middle"
           d="m 60.105981,44.891126 v 0.539502 q -0.241845,-0.124024 -0.502294,-0.186036 -0.26045,-0.06201 -0.539502,-0.06201 -0.424781,0 -0.638721,0.130224 -0.21084,0.130225 -0.21084,0.390674 0,0.198438 0.151929,0.313159 0.151929,0.111621 0.610815,0.213941 l 0.195337,0.04341 q 0.607715,0.130225 0.861963,0.36897 0.257349,0.235644 0.257349,0.660425 0,0.483691 -0.384473,0.765844 -0.381372,0.282154 -1.051099,0.282154 -0.279052,0 -0.58291,-0.05581 -0.300757,-0.05271 -0.63562,-0.16123 v -0.589112 q 0.31626,0.164331 0.623218,0.248047 0.306958,0.08062 0.607715,0.08062 0.403076,0 0.620117,-0.136425 0.217041,-0.139527 0.217041,-0.390674 0,-0.232544 -0.15813,-0.356568 -0.155029,-0.124023 -0.685229,-0.238745 l -0.198438,-0.04651 q -0.5302,-0.111621 -0.765845,-0.341064 -0.235644,-0.232544 -0.235644,-0.63562 0,-0.489893 0.347265,-0.756543 0.347266,-0.26665 0.985987,-0.26665 0.31626,0 0.595312,0.04651 0.279053,0.04651 0.514697,0.139527 z" />
        <path
           id="path4316"
           style="font-size:6.35px;line-height:1.15;text-align:center;text-anchor:middle"
           d="m 61.767895,43.80282 v 0.985986 h 1.175123 v 0.443384 h -1.175123 v 1.885156 q 0,0.424781 0.114722,0.545703 0.117822,0.120923 0.47439,0.120923 h 0.586011 v 0.477491 h -0.586011 q -0.660425,0 -0.911572,-0.244947 -0.251148,-0.248047 -0.251148,-0.89917 V 45.23219 h -0.418579 v -0.443384 h 0.418579 V 43.80282 Z" />
        <path
           id="path4318"
           style="font-size:6.35px;line-height:1.15;text-align:center;text-anchor:middle"
           d="m 67.063696,45.188782 q -0.458887,0 -0.725537,0.359668 -0.26665,0.356567 -0.26665,0.979785 0,0.623218 0.263549,0.982886 0.266651,0.356567 0.728638,0.356567 0.455786,0 0.722437,-0.359668 0.26665,-0.359668 0.26665,-0.979785 0,-0.617017 -0.26665,-0.976685 -0.266651,-0.362768 -0.722437,-0.362768 z m 0,-0.483691 q 0.744141,0 1.168921,0.483691 0.42478,0.483691 0.42478,1.339453 0,0.852661 -0.42478,1.339453 -0.42478,0.483692 -1.168921,0.483692 -0.747241,0 -1.172021,-0.483692 -0.42168,-0.486792 -0.42168,-1.339453 0,-0.855762 0.42168,-1.339453 0.42478,-0.483691 1.172021,-0.483691 z" />
        <path
           id="path4320"
           style="font-size:6.35px;line-height:1.15;text-align:center;text-anchor:middle"
           d="m 71.612255,45.322107 q -0.09612,-0.05581 -0.21084,-0.08062 -0.111621,-0.02791 -0.248046,-0.02791 -0.483692,0 -0.744141,0.316259 -0.257349,0.31316 -0.257349,0.902271 v 1.829346 h -0.573608 v -3.472657 h 0.573608 v 0.539502 q 0.179834,-0.316259 0.468189,-0.468188 0.288354,-0.155029 0.700732,-0.155029 0.05891,0 0.130225,0.0093 0.07131,0.0062 0.15813,0.0217 z" />
        <path
           id="path4322"
           style="font-size:6.35px;line-height:1.15;text-align:center;text-anchor:middle"
           d="m 74.858569,47.734363 h 2.185913 v 0.5271 h -2.939356 v -0.5271 q 0.356568,-0.36897 0.970484,-0.989087 0.617016,-0.623218 0.775146,-0.803052 0.300757,-0.337964 0.418579,-0.570507 0.120923,-0.235645 0.120923,-0.461988 0,-0.36897 -0.260449,-0.601513 -0.257349,-0.232544 -0.672827,-0.232544 -0.294556,0 -0.623218,0.102319 -0.325562,0.102319 -0.697632,0.310059 v -0.63252 q 0.378272,-0.151929 0.706934,-0.229443 0.328662,-0.07751 0.601513,-0.07751 0.719336,0 1.147217,0.359668 0.427881,0.359668 0.427881,0.961182 0,0.285253 -0.108521,0.542602 -0.10542,0.254248 -0.387573,0.601514 -0.07751,0.08992 -0.492993,0.520898 -0.415478,0.427881 -1.172021,1.199927 z" />
        <path
           id="path4324"
           style="font-size:6.35px;line-height:1.15;text-align:center;text-anchor:middle"
           d="m 81.16826,46.165466 v 2.095997 H 80.597752 V 46.18407 q 0,-0.492993 -0.192236,-0.737939 -0.192236,-0.244947 -0.576709,-0.244947 -0.461987,0 -0.728638,0.294556 -0.26665,0.294556 -0.26665,0.803052 v 1.962671 h -0.573608 v -3.472657 h 0.573608 v 0.539502 q 0.204639,-0.313159 0.480591,-0.468188 0.279053,-0.155029 0.641821,-0.155029 0.598413,0 0.905371,0.37207 0.306958,0.36897 0.306958,1.088305 z" />
        <path
           id="path4326"
           style="font-size:6.35px;line-height:1.15;text-align:center;text-anchor:middle"
           d="m 84.597508,45.315906 v -1.878955 h 0.570508 v 4.824512 h -0.570508 v -0.520899 q -0.179834,0.310059 -0.455786,0.461987 -0.272851,0.148829 -0.657324,0.148829 -0.629419,0 -1.026294,-0.502295 -0.393774,-0.502295 -0.393774,-1.32085 0,-0.818555 0.393774,-1.32085 0.396875,-0.502294 1.026294,-0.502294 0.384473,0 0.657324,0.151928 0.275952,0.148828 0.455786,0.458887 z m -1.944067,1.212329 q 0,0.629419 0.257348,0.989087 0.26045,0.356567 0.713135,0.356567 0.452686,0 0.713135,-0.356567 0.260449,-0.359668 0.260449,-0.989087 0,-0.629419 -0.260449,-0.985986 -0.260449,-0.359668 -0.713135,-0.359668 -0.452685,0 -0.713135,0.359668 -0.257348,0.356567 -0.257348,0.985986 z" />
        <path
           id="path4328"
           style="font-size:6.35px;line-height:1.15;text-align:center;text-anchor:middle"
           d="m 88.916624,47.740564 v 1.841748 h -0.573608 v -4.793506 h 0.573608 v 0.5271 q 0.179834,-0.310059 0.452686,-0.458887 0.275952,-0.151928 0.657324,-0.151928 0.632519,0 1.026294,0.502294 0.396875,0.502295 0.396875,1.32085 0,0.818555 -0.396875,1.32085 -0.393775,0.502295 -1.026294,0.502295 -0.381372,0 -0.657324,-0.148829 -0.272852,-0.151928 -0.452686,-0.461987 z m 1.940967,-1.212329 q 0,-0.629419 -0.260449,-0.985986 -0.257349,-0.359668 -0.710035,-0.359668 -0.452685,0 -0.713134,0.359668 -0.257349,0.356567 -0.257349,0.985986 0,0.629419 0.257349,0.989087 0.260449,0.356567 0.713134,0.356567 0.452686,0 0.710035,-0.356567 0.260449,-0.359668 0.260449,-0.989087 z" />
        <path
           id="path4330"
           style="font-size:6.35px;line-height:1.15;text-align:center;text-anchor:middle"
           d="m 95.365843,46.382508 v 0.279052 h -2.623096 q 0.03721,0.589112 0.353467,0.89917 0.31936,0.306958 0.886767,0.306958 0.328663,0 0.635621,-0.08062 0.310058,-0.08062 0.613916,-0.241846 v 0.539502 q -0.306958,0.130225 -0.629419,0.198438 -0.322461,0.06821 -0.654224,0.06821 -0.830957,0 -1.317749,-0.483692 -0.483691,-0.483691 -0.483691,-1.308447 0,-0.852661 0.458886,-1.351856 0.461988,-0.502294 1.243335,-0.502294 0.700733,0 1.106909,0.452685 0.409278,0.449585 0.409278,1.224732 z m -0.570508,-0.167432 q -0.0062,-0.468189 -0.26355,-0.747241 -0.254248,-0.279053 -0.675928,-0.279053 -0.47749,0 -0.765844,0.269751 -0.285254,0.269751 -0.328662,0.759643 z" />
        <path
           id="path4332"
           style="font-size:6.35px;line-height:1.15;text-align:center;text-anchor:middle"
           d="m 98.3145,45.322107 q -0.09612,-0.05581 -0.21084,-0.08062 -0.111621,-0.02791 -0.248047,-0.02791 -0.483691,0 -0.74414,0.316259 -0.257349,0.31316 -0.257349,0.902271 v 1.829346 h -0.573608 v -3.472657 h 0.573608 v 0.539502 q 0.179834,-0.316259 0.468189,-0.468188 0.288354,-0.155029 0.700732,-0.155029 0.05891,0 0.130225,0.0093 0.07131,0.0062 0.158129,0.0217 z" />
        <path
           id="path4334"
           style="font-size:6.35px;line-height:1.15;text-align:center;text-anchor:middle"
           d="m 101.13293,44.891126 v 0.539502 q -0.24184,-0.124024 -0.50229,-0.186036 -0.26045,-0.06201 -0.53951,-0.06201 -0.424775,0 -0.638716,0.130224 -0.21084,0.130225 -0.21084,0.390674 0,0.198438 0.151929,0.313159 0.151929,0.111621 0.610817,0.213941 l 0.19534,0.04341 q 0.60771,0.130225 0.86196,0.36897 0.25735,0.235644 0.25735,0.660425 0,0.483691 -0.38448,0.765844 -0.38137,0.282154 -1.051094,0.282154 -0.279053,0 -0.58291,-0.05581 -0.300757,-0.05271 -0.635621,-0.16123 v -0.589112 q 0.31626,0.164331 0.623218,0.248047 0.306958,0.08062 0.607715,0.08062 0.403072,0 0.620122,-0.136425 0.21704,-0.139527 0.21704,-0.390674 0,-0.232544 -0.15813,-0.356568 -0.15503,-0.124023 -0.685233,-0.238745 l -0.198438,-0.04651 q -0.5302,-0.111621 -0.765844,-0.341064 -0.235645,-0.232544 -0.235645,-0.63562 0,-0.489893 0.347266,-0.756543 0.347265,-0.26665 0.985984,-0.26665 0.31626,0 0.59531,0.04651 0.27906,0.04651 0.5147,0.139527 z" />
        <path
           id="path4336"
           style="font-size:6.35px;line-height:1.15;text-align:center;text-anchor:middle"
           d="m 102.31116,47.473914 h 0.65422 v 0.787549 h -0.65422 z" />
        <path
           id="path4338"
           style="font-size:6.35px;line-height:1.15;text-align:center;text-anchor:middle"
           d="m 65.17854,55.043062 v 1.841748 h -0.573608 v -4.793506 h 0.573608 v 0.5271 q 0.179834,-0.310059 0.452686,-0.458887 0.275952,-0.151929 0.657324,-0.151929 0.63252,0 1.026294,0.502295 0.396875,0.502295 0.396875,1.32085 0,0.818555 -0.396875,1.320849 -0.393774,0.502295 -1.026294,0.502295 -0.381372,0 -0.657324,-0.148828 -0.272852,-0.151928 -0.452686,-0.461987 z m 1.940967,-1.212329 q 0,-0.629419 -0.260449,-0.985986 -0.257349,-0.359668 -0.710034,-0.359668 -0.452686,0 -0.713135,0.359668 -0.257349,0.356567 -0.257349,0.985986 0,0.629419 0.257349,0.989087 0.260449,0.356567 0.713135,0.356567 0.452685,0 0.710034,-0.356567 0.260449,-0.359668 0.260449,-0.989087 z" />
        <path
           id="path4340"
           style="font-size:6.35px;line-height:1.15;text-align:center;text-anchor:middle"
           d="m 70.669678,52.624605 q -0.09612,-0.05581 -0.21084,-0.08062 -0.111621,-0.02791 -0.248047,-0.02791 -0.483691,0 -0.74414,0.31626 -0.257349,0.313159 -0.257349,0.902271 v 1.829345 h -0.573608 v -3.472656 h 0.573608 v 0.539502 q 0.179834,-0.31626 0.468188,-0.468188 0.288355,-0.15503 0.700733,-0.15503 0.05891,0 0.130224,0.0093 0.07131,0.0062 0.15813,0.0217 z" />
        <path
           id="path4342"
           style="font-size:6.35px;line-height:1.15;text-align:center;text-anchor:middle"
           d="m 72.483521,52.49128 q -0.458887,0 -0.725537,0.359668 -0.266651,0.356567 -0.266651,0.979785 0,0.623218 0.26355,0.982886 0.26665,0.356567 0.728638,0.356567 0.455786,0 0.722436,-0.359668 0.266651,-0.359668 0.266651,-0.979785 0,-0.617017 -0.266651,-0.976685 -0.26665,-0.362768 -0.722436,-0.362768 z m 0,-0.483692 q 0.74414,0 1.168921,0.483692 0.42478,0.483691 0.42478,1.339453 0,0.852661 -0.42478,1.339453 -0.424781,0.483691 -1.168921,0.483691 -0.747242,0 -1.172022,-0.483691 -0.421679,-0.486792 -0.421679,-1.339453 0,-0.855762 0.421679,-1.339453 0.42478,-0.483692 1.172022,-0.483692 z" />
        <path
           id="path4344"
           style="font-size:6.35px;line-height:1.15;text-align:center;text-anchor:middle"
           d="m 77.906445,53.467964 v 2.095996 h -0.570508 v -2.077392 q 0,-0.492993 -0.192236,-0.73794 -0.192236,-0.244946 -0.576709,-0.244946 -0.461987,0 -0.728638,0.294556 -0.26665,0.294555 -0.26665,0.803052 v 1.96267 h -0.573608 v -3.472656 h 0.573608 v 0.539502 q 0.204639,-0.313159 0.480591,-0.468188 0.279052,-0.15503 0.641821,-0.15503 0.598413,0 0.905371,0.372071 0.306958,0.368969 0.306958,1.088305 z" />
        <path
           id="path4346"
           style="font-size:6.35px;line-height:1.15;text-align:center;text-anchor:middle"
           d="m 80.396216,52.49128 q -0.458887,0 -0.725537,0.359668 -0.266651,0.356567 -0.266651,0.979785 0,0.623218 0.26355,0.982886 0.26665,0.356567 0.728638,0.356567 0.455786,0 0.722436,-0.359668 0.266651,-0.359668 0.266651,-0.979785 0,-0.617017 -0.266651,-0.976685 -0.26665,-0.362768 -0.722436,-0.362768 z m 0,-0.483692 q 0.74414,0 1.168921,0.483692 0.42478,0.483691 0.42478,1.339453 0,0.852661 -0.42478,1.339453 -0.424781,0.483691 -1.168921,0.483691 -0.747242,0 -1.172022,-0.483691 -0.42168,-0.486792 -0.42168,-1.339453 0,-0.855762 0.42168,-1.339453 0.42478,-0.483692 1.172022,-0.483692 z" />
        <path
           id="path4348"
           style="font-size:6.35px;line-height:1.15;text-align:center;text-anchor:middle"
           d="m 82.873583,54.193501 v -2.102197 h 0.570508 v 2.080493 q 0,0.492994 0.192237,0.74104 0.192236,0.244947 0.576709,0.244947 0.461987,0 0.728637,-0.294556 0.269751,-0.294556 0.269751,-0.803052 v -1.968872 h 0.570508 v 3.472656 h -0.570508 v -0.5333 q -0.207739,0.316259 -0.483691,0.471289 -0.272852,0.151928 -0.63562,0.151928 -0.598413,0 -0.908472,-0.37207 -0.310059,-0.37207 -0.310059,-1.088306 z m 1.435572,-2.185913 z" />
        <path
           id="path4350"
           style="font-size:6.35px;line-height:1.15;text-align:center;text-anchor:middle"
           d="m 89.849902,53.467964 v 2.095996 h -0.570508 v -2.077392 q 0,-0.492993 -0.192236,-0.73794 -0.192237,-0.244946 -0.576709,-0.244946 -0.461988,0 -0.728638,0.294556 -0.26665,0.294555 -0.26665,0.803052 v 1.96267 h -0.573609 v -3.472656 h 0.573609 v 0.539502 q 0.204638,-0.313159 0.48059,-0.468188 0.279053,-0.15503 0.641822,-0.15503 0.598413,0 0.905371,0.372071 0.306958,0.368969 0.306958,1.088305 z" />
        <path
           id="path4352"
           style="font-size:6.35px;line-height:1.15;text-align:center;text-anchor:middle"
           d="m 90.904101,50.74565 h 0.496094 q 0.465088,0.731738 0.694531,1.432471 0.232544,0.700732 0.232544,1.392163 0,0.694531 -0.232544,1.398364 -0.229443,0.703833 -0.694531,1.432471 h -0.496094 q 0.412378,-0.710035 0.613916,-1.410767 0.204639,-0.703833 0.204639,-1.420068 0,-0.716236 -0.204639,-1.413867 -0.201538,-0.697632 -0.613916,-1.410767 z" />
      </g>
      <g
         style="font-style:normal;font-weight:normal;font-size:8.46667px;line-height:1.25;font-family:sans-serif;white-space:pre;shape-inside:url(#rect1385);fill:#000000;fill-opacity:1;stroke:none"
         id="text1383"
         transform="translate(17.164648,116.82151)"
         aria-label="or">
        <path
           id="path4355"
           style="shape-inside:url(#rect1385)"
           d="m 41.924122,-39.945734 q -0.611849,0 -0.967383,0.479557 -0.355534,0.475424 -0.355534,1.306381 0,0.830957 0.3514,1.310515 0.355534,0.475423 0.971517,0.475423 0.607715,0 0.963249,-0.479557 0.355534,-0.479558 0.355534,-1.306381 0,-0.822689 -0.355534,-1.302247 -0.355534,-0.483691 -0.963249,-0.483691 z m 0,-0.644922 q 0.992188,0 1.558562,0.644922 0.566374,0.644922 0.566374,1.785938 0,1.136882 -0.566374,1.785938 -0.566374,0.644922 -1.558562,0.644922 -0.996322,0 -1.562696,-0.644922 -0.56224,-0.649056 -0.56224,-1.785938 0,-1.141016 0.56224,-1.785938 0.566374,-0.644922 1.562696,-0.644922 z" />
        <path
           id="path4357"
           style="shape-inside:url(#rect1385)"
           d="m 47.98887,-39.767967 q -0.128157,-0.07441 -0.281119,-0.107487 -0.148829,-0.03721 -0.33073,-0.03721 -0.644922,0 -0.992188,0.421679 -0.343131,0.417546 -0.343131,1.203028 v 2.439129 H 45.27689 v -4.63021 h 0.764812 v 0.719336 q 0.239778,-0.42168 0.624251,-0.624252 0.384473,-0.206705 0.934311,-0.206705 0.07855,0 0.173632,0.0124 0.09508,0.0083 0.21084,0.02894 z" />
      </g>
      <g
         style="font-style:normal;font-weight:normal;font-size:10.5833px;line-height:0.85;font-family:sans-serif;white-space:pre;shape-inside:url(#rect1391);fill:#000000;fill-opacity:1;stroke:none"
         id="text1389"
         transform="translate(29.419485,154.59226)"
         aria-label="enclitic (mini)
pronoun">
        <path
           id="path4360"
           style="font-size:8.46667px;text-align:center;text-anchor:middle"
           d="m 7.5745021,-65.810929 v 0.372071 H 4.0770398 q 0.049609,0.785482 0.4712892,1.198893 0.425814,0.409278 1.1823573,0.409278 0.4382163,0 0.8474938,-0.107487 0.4134116,-0.107487 0.818555,-0.322461 v 0.719336 q -0.4092775,0.173633 -0.8392256,0.264583 -0.4299481,0.09095 -0.8722985,0.09095 -1.1079432,0 -1.7569994,-0.644922 -0.6449222,-0.644922 -0.6449222,-1.744597 0,-1.136882 0.6118492,-1.802475 0.6159834,-0.669727 1.6577807,-0.669727 0.9343102,0 1.4758794,0.603581 0.5457034,0.599447 0.5457034,1.632976 z m -0.7606774,-0.223242 q -0.00827,-0.624252 -0.3513999,-0.996322 -0.3389975,-0.372071 -0.9012373,-0.372071 -0.6366539,0 -1.0211267,0.359668 -0.3803387,0.359669 -0.4382163,1.012859 z" />
        <path
           id="path4362"
           style="font-size:8.46667px;text-align:center;text-anchor:middle"
           d="m 12.671867,-66.100317 v 2.794663 H 11.91119 v -2.769858 q 0,-0.657325 -0.256315,-0.98392 -0.256316,-0.326595 -0.768946,-0.326595 -0.615983,0 -0.9715173,0.392741 -0.355534,0.392741 -0.355534,1.070736 v 2.616896 H 8.7940662 v -4.630211 h 0.7648115 v 0.719337 q 0.2728517,-0.417546 0.6407883,-0.624252 0.37207,-0.206706 0.855762,-0.206706 0.797884,0 1.207162,0.496094 0.409277,0.49196 0.409277,1.451075 z" />
        <path
           id="path4364"
           style="font-size:8.46667px;text-align:center;text-anchor:middle"
           d="m 17.529454,-67.758098 v 0.711068 q -0.322461,-0.177767 -0.649056,-0.264583 -0.322461,-0.09095 -0.65319,-0.09095 -0.740007,0 -1.149285,0.47129 -0.409277,0.467155 -0.409277,1.314649 0,0.847493 0.409277,1.318783 0.409278,0.467155 1.149285,0.467155 0.330729,0 0.65319,-0.08682 0.326595,-0.09095 0.649056,-0.268717 v 0.7028 q -0.318327,0.148828 -0.661458,0.223242 -0.338998,0.07441 -0.723471,0.07441 -1.045931,0 -1.661914,-0.657325 -0.615984,-0.657324 -0.615984,-1.773535 0,-1.132748 0.620118,-1.781805 0.624251,-0.649056 1.70739,-0.649056 0.3514,0 0.686263,0.07441 0.334863,0.07028 0.649056,0.214974 z" />
        <path
           id="path4366"
           style="font-size:8.46667px;text-align:center;text-anchor:middle"
           d="m 18.860639,-69.738339 h 0.760677 v 6.432685 h -0.760677 z" />
        <path
           id="path4368"
           style="font-size:8.46667px;text-align:center;text-anchor:middle"
           d="m 21.208818,-67.935865 h 0.760677 v 4.630211 h -0.760677 z m 0,-1.802474 h 0.760677 v 0.963249 h -0.760677 z" />
        <path
           id="path4370"
           style="font-size:8.46667px;text-align:center;text-anchor:middle"
           d="m 24.309404,-69.250514 v 1.314649 h 1.56683 v 0.591179 h -1.56683 v 2.513543 q 0,0.566374 0.152962,0.727604 0.157097,0.161231 0.63252,0.161231 h 0.781348 v 0.636654 h -0.781348 q -0.880567,0 -1.21543,-0.326596 -0.334864,-0.330729 -0.334864,-1.198893 v -2.513543 h -0.558105 v -0.591179 h 0.558105 v -1.314649 z" />
        <path
           id="path4372"
           style="font-size:8.46667px;text-align:center;text-anchor:middle"
           d="m 26.880824,-67.935865 h 0.760678 v 4.630211 h -0.760678 z m 0,-1.802474 h 0.760678 v 0.963249 h -0.760678 z" />
        <path
           id="path4374"
           style="font-size:8.46667px;text-align:center;text-anchor:middle"
           d="m 32.561099,-67.758098 v 0.711068 q -0.322461,-0.177767 -0.649056,-0.264583 -0.322461,-0.09095 -0.653191,-0.09095 -0.740006,0 -1.149284,0.47129 -0.409277,0.467155 -0.409277,1.314649 0,0.847493 0.409277,1.318783 0.409278,0.467155 1.149284,0.467155 0.33073,0 0.653191,-0.08682 0.326595,-0.09095 0.649056,-0.268717 v 0.7028 q -0.318327,0.148828 -0.661459,0.223242 -0.338997,0.07441 -0.72347,0.07441 -1.045931,0 -1.661915,-0.657325 -0.615983,-0.657324 -0.615983,-1.773535 0,-1.132748 0.620117,-1.781805 0.624252,-0.649056 1.70739,-0.649056 0.3514,0 0.686264,0.07441 0.334863,0.07028 0.649056,0.214974 z" />
        <path
           id="path4376"
           style="font-size:8.46667px;text-align:center;text-anchor:middle"
           d="m 38.415007,-69.730071 q -0.553971,0.950847 -0.822689,1.881023 -0.268717,0.930176 -0.268717,1.885157 0,0.954981 0.268717,1.893425 0.272852,0.93431 0.822689,1.881023 h -0.661458 q -0.620118,-0.971517 -0.930177,-1.909962 -0.305924,-0.938444 -0.305924,-1.864486 0,-0.921908 0.305924,-1.856218 0.305925,-0.934311 0.930177,-1.909962 z" />
        <path
           id="path4378"
           style="font-size:8.46667px;text-align:center;text-anchor:middle"
           d="m 43.49997,-67.04703 q 0.285254,-0.51263 0.682129,-0.756543 0.396875,-0.243913 0.934311,-0.243913 0.72347,0 1.116211,0.508497 0.392741,0.504362 0.392741,1.438672 v 2.794663 h -0.764811 v -2.769858 q 0,-0.665593 -0.235645,-0.988054 -0.235645,-0.322461 -0.719336,-0.322461 -0.591179,0 -0.934311,0.392741 -0.343131,0.392741 -0.343131,1.070736 v 2.616896 h -0.764812 v -2.769858 q 0,-0.669727 -0.235644,-0.988054 -0.235645,-0.322461 -0.727605,-0.322461 -0.58291,0 -0.926042,0.396875 -0.343132,0.392741 -0.343132,1.066602 v 2.616896 h -0.764811 v -4.630211 h 0.764811 v 0.719337 q 0.26045,-0.425814 0.624252,-0.628386 0.363802,-0.202572 0.86403,-0.202572 0.504362,0 0.855762,0.256315 0.355534,0.256316 0.525033,0.744141 z" />
        <path
           id="path4380"
           style="font-size:8.46667px;text-align:center;text-anchor:middle"
           d="m 48.146718,-67.935865 h 0.760678 v 4.630211 h -0.760678 z m 0,-1.802474 h 0.760678 v 0.963249 h -0.760678 z" />
        <path
           id="path4382"
           style="font-size:8.46667px;text-align:center;text-anchor:middle"
           d="m 54.343756,-66.100317 v 2.794663 h -0.760678 v -2.769858 q 0,-0.657325 -0.256315,-0.98392 -0.256315,-0.326595 -0.768946,-0.326595 -0.615983,0 -0.971517,0.392741 -0.355534,0.392741 -0.355534,1.070736 v 2.616896 h -0.764811 v -4.630211 h 0.764811 v 0.719337 q 0.272852,-0.417546 0.640788,-0.624252 0.372071,-0.206706 0.855762,-0.206706 0.797885,0 1.207162,0.496094 0.409278,0.49196 0.409278,1.451075 z" />
        <path
           id="path4384"
           style="font-size:8.46667px;text-align:center;text-anchor:middle"
           d="m 55.869245,-67.935865 h 0.760677 v 4.630211 h -0.760677 z m 0,-1.802474 h 0.760677 v 0.963249 h -0.760677 z" />
        <path
           id="path4386"
           style="font-size:8.46667px;text-align:center;text-anchor:middle"
           d="m 58.097534,-69.730071 h 0.661459 q 0.620117,0.975651 0.926042,1.909962 0.310059,0.93431 0.310059,1.856218 0,0.926042 -0.310059,1.864486 -0.305925,0.938445 -0.926042,1.909962 h -0.661459 q 0.549838,-0.946713 0.818555,-1.881023 0.272852,-0.938444 0.272852,-1.893425 0,-0.954981 -0.272852,-1.885157 -0.268717,-0.930176 -0.818555,-1.881023 z" />
        <path
           id="path4388"
           style="font-size:8.46667px;text-align:center;text-anchor:middle"
           d="m 15.726979,-55.004382 v 2.455665 h -0.764811 v -6.391344 h 0.764811 v 0.7028 q 0.239779,-0.413412 0.603581,-0.611849 0.367937,-0.202572 0.876433,-0.202572 0.84336,0 1.368392,0.669727 0.529167,0.669727 0.529167,1.761133 0,1.091407 -0.529167,1.761134 -0.525032,0.669727 -1.368392,0.669727 -0.508496,0 -0.876433,-0.198438 -0.363802,-0.202572 -0.603581,-0.615983 z m 2.587957,-1.61644 q 0,-0.839225 -0.347266,-1.314649 -0.343131,-0.479557 -0.946712,-0.479557 -0.603581,0 -0.950847,0.479557 -0.343132,0.475424 -0.343132,1.314649 0,0.839226 0.343132,1.318783 0.347266,0.475424 0.950847,0.475424 0.603581,0 0.946712,-0.475424 0.347266,-0.479557 0.347266,-1.318783 z" />
        <path
           id="path4390"
           style="font-size:8.46667px;text-align:center;text-anchor:middle"
           d="m 23.048499,-58.228993 q -0.128158,-0.07441 -0.28112,-0.107487 -0.148828,-0.03721 -0.330729,-0.03721 -0.644922,0 -0.992188,0.42168 -0.343132,0.417546 -0.343132,1.203028 v 2.439128 h -0.764811 v -4.63021 h 0.764811 v 0.719336 q 0.239779,-0.421679 0.624252,-0.624251 0.384473,-0.206706 0.93431,-0.206706 0.07855,0 0.173633,0.0124 0.09508,0.0083 0.21084,0.02894 z" />
        <path
           id="path4392"
           style="font-size:8.46667px;text-align:center;text-anchor:middle"
           d="m 25.466957,-58.40676 q -0.611849,0 -0.967383,0.479558 -0.355534,0.475423 -0.355534,1.30638 0,0.830958 0.3514,1.310515 0.355534,0.475424 0.971517,0.475424 0.607716,0 0.96325,-0.479558 0.355534,-0.479557 0.355534,-1.306381 0,-0.822689 -0.355534,-1.302246 -0.355534,-0.483692 -0.96325,-0.483692 z m 0,-0.644922 q 0.992188,0 1.558562,0.644922 0.566374,0.644922 0.566374,1.785938 0,1.136882 -0.566374,1.785939 -0.566374,0.644922 -1.558562,0.644922 -0.996322,0 -1.562695,-0.644922 -0.56224,-0.649057 -0.56224,-1.785939 0,-1.141016 0.56224,-1.785938 0.566373,-0.644922 1.562695,-0.644922 z" />
        <path
           id="path4394"
           style="font-size:8.46667px;text-align:center;text-anchor:middle"
           d="m 32.697526,-57.104513 v 2.794662 h -0.760677 v -2.769857 q 0,-0.657325 -0.256315,-0.98392 -0.256316,-0.326595 -0.768946,-0.326595 -0.615983,0 -0.971517,0.392741 -0.355534,0.392741 -0.355534,1.070736 v 2.616895 h -0.764812 v -4.63021 h 0.764812 v 0.719336 q 0.272851,-0.417545 0.640788,-0.624251 0.37207,-0.206706 0.855762,-0.206706 0.797884,0 1.207162,0.496094 0.409277,0.49196 0.409277,1.451075 z" />
        <path
           id="path4396"
           style="font-size:8.46667px;text-align:center;text-anchor:middle"
           d="m 36.017222,-58.40676 q -0.611849,0 -0.967383,0.479558 -0.355534,0.475423 -0.355534,1.30638 0,0.830958 0.3514,1.310515 0.355534,0.475424 0.971517,0.475424 0.607715,0 0.963249,-0.479558 0.355534,-0.479557 0.355534,-1.306381 0,-0.822689 -0.355534,-1.302246 -0.355534,-0.483692 -0.963249,-0.483692 z m 0,-0.644922 q 0.992188,0 1.558562,0.644922 0.566374,0.644922 0.566374,1.785938 0,1.136882 -0.566374,1.785939 -0.566374,0.644922 -1.558562,0.644922 -0.996322,0 -1.562696,-0.644922 -0.56224,-0.649057 -0.56224,-1.785939 0,-1.141016 0.56224,-1.785938 0.566374,-0.644922 1.562696,-0.644922 z" />
        <path
           id="path4398"
           style="font-size:8.46667px;text-align:center;text-anchor:middle"
           d="m 39.32038,-56.13713 v -2.802931 h 0.760677 v 2.773992 q 0,0.657325 0.256316,0.988054 0.256315,0.326595 0.768945,0.326595 0.615984,0 0.971518,-0.392741 0.359668,-0.392741 0.359668,-1.070736 v -2.625164 h 0.760677 v 4.63021 h -0.760677 v -0.711068 q -0.276986,0.42168 -0.644922,0.628386 -0.363803,0.202572 -0.847494,0.202572 -0.797885,0 -1.211296,-0.496094 -0.413412,-0.496094 -0.413412,-1.451075 z m 1.914096,-2.914552 z" />
        <path
           id="path4400"
           style="font-size:8.46667px;text-align:center;text-anchor:middle"
           d="m 48.622142,-57.104513 v 2.794662 h -0.760677 v -2.769857 q 0,-0.657325 -0.256316,-0.98392 -0.256315,-0.326595 -0.768945,-0.326595 -0.615984,0 -0.971518,0.392741 -0.355534,0.392741 -0.355534,1.070736 v 2.616895 h -0.764811 v -4.63021 h 0.764811 v 0.719336 q 0.272852,-0.417545 0.640788,-0.624251 0.372071,-0.206706 0.855763,-0.206706 0.797884,0 1.207161,0.496094 0.409278,0.49196 0.409278,1.451075 z" />
      </g>
      <path
         sodipodi:nodetypes="cccc"
         id="path1161"
         d="m -25.930477,134.12776 v 6.94901 H 135.76759 v -18.4416"
         style="fill:none;stroke:#4d4d4d;stroke-width:0.865;stroke-linecap:butt;stroke-linejoin:miter;stroke-miterlimit:4;stroke-dasharray:3.46, 1.73;stroke-dashoffset:0;stroke-opacity:1" />
    </g>
    <g
       id="g1344">
      <path
         sodipodi:nodetypes="cccc"
         id="path1169-1"
         d="m 36.883574,98.715892 9.342265,9.289858 h 40.102596 l 9.589405,-9.589418"
         style="fill:none;stroke:#000000;stroke-width:0.964999;stroke-linecap:butt;stroke-linejoin:miter;stroke-miterlimit:4;stroke-dasharray:none;stroke-opacity:1" />
      <g
         style="font-style:normal;font-weight:normal;font-size:10.5833px;line-height:1.25;font-family:sans-serif;white-space:pre;shape-inside:url(#rect1354);fill:#000000;fill-opacity:1;stroke:none"
         id="text1352"
         transform="translate(13.985119,-5.2916667)"
         aria-label="object">
        <path
           id="path4403"
           d="m 39.076039,122.71137 q -0.764808,0 -1.209224,0.59945 -0.444416,0.59427 -0.444416,1.63297 0,1.03869 0.439248,1.63813 0.444416,0.59428 1.214392,0.59428 0.759642,0 1.204058,-0.59944 0.444415,-0.59945 0.444415,-1.63297 0,-1.02836 -0.444415,-1.62781 -0.444416,-0.60461 -1.204058,-0.60461 z m 0,-0.80615 q 1.240231,0 1.948196,0.80615 0.707965,0.80615 0.707965,2.23242 0,1.42109 -0.707965,2.23241 -0.707965,0.80615 -1.948196,0.80615 -1.245398,0 -1.953362,-0.80615 -0.702798,-0.81132 -0.702798,-2.23241 0,-1.42627 0.702798,-2.23242 0.707964,-0.80615 1.953362,-0.80615 z" />
        <path
           id="path4405"
           d="m 47.45793,124.94379 q 0,-1.04903 -0.434081,-1.64331 -0.428913,-0.59944 -1.183386,-0.59944 -0.754474,0 -1.188554,0.59944 -0.428913,0.59428 -0.428913,1.64331 0,1.04902 0.428913,1.64847 0.43408,0.59428 1.188554,0.59428 0.754473,0 1.183386,-0.59428 0.434081,-0.59945 0.434081,-1.64847 z m -3.234934,-2.02055 q 0.299722,-0.51676 0.754473,-0.7648 0.459919,-0.25322 1.095537,-0.25322 1.054196,0 1.710485,0.83716 0.661456,0.83715 0.661456,2.20141 0,1.36425 -0.661456,2.20141 -0.656289,0.83715 -1.710485,0.83715 -0.635618,0 -1.095537,-0.24805 -0.454751,-0.25321 -0.754473,-0.76997 v 0.86816 h -0.956011 v -8.04083 h 0.956011 z" />
        <path
           id="path4407"
           d="m 50.021073,122.04475 h 0.950843 v 5.89109 q 0,1.10587 -0.423745,1.60197 -0.418578,0.49609 -1.353919,0.49609 h -0.361733 v -0.80615 h 0.253213 q 0.542601,0 0.738971,-0.25321 0.19637,-0.24805 0.19637,-1.0387 z m 0,-2.25309 h 0.950843 v 1.20406 h -0.950843 z" />
        <path
           id="path4409"
           d="m 57.906871,124.70091 v 0.46508 h -4.371812 q 0.06201,0.98185 0.589109,1.49862 0.532266,0.51159 1.477942,0.51159 0.547768,0 1.059363,-0.13436 0.516763,-0.13436 1.02319,-0.40307 v 0.89916 q -0.511595,0.21705 -1.049028,0.33073 -0.537433,0.11369 -1.090369,0.11369 -1.384924,0 -2.196242,-0.80615 -0.806149,-0.80615 -0.806149,-2.18074 0,-1.42109 0.764808,-2.25308 0.769977,-0.83716 2.072219,-0.83716 1.167883,0 1.844843,0.75448 0.682126,0.7493 0.682126,2.04121 z m -0.950843,-0.27905 q -0.01034,-0.78032 -0.439248,-1.2454 -0.423746,-0.46509 -1.126543,-0.46509 -0.795814,0 -1.276404,0.44959 -0.475421,0.44958 -0.547768,1.26606 z" />
        <path
           id="path4411"
           d="m 63.632602,122.26696 v 0.88883 q -0.403075,-0.22221 -0.811318,-0.33073 -0.403075,-0.11369 -0.816485,-0.11369 -0.925005,0 -1.4366,0.58911 -0.511595,0.58394 -0.511595,1.64331 0,1.05936 0.511595,1.64847 0.511595,0.58394 1.4366,0.58394 0.41341,0 0.816485,-0.10852 0.408243,-0.11369 0.811318,-0.33589 v 0.87849 q -0.397908,0.18604 -0.826821,0.27905 -0.423745,0.093 -0.904334,0.093 -1.30741,0 -2.077386,-0.82165 -0.769977,-0.82165 -0.769977,-2.21691 0,-1.41593 0.775144,-2.22725 0.780312,-0.81132 2.13423,-0.81132 0.439248,0 0.857826,0.093 0.418578,0.0879 0.811318,0.26872 z" />
        <path
           id="path4413"
           d="m 66.237085,120.40144 v 1.64331 h 1.95853 v 0.73897 h -1.95853 v 3.14192 q 0,0.70796 0.191202,0.9095 0.19637,0.20154 0.790647,0.20154 h 0.976681 v 0.79581 h -0.976681 q -1.100705,0 -1.519282,-0.40824 -0.418578,-0.41341 -0.418578,-1.49861 v -3.14192 h -0.69763 v -0.73897 h 0.69763 v -1.64331 z" />
      </g>
    </g>
  </g>
</svg>
