<?xml version="1.0" encoding="UTF-8" standalone="no"?>
<!-- Created with Inkscape (http://www.inkscape.org/) -->

<svg
   width="724.26672"
   height="540.30212"
   viewBox="0 0 191.62886 142.95493"
   version="1.1"
   id="svg5"
   sodipodi:docname="vp-structure-source.svg"
   inkscape:version="1.1.1 (c3084ef, 2021-09-22)"
   xmlns:inkscape="http://www.inkscape.org/namespaces/inkscape"
   xmlns:sodipodi="http://sodipodi.sourceforge.net/DTD/sodipodi-0.dtd"
   xmlns="http://www.w3.org/2000/svg"
   xmlns:svg="http://www.w3.org/2000/svg">
  <sodipodi:namedview
     id="namedview7"
     pagecolor="#ffffff"
     bordercolor="#666666"
     borderopacity="1.0"
     inkscape:pageshadow="2"
     inkscape:pageopacity="0.0"
     inkscape:pagecheckerboard="0"
     inkscape:document-units="mm"
     showgrid="false"
     inkscape:snap-global="false"
     fit-margin-top="10"
     fit-margin-right="10"
     fit-margin-left="10"
     fit-margin-bottom="10"
     units="px"
     width="708.26672px"
     inkscape:zoom="0.51029737"
     inkscape:cx="455.6167"
     inkscape:cy="436.02028"
     inkscape:window-width="1440"
     inkscape:window-height="847"
     inkscape:window-x="0"
     inkscape:window-y="25"
     inkscape:window-maximized="1"
     inkscape:current-layer="layer1" />
  <defs
     id="defs2">
    <rect
       x="155.22249"
       y="356.55067"
       width="280.47628"
       height="70.695392"
       id="rect72315" />
    <rect
       x="78.62825"
       y="395.80661"
       width="207.89842"
       height="63.968745"
       id="rect62162" />
    <rect
       x="225.33717"
       y="427.01395"
       width="449.54767"
       height="181.39642"
       id="rect31448" />
    <rect
       x="31.547207"
       y="138.58237"
       width="176.88969"
       height="56.334297"
       id="rect20618" />
    <rect
       x="102.52842"
       y="259.13776"
       width="75.487953"
       height="79.994698"
       id="rect14504" />
    <rect
       x="403.30399"
       y="53.033859"
       width="292.77869"
       height="40.570595"
       id="rect10344" />
    <rect
       x="71.534042"
       y="16.033491"
       width="318.20316"
       height="115.93448"
       id="rect5826" />
    <rect
       x="17.266838"
       y="20.966875"
       width="326.83658"
       height="141.83475"
       id="rect2632" />
    <rect
       x="71.534042"
       y="16.033491"
       width="318.20316"
       height="115.93448"
       id="rect5826-8" />
    <rect
       x="403.30399"
       y="53.033859"
       width="242.73721"
       height="74.698952"
       id="rect10344-1" />
    <rect
       x="102.52842"
       y="259.13776"
       width="75.487953"
       height="79.994698"
       id="rect14504-5" />
    <rect
       x="102.52842"
       y="259.13776"
       width="75.487953"
       height="79.994698"
       id="rect14504-7" />
    <rect
       x="102.52842"
       y="259.13776"
       width="75.487953"
       height="79.994698"
       id="rect14504-5-8" />
    <rect
       x="31.547207"
       y="138.58237"
       width="176.88969"
       height="56.334297"
       id="rect20618-2" />
    <rect
       x="102.52842"
       y="259.13776"
       width="75.487953"
       height="79.994698"
       id="rect14504-7-9" />
    <rect
       x="31.547207"
       y="138.58237"
       width="176.88969"
       height="56.334297"
       id="rect20618-2-6" />
    <rect
       x="102.52842"
       y="259.13776"
       width="75.487953"
       height="79.994698"
       id="rect14504-7-4" />
    <rect
       x="102.52842"
       y="259.13776"
       width="75.487953"
       height="79.994698"
       id="rect14504-5-8-0" />
    <rect
       x="31.547207"
       y="138.58237"
       width="176.88969"
       height="56.334297"
       id="rect20618-2-65" />
    <rect
       x="102.52842"
       y="259.13776"
       width="75.487953"
       height="79.994698"
       id="rect14504-7-9-3" />
    <rect
       x="31.547207"
       y="138.58237"
       width="176.88969"
       height="56.334297"
       id="rect20618-2-6-8" />
    <rect
       x="225.33717"
       y="427.01395"
       width="449.54767"
       height="181.39642"
       id="rect31448-5" />
    <rect
       x="31.547207"
       y="138.58237"
       width="176.88969"
       height="56.334297"
       id="rect20618-2-65-6" />
    <rect
       x="155.22249"
       y="356.55066"
       width="175.97005"
       height="90.674522"
       id="rect72315-4" />
  </defs>
  <g
     inkscape:label="Layer 1"
     inkscape:groupmode="layer"
     id="layer1"
     transform="translate(-15.669658,-11.130171)">
    <path
       style="fill:none;stroke:#000000;stroke-width:0.868766;stroke-linecap:butt;stroke-linejoin:miter;stroke-miterlimit:4;stroke-dasharray:none;stroke-opacity:1"
       d="M 100.74353,24.58879 V 145.4719"
       id="path75" />
    <text
       xml:space="preserve"
       transform="matrix(0.26458333,0,0,0.26458333,11.270724,8.281136)"
       id="text5824"
       style="font-style:normal;font-weight:normal;font-size:37.3333px;line-height:1.25;font-family:sans-serif;white-space:pre;shape-inside:url(#rect5826);fill:#000000;fill-opacity:1;stroke:none"><tspan
         x="71.533203"
         y="50.093506"
         id="tspan81199">intransitive</tspan></text>
    <text
       xml:space="preserve"
       transform="matrix(0.26458333,0,0,0.26458333,113.91444,7.7519693)"
       id="text5824-7"
       style="font-style:normal;font-weight:normal;font-size:37.3333px;line-height:1.25;font-family:sans-serif;white-space:pre;shape-inside:url(#rect5826-8);fill:#000000;fill-opacity:1;stroke:none"><tspan
         x="71.533203"
         y="50.093506"
         id="tspan81201">transitive</tspan></text>
    <path
       style="fill:none;stroke:#000000;stroke-width:0.765;stroke-linecap:butt;stroke-linejoin:miter;stroke-miterlimit:4;stroke-dasharray:none;stroke-opacity:1"
       d="m 100.71453,90.494346 h 106.0549"
       id="path8140" />
    <text
       xml:space="preserve"
       transform="matrix(0.26458333,0,0,0.26458333,-2.9596209,11.254175)"
       id="text10342"
       style="font-style:normal;font-weight:normal;font-size:29.3333px;line-height:1.25;font-family:sans-serif;white-space:pre;shape-inside:url(#rect10344);fill:#000000;fill-opacity:1;stroke:none"><tspan
         x="403.30469"
         y="79.794862"
         id="tspan81203">present - future</tspan></text>
    <text
       xml:space="preserve"
       transform="matrix(0.26458333,0,0,0.26458333,-3.3754359,78.145384)"
       id="text10342-3"
       style="font-style:normal;font-weight:normal;font-size:29.3333px;line-height:1.25;font-family:sans-serif;white-space:pre;shape-inside:url(#rect10344-1);fill:#000000;fill-opacity:1;stroke:none"><tspan
         x="403.30469"
         y="79.794862"
         id="tspan81205">past - perfect</tspan></text>
    <rect
       style="fill:none;stroke:#000000;stroke-width:0.727604;stroke-miterlimit:4;stroke-dasharray:none;stroke-opacity:1"
       id="rect12589"
       width="21.06028"
       height="20.407637"
       x="66.610214"
       y="73.787094"
       ry="0" />
    <path
       style="fill:none;stroke:#000000;stroke-width:0.727604;stroke-linecap:butt;stroke-linejoin:miter;stroke-miterlimit:4;stroke-dasharray:none;stroke-opacity:1"
       d="m 28.126606,89.377611 2.730095,3.476076 19.35886,-0.204474 2.730098,-3.271602"
       id="path12748" />
    <text
       xml:space="preserve"
       id="text14502"
       style="font-style:normal;font-weight:normal;font-size:40px;line-height:1.25;font-family:sans-serif;white-space:pre;shape-inside:url(#rect14504);fill:#000000;fill-opacity:1;stroke:none"
       transform="matrix(0.26458333,0,0,0.26458333,9.7464998,26.570443)"><tspan
         x="102.5293"
         y="295.63188"
         id="tspan81207">S</tspan></text>
    <text
       xml:space="preserve"
       id="text14502-7"
       style="font-style:normal;font-weight:normal;font-size:40px;line-height:1.25;font-family:sans-serif;white-space:pre;shape-inside:url(#rect14504-5);fill:#000000;fill-opacity:1;stroke:none"
       transform="matrix(0.26458333,0,0,0.26458333,46.395459,9.618951)"><tspan
         x="102.5293"
         y="295.63188"
         id="tspan81209">V</tspan></text>
    <path
       d="m 45.186783,72.680168 h -9.308078 c -0.196908,0 -0.358009,0.165295 -0.358009,0.36732 v 0.73464 c 0,0.202025 0.161101,0.36732 0.358009,0.36732 h 9.308078 c 0.196899,0 0.358,-0.165295 0.358,-0.36732 v -0.73464 c 0,-0.202025 -0.161101,-0.36732 -0.358,-0.36732 z m 1.432009,-7.346382 c -0.592944,0 -1.074009,0.493592 -1.074009,1.101959 0,0.163003 0.03583,0.314515 0.09845,0.454554 l -1.619967,0.996357 c -0.344576,0.211205 -0.789843,0.09183 -0.988988,-0.266303 L 41.2107,64.346617 c 0.239418,-0.202025 0.396044,-0.505066 0.396044,-0.849423 0,-0.608375 -0.481065,-1.10196 -1.074008,-1.10196 -0.592944,0 -1.074009,0.493585 -1.074009,1.10196 0,0.344357 0.156626,0.647398 0.396044,0.849423 l -1.823578,3.273736 c -0.199145,0.358131 -0.646641,0.477508 -0.988988,0.266303 l -1.617721,-0.996357 c 0.06044,-0.137746 0.09845,-0.291551 0.09845,-0.454554 0,-0.608367 -0.481065,-1.101959 -1.074009,-1.101959 -0.592943,0 -1.076246,0.493592 -1.076246,1.101959 0,0.608376 0.481065,1.10196 1.074009,1.10196 0.05821,0 0.116353,-0.0092 0.172288,-0.01834 l 1.617729,4.4262 h 8.592069 l 1.61773,-4.4262 c 0.05589,0.0092 0.114116,0.01834 0.172288,0.01834 0.592943,0 1.074008,-0.493584 1.074008,-1.10196 0,-0.608367 -0.481065,-1.101959 -1.074008,-1.101959 z"
       id="path21494"
       style="stroke-width:0.0226644" />
    <rect
       style="fill:none;stroke:#000000;stroke-width:0.727604;stroke-miterlimit:4;stroke-dasharray:none;stroke-opacity:1"
       id="rect12589-5"
       width="21.06028"
       height="20.407637"
       x="181.62965"
       y="53.718853"
       ry="0" />
    <path
       style="fill:none;stroke:#000000;stroke-width:0.727604;stroke-linecap:butt;stroke-linejoin:miter;stroke-miterlimit:4;stroke-dasharray:none;stroke-opacity:1"
       d="m 110.47169,69.30937 2.7301,3.476076 19.35886,-0.204474 2.7301,-3.271602"
       id="path12748-4" />
    <text
       xml:space="preserve"
       id="text14502-5"
       style="font-style:normal;font-weight:normal;font-size:40px;line-height:1.25;font-family:sans-serif;white-space:pre;shape-inside:url(#rect14504-7);fill:#000000;fill-opacity:1;stroke:none"
       transform="matrix(0.26458333,0,0,0.26458333,92.091557,6.5022028)"><tspan
         x="102.5293"
         y="295.63188"
         id="tspan81211">S</tspan></text>
    <text
       xml:space="preserve"
       id="text14502-7-3"
       style="font-style:normal;font-weight:normal;font-size:40px;line-height:1.25;font-family:sans-serif;white-space:pre;shape-inside:url(#rect14504-5-8);fill:#000000;fill-opacity:1;stroke:none"
       transform="matrix(0.26458333,0,0,0.26458333,161.41503,-10.449287)"><tspan
         x="102.5293"
         y="295.63188"
         id="tspan81213">V</tspan></text>
    <path
       id="path21494-1"
       style="stroke-width:0.0226644"
       sodipodi:type="inkscape:offset"
       inkscape:radius="0"
       inkscape:original="M 122.87695 40.376953 C 122.28401 40.376953 121.80469 40.872094 121.80469 41.480469 C 121.80469 41.824826 121.9598 42.128054 122.19922 42.330078 L 120.37695 45.603516 C 120.17781 45.961647 119.72907 46.080346 119.38672 45.869141 L 117.76953 44.873047 C 117.82993 44.735301 117.86719 44.580972 117.86719 44.417969 C 117.86719 43.809602 117.38787 43.316406 116.79492 43.316406 C 116.20198 43.316406 115.7168 43.809602 115.7168 44.417969 C 115.7168 45.026345 116.19807 45.519531 116.79102 45.519531 C 116.84922 45.519531 116.90891 45.511093 116.96484 45.501953 L 118.58203 49.927734 L 127.17383 49.927734 L 128.79102 45.501953 C 128.84692 45.511153 128.90667 45.519531 128.96484 45.519531 C 129.55778 45.519531 130.03711 45.026345 130.03711 44.417969 C 130.03711 43.809602 129.55778 43.316406 128.96484 43.316406 C 128.3719 43.316406 127.89062 43.809602 127.89062 44.417969 C 127.89062 44.580972 127.92568 44.733008 127.98828 44.873047 L 126.36914 45.869141 C 126.02457 46.080346 125.57805 45.961649 125.37891 45.603516 L 123.55664 42.330078 C 123.79606 42.128054 123.95117 41.824826 123.95117 41.480469 C 123.95117 40.872094 123.4699 40.376953 122.87695 40.376953 z M 118.22461 50.662109 C 118.0277 50.662109 117.86523 50.827272 117.86523 51.029297 L 117.86523 51.765625 C 117.86523 51.96765 118.0277 52.132812 118.22461 52.132812 L 127.53125 52.132812 C 127.72815 52.132812 127.89062 51.96765 127.89062 51.765625 L 127.89062 51.029297 C 127.89062 50.827272 127.72815 50.662109 127.53125 50.662109 L 118.22461 50.662109 z "
       d="m 122.87695,40.376953 c -0.59294,0 -1.07226,0.495141 -1.07226,1.103516 0,0.344357 0.15511,0.647585 0.39453,0.849609 l -1.82227,3.273438 c -0.19914,0.358131 -0.64788,0.47683 -0.99023,0.265625 l -1.61719,-0.996094 c 0.0604,-0.137746 0.0977,-0.292075 0.0977,-0.455078 0,-0.608367 -0.47932,-1.101563 -1.07227,-1.101563 -0.59294,0 -1.07812,0.493196 -1.07812,1.101563 0,0.608376 0.48127,1.101562 1.07422,1.101562 0.0582,0 0.11789,-0.0084 0.17382,-0.01758 l 1.61719,4.425781 h 8.5918 l 1.61719,-4.425781 c 0.0559,0.0092 0.11565,0.01758 0.17382,0.01758 0.59294,0 1.07227,-0.493186 1.07227,-1.101562 0,-0.608367 -0.47933,-1.101563 -1.07227,-1.101563 -0.59294,0 -1.07422,0.493196 -1.07422,1.101563 0,0.163003 0.0351,0.315039 0.0977,0.455078 l -1.61914,0.996094 c -0.34457,0.211205 -0.79109,0.09251 -0.99023,-0.265625 l -1.82227,-3.273438 c 0.23942,-0.202024 0.39453,-0.505252 0.39453,-0.849609 0,-0.608375 -0.48127,-1.103516 -1.07422,-1.103516 z m -4.65234,10.285156 c -0.19691,0 -0.35938,0.165163 -0.35938,0.367188 v 0.736328 c 0,0.202025 0.16247,0.367187 0.35938,0.367187 h 9.30664 c 0.1969,0 0.35937,-0.165162 0.35937,-0.367187 v -0.736328 c 0,-0.202025 -0.16247,-0.367188 -0.35937,-0.367188 z" />
    <path
       style="fill:none;stroke:#000000;stroke-width:0.727604;stroke-linecap:butt;stroke-linejoin:miter;stroke-miterlimit:4;stroke-dasharray:none;stroke-opacity:1"
       d="m 145.43427,68.929606 2.7301,3.476076 19.35886,-0.204474 2.7301,-3.271602"
       id="path12748-4-6" />
    <text
       xml:space="preserve"
       id="text14502-5-4"
       style="font-style:normal;font-weight:normal;font-size:40px;line-height:1.25;font-family:sans-serif;white-space:pre;shape-inside:url(#rect14504-7-9);fill:#000000;fill-opacity:1;stroke:none"
       transform="matrix(0.26458333,0,0,0.26458333,126.54516,6.1224388)"><tspan
         x="102.5293"
         y="295.63188"
         id="tspan81215">O</tspan></text>
    <text
       xml:space="preserve"
       transform="matrix(0.26458333,0,0,0.26458333,38.760473,-57.593256)"
       id="text31446"
       style="font-style:normal;font-weight:normal;font-size:18.6667px;line-height:1.25;font-family:sans-serif;white-space:pre;shape-inside:url(#rect31448);fill:#000000;fill-opacity:1;stroke:none"
       x="93.880325"
       y="0"><tspan
         x="382.75444"
         y="444.04387"
         id="tspan81219"><tspan
           style="text-align:center;text-anchor:middle"
           id="tspan81217">infl. 1st + 2nd
</tspan></tspan><tspan
         x="411.24667"
         y="467.37724"
         id="tspan81223"><tspan
           style="text-align:center;text-anchor:middle"
           id="tspan81221">pronoun</tspan></tspan></text>
    <path
       id="path36134"
       style="stroke-width:0.0248982"
       sodipodi:type="inkscape:offset"
       inkscape:radius="0"
       inkscape:original="M 157.83984 39.880859 C 156.95979 39.880859 156.24609 40.594564 156.24609 41.474609 C 156.24609 42.354667 156.95979 43.068359 157.83984 43.068359 C 158.71988 43.068359 159.43359 42.354667 159.43359 41.474609 C 159.43359 40.594564 158.71988 39.880859 157.83984 39.880859 z M 156.64453 43.466797 C 155.98448 43.466797 155.44922 44.002054 155.44922 44.662109 L 155.44922 48.046875 C 155.44922 48.376897 155.71683 48.644531 156.04688 48.644531 L 156.44531 48.644531 L 156.44531 52.03125 C 156.44531 52.361271 156.71294 52.628906 157.04297 52.628906 L 158.63672 52.628906 C 158.96674 52.628906 159.23437 52.361271 159.23438 52.03125 L 159.23438 48.644531 L 159.63281 48.644531 C 159.96284 48.644531 160.23047 48.376897 160.23047 48.046875 L 160.23047 44.662109 C 160.23047 44.002054 159.69521 43.466797 159.03516 43.466797 L 158.75195 43.466797 C 158.18649 43.726808 157.51757 43.738048 156.92773 43.466797 L 156.64453 43.466797 z "
       d="m 157.83984,39.880859 c -0.88005,0 -1.59375,0.713705 -1.59375,1.59375 0,0.880058 0.7137,1.59375 1.59375,1.59375 0.88004,0 1.59375,-0.713692 1.59375,-1.59375 0,-0.880045 -0.71371,-1.59375 -1.59375,-1.59375 z m -1.19531,3.585938 c -0.66005,0 -1.19531,0.535257 -1.19531,1.195312 v 3.384766 c 0,0.330022 0.26761,0.597656 0.59766,0.597656 h 0.39843 v 3.386719 c 0,0.330021 0.26763,0.597656 0.59766,0.597656 h 1.59375 c 0.33002,0 0.59765,-0.267635 0.59766,-0.597656 v -3.386719 h 0.39843 c 0.33003,0 0.59766,-0.267634 0.59766,-0.597656 v -3.384766 c 0,-0.660055 -0.53526,-1.195312 -1.19531,-1.195312 h -0.28321 c -0.56546,0.260011 -1.23438,0.271251 -1.82422,0 z" />
    <g
       id="g60074"
       transform="translate(6.3500003)">
      <rect
         style="fill:none;stroke:#000000;stroke-width:0.727604;stroke-miterlimit:4;stroke-dasharray:none;stroke-opacity:1"
         id="rect12589-5-1"
         width="21.06028"
         height="20.407637"
         x="175.28523"
         y="120.29713"
         ry="0" />
      <text
         xml:space="preserve"
         id="text14502-7-3-7"
         style="font-style:normal;font-weight:normal;font-size:40px;line-height:1.25;font-family:sans-serif;white-space:pre;shape-inside:url(#rect14504-5-8-0);fill:#000000;fill-opacity:1;stroke:none"
         transform="matrix(0.26458333,0,0,0.26458333,155.07048,56.128988)"><tspan
           x="102.5293"
           y="295.63188"
           id="tspan81225">V</tspan></text>
    </g>
    <g
       id="g60080"
       transform="translate(6.3500003)">
      <path
         d="m 156.94586,117.13885 h -9.30808 c -0.19691,0 -0.35801,0.1653 -0.35801,0.36732 v 0.73464 c 0,0.20203 0.1611,0.36732 0.35801,0.36732 h 9.30808 c 0.1969,0 0.358,-0.16529 0.358,-0.36732 v -0.73464 c 0,-0.20202 -0.1611,-0.36732 -0.358,-0.36732 z m 1.43201,-7.34638 c -0.59294,0 -1.07401,0.49359 -1.07401,1.10196 0,0.163 0.0358,0.31451 0.0984,0.45455 l -1.61997,0.99636 c -0.34457,0.2112 -0.78984,0.0918 -0.98898,-0.2663 l -1.82358,-3.27374 c 0.23942,-0.20203 0.39604,-0.50507 0.39604,-0.84943 0,-0.60837 -0.48106,-1.10196 -1.07401,-1.10196 -0.59294,0 -1.07401,0.49359 -1.07401,1.10196 0,0.34436 0.15663,0.6474 0.39605,0.84943 l -1.82358,3.27374 c -0.19914,0.35813 -0.64664,0.4775 -0.98899,0.2663 l -1.61772,-0.99636 c 0.0604,-0.13774 0.0985,-0.29155 0.0985,-0.45455 0,-0.60837 -0.48106,-1.10196 -1.07401,-1.10196 -0.59294,0 -1.07624,0.49359 -1.07624,1.10196 0,0.60837 0.48106,1.10196 1.07401,1.10196 0.0582,0 0.11635,-0.009 0.17228,-0.0183 l 1.61773,4.4262 h 8.59207 l 1.61773,-4.4262 c 0.0559,0.009 0.11412,0.0183 0.17229,0.0183 0.59294,0 1.07401,-0.49359 1.07401,-1.10196 0,-0.60837 -0.48107,-1.10196 -1.07401,-1.10196 z"
         id="path21494-1-5"
         style="stroke-width:0.0226644" />
      <path
         style="fill:none;stroke:#000000;stroke-width:0.727604;stroke-linecap:butt;stroke-linejoin:miter;stroke-miterlimit:4;stroke-dasharray:none;stroke-opacity:1"
         d="m 139.88568,135.50788 2.7301,3.47607 19.35886,-0.20447 2.7301,-3.2716"
         id="path12748-4-6-0" />
      <text
         xml:space="preserve"
         id="text14502-5-4-5"
         style="font-style:normal;font-weight:normal;font-size:40px;line-height:1.25;font-family:sans-serif;white-space:pre;shape-inside:url(#rect14504-7-9-3);fill:#000000;fill-opacity:1;stroke:none"
         transform="matrix(0.26458333,0,0,0.26458333,120.99657,72.700714)"><tspan
           x="102.5293"
           y="295.63188"
           id="tspan81227">O</tspan></text>
    </g>
    <g
       id="g60088"
       transform="translate(6.3500003)">
      <path
         style="fill:none;stroke:#000000;stroke-width:0.727604;stroke-linecap:butt;stroke-linejoin:miter;stroke-miterlimit:4;stroke-dasharray:none;stroke-opacity:1"
         d="m 105.70061,135.88764 2.7301,3.47608 19.35886,-0.20448 2.7301,-3.2716"
         id="path12748-4-2" />
      <text
         xml:space="preserve"
         id="text14502-5-46"
         style="font-style:normal;font-weight:normal;font-size:40px;line-height:1.25;font-family:sans-serif;white-space:pre;shape-inside:url(#rect14504-7-4);fill:#000000;fill-opacity:1;stroke:none"
         transform="matrix(0.26458333,0,0,0.26458333,87.320516,73.080478)"><tspan
           x="102.5293"
           y="295.63188"
           id="tspan81229">S</tspan></text>
      <path
         d="m 118.10675,106.35707 c 0.88004,0 1.59349,0.71345 1.59349,1.59349 0,0.88006 -0.71345,1.59349 -1.59349,1.59349 -0.88005,0 -1.59348,-0.71343 -1.59348,-1.59349 0,-0.88004 0.71343,-1.59349 1.59348,-1.59349 m 1.19512,3.58535 h -0.28285 c -0.56546,0.26001 -1.2347,0.27125 -1.82454,0 h -0.28284 c -0.66005,0 -1.19512,0.53507 -1.19512,1.19513 v 3.38615 c 0,0.33002 0.26753,0.59755 0.59757,0.59755 h 0.39835 v 3.38617 c 0,0.33002 0.26754,0.59755 0.59757,0.59755 h 1.59349 c 0.33002,0 0.59755,-0.26753 0.59755,-0.59755 v -3.38617 h 0.39837 c 0.33003,0 0.59756,-0.26753 0.59756,-0.59755 v -3.38615 c 0,-0.66006 -0.53506,-1.19513 -1.19511,-1.19513 z"
         id="path36134-7"
         style="stroke-width:0.0248982" />
      <text
         xml:space="preserve"
         transform="matrix(0.26458333,0,0,0.26458333,94.729003,85.884962)"
         id="text20616-0-5-8"
         style="font-style:normal;font-weight:normal;font-size:26.6667px;line-height:1.25;font-family:sans-serif;white-space:pre;shape-inside:url(#rect20618-2-65-6);fill:#4d4d4d;fill-opacity:1;stroke:none"><tspan
           x="31.546875"
           y="162.91087"
           id="tspan81231">inflected</tspan></text>
    </g>
    <path
       id="path21494-1-4"
       style="stroke-width:0.0226644"
       sodipodi:type="inkscape:offset"
       inkscape:radius="0"
       inkscape:original="M 122.87695 40.376953 C 122.28401 40.376953 121.80469 40.872094 121.80469 41.480469 C 121.80469 41.824826 121.9598 42.128054 122.19922 42.330078 L 120.37695 45.603516 C 120.17781 45.961647 119.72907 46.080346 119.38672 45.869141 L 117.76953 44.873047 C 117.82993 44.735301 117.86719 44.580972 117.86719 44.417969 C 117.86719 43.809602 117.38787 43.316406 116.79492 43.316406 C 116.20198 43.316406 115.7168 43.809602 115.7168 44.417969 C 115.7168 45.026345 116.19807 45.519531 116.79102 45.519531 C 116.84922 45.519531 116.90891 45.511093 116.96484 45.501953 L 118.58203 49.927734 L 127.17383 49.927734 L 128.79102 45.501953 C 128.84692 45.511153 128.90667 45.519531 128.96484 45.519531 C 129.55778 45.519531 130.03711 45.026345 130.03711 44.417969 C 130.03711 43.809602 129.55778 43.316406 128.96484 43.316406 C 128.3719 43.316406 127.89062 43.809602 127.89062 44.417969 C 127.89062 44.580972 127.92568 44.733008 127.98828 44.873047 L 126.36914 45.869141 C 126.02457 46.080346 125.57805 45.961649 125.37891 45.603516 L 123.55664 42.330078 C 123.79606 42.128054 123.95117 41.824826 123.95117 41.480469 C 123.95117 40.872094 123.4699 40.376953 122.87695 40.376953 z M 118.22461 50.662109 C 118.0277 50.662109 117.86523 50.827272 117.86523 51.029297 L 117.86523 51.765625 C 117.86523 51.96765 118.0277 52.132812 118.22461 52.132812 L 127.53125 52.132812 C 127.72815 52.132812 127.89062 51.96765 127.89062 51.765625 L 127.89062 51.029297 C 127.89062 50.827272 127.72815 50.662109 127.53125 50.662109 L 118.22461 50.662109 z "
       d="m 122.87695,40.376953 c -0.59294,0 -1.07226,0.495141 -1.07226,1.103516 0,0.344357 0.15511,0.647585 0.39453,0.849609 l -1.82227,3.273438 c -0.19914,0.358131 -0.64788,0.47683 -0.99023,0.265625 l -1.61719,-0.996094 c 0.0604,-0.137746 0.0977,-0.292075 0.0977,-0.455078 0,-0.608367 -0.47932,-1.101563 -1.07227,-1.101563 -0.59294,0 -1.07812,0.493196 -1.07812,1.101563 0,0.608376 0.48127,1.101562 1.07422,1.101562 0.0582,0 0.11789,-0.0084 0.17382,-0.01758 l 1.61719,4.425781 h 8.5918 l 1.61719,-4.425781 c 0.0559,0.0092 0.11565,0.01758 0.17382,0.01758 0.59294,0 1.07227,-0.493186 1.07227,-1.101562 0,-0.608367 -0.47933,-1.101563 -1.07227,-1.101563 -0.59294,0 -1.07422,0.493196 -1.07422,1.101563 0,0.163003 0.0351,0.315039 0.0977,0.455078 l -1.61914,0.996094 c -0.34457,0.211205 -0.79109,0.09251 -0.99023,-0.265625 l -1.82227,-3.273438 c 0.23942,-0.202024 0.39453,-0.505252 0.39453,-0.849609 0,-0.608375 -0.48127,-1.103516 -1.07422,-1.103516 z m -4.65234,10.285156 c -0.19691,0 -0.35938,0.165163 -0.35938,0.367188 v 0.736328 c 0,0.202025 0.16247,0.367187 0.35938,0.367187 h 9.30664 c 0.1969,0 0.35937,-0.165162 0.35937,-0.367187 v -0.736328 c 0,-0.202025 -0.16247,-0.367188 -0.35937,-0.367188 z"
       transform="matrix(0.61892847,0,0,0.61892847,-50.037764,91.556376)" />
    <path
       id="path36134-1"
       style="stroke-width:0.0248982"
       sodipodi:type="inkscape:offset"
       inkscape:radius="0"
       inkscape:original="M 157.83984 39.880859 C 156.95979 39.880859 156.24609 40.594564 156.24609 41.474609 C 156.24609 42.354667 156.95979 43.068359 157.83984 43.068359 C 158.71988 43.068359 159.43359 42.354667 159.43359 41.474609 C 159.43359 40.594564 158.71988 39.880859 157.83984 39.880859 z M 156.64453 43.466797 C 155.98448 43.466797 155.44922 44.002054 155.44922 44.662109 L 155.44922 48.046875 C 155.44922 48.376897 155.71683 48.644531 156.04688 48.644531 L 156.44531 48.644531 L 156.44531 52.03125 C 156.44531 52.361271 156.71294 52.628906 157.04297 52.628906 L 158.63672 52.628906 C 158.96674 52.628906 159.23437 52.361271 159.23438 52.03125 L 159.23438 48.644531 L 159.63281 48.644531 C 159.96284 48.644531 160.23047 48.376897 160.23047 48.046875 L 160.23047 44.662109 C 160.23047 44.002054 159.69521 43.466797 159.03516 43.466797 L 158.75195 43.466797 C 158.18649 43.726808 157.51757 43.738048 156.92773 43.466797 L 156.64453 43.466797 z "
       d="m 157.83984,39.880859 c -0.88005,0 -1.59375,0.713705 -1.59375,1.59375 0,0.880058 0.7137,1.59375 1.59375,1.59375 0.88004,0 1.59375,-0.713692 1.59375,-1.59375 0,-0.880045 -0.71371,-1.59375 -1.59375,-1.59375 z m -1.19531,3.585938 c -0.66005,0 -1.19531,0.535257 -1.19531,1.195312 v 3.384766 c 0,0.330022 0.26761,0.597656 0.59766,0.597656 h 0.39843 v 3.386719 c 0,0.330021 0.26763,0.597656 0.59766,0.597656 h 1.59375 c 0.33002,0 0.59765,-0.267635 0.59766,-0.597656 v -3.386719 h 0.39843 c 0.33003,0 0.59766,-0.267634 0.59766,-0.597656 v -3.384766 c 0,-0.660055 -0.53526,-1.195312 -1.19531,-1.195312 h -0.28321 c -0.56546,0.260011 -1.23438,0.271251 -1.82422,0 z"
       transform="matrix(0.87637134,0,0,0.87637134,-112.02144,101.15683)" />
    <text
       xml:space="preserve"
       transform="matrix(0.26458333,0,0,0.26458333,15.669658,11.130171)"
       id="text62160"
       style="font-style:normal;font-weight:normal;font-size:21.3333336px;line-height:1.25;font-family:sans-serif;white-space:pre;shape-inside:url(#rect62162);fill:#000000;fill-opacity:1;stroke:none" />
    <text
       xml:space="preserve"
       style="font-style:normal;font-weight:normal;font-size:7.05556px;line-height:1.25;font-family:sans-serif;fill:#000000;fill-opacity:1;stroke:none;stroke-width:0.264583"
       x="32.866039"
       y="122.80521"
       id="text65914"><tspan
         sodipodi:role="line"
         id="tspan65912"
         style="font-style:normal;font-variant:normal;font-weight:bold;font-stretch:normal;font-size:7.05556px;font-family:sans-serif;-inkscape-font-specification:'sans-serif Bold';stroke-width:0.264583"
         x="32.866039"
         y="122.80521">king</tspan></text>
    <text
       xml:space="preserve"
       style="font-style:normal;font-weight:normal;font-size:7.05556px;line-height:1.25;font-family:sans-serif;fill:#000000;fill-opacity:1;stroke:none;stroke-width:0.264583"
       x="32.362537"
       y="143.16978"
       id="text65914-0"><tspan
         sodipodi:role="line"
         id="tspan65912-4"
         style="font-style:normal;font-variant:normal;font-weight:bold;font-stretch:normal;font-size:7.05556px;font-family:sans-serif;-inkscape-font-specification:'sans-serif Bold';stroke-width:0.264583"
         x="32.362537"
         y="143.16978">servant</tspan></text>
    <text
       xml:space="preserve"
       transform="matrix(0.26458333,0,0,0.26458333,-8.9312498,50.776261)"
       id="text72313"
       style="font-style:normal;font-weight:normal;font-size:18.6667px;line-height:1.25;font-family:sans-serif;white-space:pre;shape-inside:url(#rect72315);fill:#000000;fill-opacity:1;stroke:none"><tspan
         x="155.22266"
         y="373.58098"
         id="tspan81233">can be mini-pronoun</tspan></text>
    <text
       xml:space="preserve"
       transform="matrix(0.26458333,0,0,0.26458333,-8.0903811,30.587097)"
       id="text72313-6"
       style="font-style:normal;font-weight:normal;font-size:18.6667px;line-height:1.25;font-family:sans-serif;white-space:pre;shape-inside:url(#rect72315-4);fill:#000000;fill-opacity:1;stroke:none"><tspan
         x="155.22266"
         y="373.58098"
         id="tspan81235">controls the verb
</tspan><tspan
         x="155.22266"
         y="396.91435"
         id="tspan81237">can be left out</tspan></text>
  </g>
</svg>
